<svg width="431" height="106" viewBox="0 0 431 106" fill="none" xmlns="http://www.w3.org/2000/svg">
<g filter="url(#filter0_d_2071_16157)">
<path d="M426.944 27.2977C426.32 22.0651 424.353 17.1797 421.137 12.8269C417.851 8.38151 413.501 5.02429 408.202 2.84789C403.597 0.949318 398.484 2.28882e-05 393 2.28882e-05C387.192 2.28882e-05 381.893 1.04192 377.242 3.07941C374.072 4.46861 371.295 6.32087 368.866 8.52042C367.547 7.38592 366.089 6.32088 364.516 5.34844C358.847 1.80599 351.974 0.0231857 344.13 0.0231857C335.8 0.0231857 328.627 2.17644 322.866 6.45979C320.182 8.45097 317.937 10.6505 316.155 12.989V1.48183L2.80859 1.48183L2.80859 98.2856L317.312 98.2856V88.5149C319.672 91.3859 322.657 93.8402 326.198 95.8082C330.895 98.4245 335.985 99.7443 341.377 99.7443C344.593 99.7443 347.647 99.258 350.47 98.2856H379.348V97.4521C383.536 98.9571 388.094 99.7443 392.976 99.7443C398.761 99.7443 404.083 98.7024 408.734 96.6649C413.94 94.3959 418.198 90.9923 421.368 86.5932C424.469 82.2867 426.366 77.4245 426.944 72.1687C427.338 68.6726 427.523 63.4863 427.523 55.8225V43.9449C427.523 36.0728 427.338 30.7707 426.921 27.3209L426.944 27.2977Z" fill="#F6FF4B"/>
<path d="M57.9958 15.1652V84.5787H39.9475V55.4287H34.5561V84.5787H16.5078L16.5078 15.1652H34.5561V39.9855H39.9475V15.1652H57.9958Z" fill="black"/>
<path d="M65.2148 15.1652H95.2954V29.0571H83.2632V42.2082H94.5318V55.4055H83.2632V70.6635H96.4986V84.5555H65.2148V15.142V15.1652Z" fill="black"/>
<path d="M101.683 15.1646H114.456C122.971 15.1646 128.732 15.4887 131.74 16.1602C134.748 16.8085 137.201 18.4986 139.099 21.2076C140.996 23.9165 141.945 28.223 141.945 34.1271C141.945 39.5218 141.274 43.1569 139.932 45.0091C138.59 46.8614 135.952 47.9727 131.995 48.3432C135.558 49.223 137.965 50.427 139.191 51.9088C140.417 53.3906 141.181 54.7567 141.482 56.0069C141.783 57.2572 141.922 60.6839 141.922 66.2638V84.578H125.169V61.5174C125.169 57.8129 124.868 55.4976 124.29 54.6177C123.711 53.7379 122.161 53.298 119.685 53.298V84.6012H101.637V15.1877L101.683 15.1646ZM119.731 27.0422V42.4854C121.768 42.4854 123.179 42.2076 123.989 41.6519C124.799 41.0962 125.215 39.2903 125.215 36.234V32.4138C125.215 30.2142 124.822 28.7787 124.035 28.0841C123.248 27.3895 121.814 27.0654 119.731 27.0654V27.0422Z" fill="black"/>
<path d="M148.957 15.1652H179.038V29.0571H167.005V42.2082H178.274V55.4055H167.005V70.6635H180.241V84.5555H148.957V15.142V15.1652Z" fill="black"/>
<path d="M268.792 15.1652L260.763 84.5787H238.249C236.189 73.905 234.361 61.7727 232.788 48.1818C232.071 54.0164 230.382 66.1487 227.767 84.5787H205.368L197.293 15.1652H214.809L216.706 39.3835L218.558 62.7915C219.229 50.6823 220.895 34.7992 223.556 15.1652H242.275C242.529 17.2027 243.177 24.8201 244.242 38.0638L246.232 64.4817C247.25 47.6724 248.939 31.2336 251.276 15.1884H268.792V15.1652Z" fill="black"/>
<path d="M272.355 15.1652H302.436V29.0571H290.404V42.2082H301.672V55.4055H290.404V70.6635H303.639V84.5555H272.355V15.142V15.1652Z" fill="black"/>
<path d="M365.671 40.726H347.622V34.4283C347.622 30.446 347.46 27.9686 347.113 26.973C346.766 25.9774 345.956 25.468 344.661 25.468C343.55 25.468 342.786 25.9079 342.393 26.7646C342 27.6213 341.791 29.8208 341.791 33.3633V66.6808C341.791 69.8065 342 71.844 342.393 72.8396C342.786 73.8352 343.596 74.3214 344.799 74.3214C346.118 74.3214 346.998 73.7657 347.484 72.6544C347.946 71.543 348.201 69.3666 348.201 66.1251V57.9057H344.568V47.3479H365.694V84.5783H354.356L352.69 79.6003C351.463 81.7536 349.913 83.3512 348.039 84.4162C346.165 85.4813 343.966 86.0138 341.421 86.0138C338.39 86.0138 335.544 85.2729 332.906 83.8142C330.268 82.3324 328.255 80.5265 326.89 78.3501C325.525 76.1737 324.669 73.9046 324.322 71.5199C323.974 69.1351 323.812 65.5463 323.812 60.7767V40.1472C323.812 33.5254 324.16 28.7095 324.877 25.6996C325.594 22.6896 327.63 19.9576 331.032 17.457C334.41 14.9565 338.783 13.7062 344.175 13.7062C349.566 13.7062 353.847 14.7944 357.318 16.9708C360.812 19.1472 363.079 21.7172 364.12 24.704C365.185 27.6907 365.694 32.0204 365.694 37.7161V40.726H365.671Z" fill="black"/>
<path d="M413.872 55.8221C413.872 62.7912 413.71 67.7228 413.386 70.6401C413.062 73.5343 412.021 76.1969 410.309 78.5817C408.573 80.9896 406.236 82.8187 403.298 84.1153C400.359 85.4119 396.934 86.037 393.024 86.037C389.113 86.037 385.967 85.4351 383.028 84.2079C380.066 82.9808 377.683 81.1749 375.901 78.7438C374.119 76.3127 373.032 73.6732 372.685 70.8022C372.338 67.9544 372.176 62.9533 372.176 55.7989V43.9213C372.176 36.9521 372.338 32.0205 372.662 29.1032C372.986 26.209 374.027 23.5464 375.739 21.1616C377.475 18.7537 379.812 16.9246 382.75 15.628C385.689 14.3314 389.113 13.7063 393.024 13.7063C396.726 13.7063 400.081 14.3083 403.02 15.5354C405.982 16.7625 408.365 18.5685 410.147 20.9996C411.928 23.4306 413.016 26.0701 413.363 28.9411C413.71 31.789 413.872 36.7901 413.872 43.9444V55.8221ZM395.824 33.0161C395.824 29.7978 395.639 27.714 395.292 26.811C394.944 25.9081 394.204 25.4681 393.093 25.4681C392.145 25.4681 391.427 25.8386 390.941 26.5563C390.432 27.2972 390.201 29.4273 390.201 33.0161V65.4307C390.201 69.4593 390.363 71.9367 390.687 72.886C391.011 73.8353 391.774 74.2983 392.978 74.2983C394.181 74.2983 394.991 73.7658 395.338 72.6776C395.685 71.5894 395.847 68.9963 395.847 64.9213V33.0161H395.824Z" fill="black"/>
</g>
<defs>
<filter id="filter0_d_2071_16157" x="-0.00163722" y="0" width="430.335" height="105.365" filterUnits="userSpaceOnUse" color-interpolation-filters="sRGB">
<feFlood flood-opacity="0" result="BackgroundImageFix"/>
<feColorMatrix in="SourceAlpha" type="matrix" values="0 0 0 0 0 0 0 0 0 0 0 0 0 0 0 0 0 0 127 0" result="hardAlpha"/>
<feOffset dy="2.81023"/>
<feGaussianBlur stdDeviation="1.40512"/>
<feComposite in2="hardAlpha" operator="out"/>
<feColorMatrix type="matrix" values="0 0 0 0 0 0 0 0 0 0 0 0 0 0 0 0 0 0 0.25 0"/>
<feBlend mode="normal" in2="BackgroundImageFix" result="effect1_dropShadow_2071_16157"/>
<feBlend mode="normal" in="SourceGraphic" in2="effect1_dropShadow_2071_16157" result="shape"/>
</filter>
</defs>
</svg>
