<svg xmlns="http://www.w3.org/2000/svg" width="708" height="207" viewBox="0 0 708 207" fill="none">
  <path d="M51.768 28.9407C68.0913 23.9684 90.0595 19.7257 106.969 17.1765C112.263 16.3741 110.098 18.9321 113.772 18.4677C120.968 17.5564 127.299 15.0649 134.468 14.3465C136.863 14.1146 134.688 17.8505 137.171 17.5405C142.676 16.8483 148.062 15.8251 153.384 14.729C161.275 13.1141 168.901 11.3131 177.834 10.1002C179.836 9.83537 181.903 9.5717 184.302 9.32959C185.549 9.20731 186.801 9.08455 188.71 8.9859C189.74 8.94796 190.69 8.86608 193.133 8.97435C194.661 9.19537 195.323 8.65903 201.644 10.6618C202.524 10.9821 203.505 11.3849 204.623 11.9479C206.154 12.7232 207.951 13.7891 209.927 15.4567C213.445 17.49 220.747 29.3118 219.34 37.78C218.276 46.944 215.785 49.207 214.148 51.8328C212.673 53.8018 211.641 54.7935 210.672 55.7033C209.761 56.539 208.996 57.1409 208.328 57.6346C207.768 58.047 207.29 58.3696 206.85 58.6538C206.023 59.1855 205.433 59.5175 204.945 59.785C203.972 60.3134 203.316 60.6193 202.766 60.8724C201.662 61.374 200.89 61.6791 200.195 61.9508C198.798 62.4917 197.713 62.8716 196.64 63.2491C194.525 63.9879 192.626 64.6315 190.742 65.289C186.998 66.5919 183.434 67.8929 179.912 69.2847C163.497 75.6987 147.456 84.9005 131.375 95.2731C107.33 110.928 83.2817 128.558 59.3189 146.373C55.0643 149.547 50.7946 152.776 46.979 155.847C45.589 156.967 44.1833 158.116 43.1569 158.99C42.6677 159.398 42.234 159.81 42.3369 159.629C42.4041 159.499 42.612 159.286 43.2848 158.155C43.7813 157.144 45.8218 154.21 45.7067 148.192C45.6321 146.445 45.3796 144.035 44.1155 140.992C42.9065 137.961 40.3484 134.734 38.0945 132.994C36.9185 132.045 35.7148 131.292 34.5858 130.715C33.642 130.234 32.8797 129.923 32.1085 129.647C30.6357 129.118 29.1528 128.833 28.5277 128.74C26.9584 128.496 25.7831 128.501 25.2348 128.51C24.5973 128.52 24.0124 128.571 23.7586 128.599C23.4443 128.633 23.1929 128.669 22.9873 128.702C22.7924 128.734 22.6838 128.756 22.5695 128.779C22.3437 128.826 22.2481 128.855 22.185 128.876C21.9713 128.954 22.3071 128.905 22.6379 128.84C23.3535 128.697 24.3715 128.444 25.3889 128.18C27.4431 127.646 29.6675 127.026 31.9185 126.386C36.4761 125.084 41.042 123.735 45.6998 122.29C54.9319 119.428 64.0258 116.36 72.5433 112.882C73.4557 112.507 74.3755 112.122 75.3007 111.727C77.8179 110.65 75.3405 108.612 75.7517 108.22C82.1 102.187 81.5084 108.343 86.7233 107.223C107.353 102.78 129.321 94.9431 147.842 86.9525C155.73 83.5402 145.763 81.3763 154.92 81.2714C155.555 81.2583 154.533 84.7665 156.848 84.2429C162.095 83.0507 171.398 79.042 175.355 77.8213C182.982 75.4848 184.202 75.0001 191.285 72.4044C200.97 68.8815 212.935 65.986 223.077 61.4951C225.239 60.5283 221.264 58.7996 224.604 57.0079C227.952 55.2143 237.371 51.9708 240.764 51.4593C244.168 50.9448 243.648 53.6635 244.395 53.9629C250.594 56.5309 259.117 46.573 260.477 45.8946C264.33 43.9955 268.256 42.2373 271.995 40.6743C280.336 37.1969 288.419 34.4058 296.492 31.7477C300.541 30.4126 304.469 29.1575 308.493 27.8227C310.463 27.1704 312.434 26.5084 314.319 25.8462C315.234 25.5258 316.18 25.1834 316.916 24.9075C317.09 24.8426 317.268 24.7744 317.375 24.7364C317.489 24.6956 317.571 24.6625 317.398 24.7637C317.366 24.7838 317.265 24.8403 317.141 24.9134C316.995 25.0018 316.915 25.0437 316.493 25.318C316.301 25.445 316.068 25.6037 315.771 25.8261C315.585 25.972 314.86 26.4882 313.906 27.475C313.662 27.7293 313.394 28.0241 313.101 28.3804C312.955 28.5585 312.802 28.7523 312.643 28.9655C312.564 29.0717 312.483 29.1833 312.401 29.3C312.36 29.3579 312.318 29.4179 312.276 29.479C312.248 29.5197 312.125 29.7032 312.047 29.8244C310.798 31.7389 308.369 36.5194 310.184 42.8296C312.083 49.0175 316.566 51.6719 318.671 52.6398C319.251 52.9071 319.762 53.1015 320.218 53.2555C320.275 53.2747 320.331 53.2933 320.387 53.3112C320.421 53.3224 320.451 53.332 320.483 53.3422C320.547 53.3623 320.609 53.3816 320.67 53.4002C320.792 53.4373 320.91 53.4713 321.024 53.503C321.479 53.6291 321.87 53.7163 322.213 53.7832C323.571 54.0383 324.301 54.0377 324.629 54.0536C325.027 54.0646 325.301 54.0583 325.515 54.0508C325.871 54.0367 326.043 54.0189 326.151 54.008C326.344 53.9863 326.318 53.9819 326.221 53.9889C324.586 53.9975 321.448 54.7768 318.13 55.8129C316.409 56.3512 314.64 56.9463 312.832 57.5806C297.124 63.0748 281.277 71.0001 266.726 77.7607C263.428 79.2907 260.203 80.7736 257.027 82.2317C241.636 89.3254 227.322 95.7064 212.113 104.257C210.177 105.344 214.152 107.203 211.8 108.534C198.812 115.901 185.743 123.213 172.966 130.308C170.052 131.933 166.968 133.657 164.88 134.908C164.658 135.039 164.428 135.181 164.334 135.229C164.282 135.256 164.257 135.266 164.292 135.227C164.316 135.196 164.43 135.098 164.683 134.858C164.746 134.798 164.818 134.728 164.901 134.647C165.006 134.544 165.144 134.406 165.299 134.243C165.456 134.078 165.636 133.881 165.848 133.634C165.953 133.511 166.066 133.375 166.188 133.224C166.248 133.148 166.311 133.068 166.376 132.984C166.437 132.905 166.567 132.734 166.671 132.591C167.107 131.987 167.64 131.2 168.233 129.988C168.528 129.38 168.837 128.662 169.125 127.786C169.387 127.034 169.992 124.807 170.005 122.569C170.461 117.966 166.9 110.959 163.894 108.824C160.72 106.117 157.994 105.365 156.329 104.949C154.216 104.48 153.048 104.514 152.207 104.52C151.525 104.541 151.24 104.578 150.927 104.615C150.316 104.695 150.219 104.735 150.094 104.766C149.905 104.824 150.056 104.815 150.252 104.783C150.424 104.759 150.748 104.69 151.017 104.632C151.621 104.498 152.298 104.331 153.063 104.129C159.029 102.537 165.778 100.489 172.379 98.6204C175.144 97.8349 172.765 102.055 175.631 101.428C178.17 100.867 180.932 100.299 183.909 99.6466C200.878 95.9853 222.157 90.6273 226.294 76.6108C237.685 72.7109 251.423 67.8795 262.423 66.4566C269.511 65.5367 264.502 71.1605 271.882 66.6827C273.55 65.675 270.135 63.8419 272.718 62.5395C283.581 57.0635 296.232 53.0619 306.805 47.1812C308.934 45.9858 307.334 43.7663 307.802 43.0641C311.732 37.321 323.088 39.654 325.229 39.2916C333.154 37.9314 339.679 35.8716 345.857 33.4801C352.367 30.9561 358.464 28.0959 365.43 25.212C368.554 23.9154 363.444 22.2044 366.457 20.811C369.097 19.5938 371.685 18.4123 374.237 17.2252C375.466 16.6519 376.733 16.0543 377.637 15.5959C377.837 15.4948 378.045 15.3854 378.112 15.3478C378.144 15.3305 378.157 15.3215 378.064 15.3758C378.019 15.4028 377.949 15.4444 377.849 15.508C377.72 15.5901 377.532 15.7116 377.263 15.9045C377.015 16.0872 376.426 16.5007 375.565 17.326C374.891 18.0004 373.954 18.8994 372.748 20.9179C372.024 22.1666 370.445 25.1658 370.424 29.4603C370.112 33.4829 373.022 39.9035 376.154 42.2931C379.54 45.0936 380.759 45.1772 381.989 45.6967C383.179 46.0974 384.05 46.2667 384.747 46.3805C385.778 46.5396 386.367 46.5603 386.868 46.5768C387.128 46.5831 387.28 46.5822 387.425 46.5808C387.57 46.5792 387.698 46.5757 387.811 46.5714C388.035 46.5631 388.225 46.5501 388.331 46.5418C388.811 46.5022 388.891 46.4819 388.923 46.4781C388.945 46.474 388.876 46.4833 388.767 46.5008C385.496 46.8655 374.963 51.5427 367.061 54.7432C365.251 55.4843 363.424 56.2263 361.584 56.962C358.122 58.3384 359.773 54.0709 358.031 54.6005C350.396 56.9704 351.508 62.8755 344.243 65.3203C342.714 65.8451 342.288 63.1268 341.896 63.0114C335.751 61.1996 335.243 68.6819 334.278 69.359C322.434 77.847 311.18 76.8751 299.455 84.0007C299.125 84.2009 298.802 84.4039 298.484 84.6101C297.064 85.5411 302.019 86.5367 297.903 88.9973C295.192 90.6263 292.438 92.2734 289.846 93.8705C288.553 94.6689 287.269 95.4749 286.239 96.1708C285.736 96.5086 285.272 96.8481 285.172 96.9379C285.134 96.9676 285.188 96.954 285.572 96.579C285.9 96.2673 286.899 95.1414 287.564 93.7061C287.721 93.296 288.175 92.6529 288.606 90.303C289.185 88.3331 288.443 82.2123 285.337 79.1509C284.672 78.4039 283.967 77.7822 283.291 77.2822C282.683 76.8346 282.21 76.5485 281.714 76.2769C281.228 76.0134 280.776 75.8071 280.363 75.6406C280.025 75.5043 279.743 75.4054 279.466 75.3167C278.305 74.9588 277.803 74.9076 277.333 74.8382C276.508 74.739 276.247 74.759 276.077 74.7552C275.905 74.7571 275.892 74.7604 275.909 74.758C276.031 74.7501 276.719 74.6644 277.374 74.5562C278.772 74.3294 280.418 74.0075 282.06 73.6711C285.342 72.9971 288.853 72.2171 292.299 71.4499C299.264 69.8941 306.26 68.3183 313.359 66.7741C324.982 64.245 336.62 61.8648 348.038 59.7598C352.951 58.8472 350.166 62.1636 350.547 62.3761C356.713 65.6368 358.235 58.6095 359.725 57.9545C371.615 52.9214 384.551 54.9141 390.911 45.2803C419.627 38.8503 447.727 30.4081 475.954 22.7384C481.77 21.1623 487.453 19.6232 493.472 18.1758C495.06 17.7976 496.487 17.4684 498.291 17.105C498.509 17.0617 498.7 17.0255 498.937 16.9806C499.192 16.9317 499.444 16.8855 499.694 16.8419C499.944 16.7982 500.193 16.7572 500.444 16.7185C500.769 16.6668 501.097 16.6191 501.441 16.5762C501.793 16.5337 502.099 16.4955 502.744 16.4482C503.04 16.428 503.361 16.4124 503.73 16.4081C503.915 16.4061 504.112 16.407 504.326 16.4128C504.651 16.4209 505.064 16.4416 505.533 16.4935C506.007 16.5466 506.558 16.6285 507.241 16.796C507.583 16.8803 507.958 16.987 508.374 17.1315C508.582 17.2038 508.799 17.2856 509.028 17.3798C509.086 17.4036 509.141 17.4267 509.204 17.4536C509.314 17.5007 509.426 17.5505 509.54 17.6037C509.769 17.71 510.008 17.8293 510.256 17.9643C512.167 18.9342 515.12 21.5494 516.145 25.275C517.142 29.4085 516.442 30.8172 516.022 32.4838C514.996 35.4309 513.737 36.5471 513.511 36.872C513.071 37.3718 512.703 37.7255 512.374 38.025C510.308 39.7872 509.721 39.9766 508.799 40.5665C508.411 40.795 507.988 41.0382 507.593 41.2587C507.241 41.4537 506.876 41.6527 506.496 41.8574C505.046 42.6338 503.689 43.3182 502.261 44.0298C491.376 49.3599 480.544 54.0884 469.453 58.5583C468.722 58.849 467.98 59.1429 467.23 59.4397C466.594 59.6996 466.153 56.3561 464.887 56.8888C449.691 63.2683 454.779 66.0486 448.241 76.5364C446.627 79.1559 435.84 76.9425 434.925 76.8518C431.626 76.4729 431.762 71.0333 430.791 71.1464C422.887 72.1969 431.509 85.0793 422.799 90.006C422.513 90.1377 422.258 87.0137 421.387 87.1807C418.669 87.6968 416.976 89.9542 414.269 90.3622C408.051 91.2807 402.537 85.7709 396.912 93.9974C396.21 95.0504 402.05 101.813 394.067 105.882C390.878 107.497 377.246 115.453 373.119 117.162C369.005 118.862 370.232 114.904 369.898 114.954C357.702 117.632 360.845 114.048 352.919 112.216C344.99 110.41 352.968 120.988 351.594 123.468C350.208 125.95 341.088 127.636 338.701 127.774C336.318 127.908 337.727 125.026 335.782 125.445C322.837 128.325 334.213 133.877 331.641 137.767C325.599 146.952 314.094 142.342 305.84 146.019C303.61 147.013 306.436 147.941 304.653 149.215C300.41 152.236 296.39 153.47 292.459 155.559C289.864 156.943 287.316 158.664 284.615 161.494C283.44 162.706 279.614 171.733 273.074 170.601C272.132 170.437 272.658 167.305 269.232 168.697C264.131 170.767 255.342 175.365 250.995 179.127C249.381 180.529 250.21 181.381 250.722 182.141C250.988 182.517 251.187 182.867 251.031 183.227C250.955 183.405 250.81 183.572 250.544 183.75C250.425 183.829 250.268 183.917 250.121 183.979C249.992 184.025 249.792 184.117 249.841 183.973C249.889 183.807 250.177 183.615 250.896 182.192C251.323 181.177 251.839 180.232 251.574 177.753C251.228 175.594 250.163 174.469 249.888 174.202C249.538 173.889 249.628 174.066 249.969 174.658C250.316 175.252 250.93 176.55 250.977 178.002C250.992 178.357 250.978 178.711 250.938 179.046C250.9 179.38 250.828 179.706 250.777 179.866C250.663 180.256 250.519 180.599 250.369 180.886C250.082 181.438 249.703 181.887 249.559 181.952C248.783 182.486 248.506 182.178 248.319 181.913C248.277 181.837 248.266 181.73 248.297 181.561C248.313 181.475 248.343 181.371 248.394 181.223C248.417 181.113 248.588 180.806 248.754 180.251C248.796 180.109 248.838 179.947 248.875 179.758C248.911 179.554 248.941 179.413 248.968 178.978C249.016 178.225 248.824 177.096 248.213 176.183C247.639 175.301 246.864 174.785 246.297 174.534C245.983 174.394 245.824 174.355 245.659 174.311C245.497 174.271 245.355 174.246 245.23 174.23C244.698 174.171 244.593 174.228 244.445 174.257C244.328 174.293 244.296 174.33 244.288 174.362C244.251 174.49 244.42 174.58 244.782 174.573C248.643 174.337 259.635 169.445 263.569 167.678C267.541 165.877 264.165 164.025 264.396 163.703C265.874 161.793 273.09 157.053 273.714 156.782C284.423 151.973 294.987 147.761 305.64 143.676C329.01 134.717 352.077 126.702 374.706 115.382C377.296 114.091 374.237 111.946 374.619 111.719C383.08 106.496 379.422 117.433 386.891 117.236C383.354 111.697 387.523 111.134 393.596 107.662C396.51 105.989 393.827 104.426 394.002 104.067C397 98.5585 402.152 101.675 403.377 102.237C407.892 104.299 409.382 98.841 412.434 100.205C415.477 101.554 412.247 106.976 418.322 104.238C419.09 101.356 412.11 97.7965 416.336 94.8507C432.289 83.7136 466.843 73.7323 481.11 68.0733C495.391 62.3965 499.73 60.0605 508.272 57.2969C523.699 52.3298 516.538 50.5099 524.88 44.7159C524.891 44.708 524.903 44.7001 524.914 44.6922C533.438 38.8483 533.179 51.0064 535.458 52.6327C537.712 54.2705 538.193 51.4072 540.289 51.9508C542.397 52.4898 539.512 55.4529 543.546 54.3008C547.495 53.1741 556.296 44.9768 556.774 42.104C557.63 36.0668 550.851 32.789 561.812 30.5212C562.433 30.4003 561.63 33.8536 563.947 33.2565C570.167 31.6092 576.34 29.777 582.664 28.0547C585.924 27.2022 588.874 26.3185 592.837 25.789C593.476 25.7248 593.887 25.6685 594.899 25.7162C595.26 25.761 596.109 25.7474 597.299 26.3819C598.157 26.7968 599.327 28.0708 599.561 29.3913C599.836 30.6217 599.504 31.6819 599.317 32.1321C598.973 32.963 598.524 33.4852 598.319 33.7244C598.074 34.0072 597.754 34.3217 597.582 34.4732C597.377 34.6592 597.165 34.8386 596.944 35.0177C596.732 35.1884 596.568 35.3112 596.37 35.4592C594.836 36.5834 593.427 37.4203 591.949 38.2871C586.041 41.6648 580.07 44.5392 574.051 47.2001C571.639 48.2499 572.076 44.2702 570.648 44.852C555.775 50.8198 563.38 52.8098 558.659 62.3628C556.478 54.3268 549.879 52.324 539.256 58.0483C532.863 61.4873 535.647 63.9947 532.704 68.4249C531.822 69.7574 526.155 70.0712 526.122 71.9801C526.017 78.2183 533.159 81.2541 521.077 85.0672C520.542 85.2274 520.649 81.7838 518.904 82.5286C510.862 85.9524 509.282 89.8588 505.03 94.3174C503.296 96.1202 501.209 97.9752 498.092 99.9822C489.713 105.398 471.867 111.865 463.958 118.061C462.606 116.478 461.26 115.662 460.016 115.489C459.379 115.42 458.792 115.489 458.296 115.687C458.061 115.77 457.84 115.902 457.71 115.984C457.65 116.011 457.611 116.047 457.624 115.94C457.629 115.875 457.649 115.806 457.651 115.573C457.651 115.382 457.605 114.964 457.345 114.569C457.232 114.396 457.037 114.206 456.852 114.097C456.671 113.988 456.531 113.949 456.454 113.929C456.309 113.896 456.37 113.9 456.463 113.863C456.671 113.797 457.029 113.638 457.382 113.425C458.093 112.998 458.852 112.364 459.517 111.633C460.851 110.166 461.952 108.259 462.471 106.245C468.568 104.157 475.038 101.403 481.328 99.5375C482.357 99.2348 483.464 98.9237 484.486 98.6715C486.977 98.0431 486.344 101.099 486.745 101.252C492.913 103.685 493.866 96.7878 495.302 95.9829C511.164 87.4244 526.399 86.4892 540.694 76.1248C541.194 75.7572 539.838 69.5078 545.756 72.1672C546.151 72.3559 541.928 77.0681 549.494 74.3844C553.781 72.8649 560.609 71.4561 567.38 69.3169C572.555 67.6813 577.737 65.6085 581.811 62.7196C582.517 62.2243 583.416 61.219 584.55 60.1013C585.116 59.543 585.725 58.9621 586.424 58.3968C586.763 58.1182 587.121 57.8434 587.569 57.5606C587.701 57.4833 587.812 57.4139 588.035 57.3127C588.123 57.2775 588.216 57.2407 588.385 57.1857C588.394 57.1813 588.561 57.1319 588.751 57.085C588.991 57.0376 589.152 56.9524 590.181 56.8649C590.319 56.8559 590.478 56.8484 590.673 56.8468C590.651 56.8465 590.95 56.845 591.174 56.8582C591.423 56.8716 591.72 56.8961 592.102 56.9581C592.849 57.1136 593.997 57.2421 595.814 58.538C597.646 59.6664 599.586 63.3471 599.191 65.9764C598.927 68.5897 598.003 69.7157 597.506 70.4406C596.421 71.7995 595.972 71.984 595.626 72.2645C595.293 72.4982 595.105 72.6064 594.952 72.6957C594.878 72.7383 594.884 72.7352 594.852 72.7534C594.802 72.7814 594.759 72.8056 594.719 72.8272C594.562 72.9129 594.463 72.9626 594.382 73.0039C594.221 73.0845 594.133 73.1262 594.097 73.1459C594.049 73.1705 594.009 73.1916 593.971 73.2112C593.891 73.2524 593.846 73.2778 593.803 73.3026C593.467 73.4949 593.275 73.617 593.041 73.7503C591.149 74.9184 588.984 75.585 586.461 74.9164C585.598 74.6799 585.638 72.7067 584.298 72.1645C579.938 70.4874 580.8 77.0553 574.995 73.7164C569.638 70.6449 560.93 70.4042 553.183 77.5144C552.538 78.1049 551.911 78.7378 551.308 79.414C551.052 79.6889 551.275 85.3891 548.236 87.1523C543.378 89.9384 536.138 93.5002 531.51 97.1889C529.289 98.9624 532.68 100.292 532.331 100.641C525.14 107.706 519.115 113.23 514.957 120.528C515.033 120.328 515.161 120.014 515.131 119.437C515.119 118.874 514.749 118.134 514.407 117.831C514.057 117.492 513.814 117.406 513.665 117.349C513.525 117.301 513.454 117.297 513.426 117.299C513.33 117.324 513.62 117.385 513.888 117.399C514.476 117.435 515.202 117.393 515.946 117.321C517.447 117.172 519.046 116.906 520.649 116.602C523.887 115.98 527.259 115.167 530.834 114.175C532.192 113.8 533.635 113.378 535.065 112.946C538.653 111.88 547.095 104.073 555.04 104.621C563.753 105.222 561.778 122.538 577.392 112.533C583.148 108.873 585.029 90.265 597.654 91.1579C598.803 91.2361 599.989 91.4914 601.261 91.9392C603.307 91.0126 605.369 90.1685 607.353 89.5576C607.864 89.4036 608.335 89.2758 608.763 89.1883C608.983 89.1435 609.176 89.1156 609.273 89.1051C609.318 89.0983 609.338 89.1021 609.241 89.082C609.198 89.0721 609.086 89.048 608.934 88.982C608.748 88.8932 608.49 88.7832 608.155 88.3705C607.842 87.9913 607.699 87.3925 607.72 87.0689C607.731 86.7317 607.801 86.5616 607.838 86.4617C607.922 86.2685 607.938 86.2836 607.924 86.3025C607.894 86.359 607.767 86.5183 607.621 86.6747C607.327 86.9918 606.943 87.3492 606.548 87.7044C602.519 91.5838 598.421 93.4921 593.864 99.0978C593.788 99.2378 593.717 99.3807 593.649 99.5324C593.581 99.6891 593.523 99.8212 593.441 100.097C593.405 100.223 593.372 100.359 593.346 100.509C593.322 100.665 593.3 100.791 593.298 101.08C593.309 101.6 593.396 102.275 594 103.015C595.356 104.372 596.223 104.046 596.63 104.109C596.752 104.105 596.869 104.097 596.975 104.086C597.06 104.077 597.142 104.067 597.222 104.055C597.382 104.032 597.534 104.003 597.684 103.97C598.73 103.729 599.395 103.462 600.133 103.183C601.557 102.627 602.872 102.037 604.177 101.448C606.775 100.268 609.321 99.0639 611.859 97.8735C616.936 95.4901 621.964 93.1221 627.065 90.8688C630.159 89.5097 633.5 88.3434 636.438 88.5161C636.473 88.5188 636.513 88.5142 636.557 88.5031C636.869 88.4561 637.243 88.1266 637.883 87.8633C638.449 87.6024 639.515 87.3527 640.334 88.4022C641.781 90.613 641.063 93.3707 640.056 94.4275C636.633 97.7339 633.288 96.7909 630.848 98.3865C621.353 104.302 612.491 110.807 604.714 116.999C604.337 117.388 604.012 117.852 603.804 118.304C603.497 119.013 603.396 119.199 603.191 119.427C603.196 120.198 602.993 120.868 603.342 121.724C603.667 122.546 604.893 123.609 607.158 123.451C613.089 122.572 614.326 117.514 621.366 115.669C626.706 114.165 634.873 117.609 641.334 115.12C638.29 108.836 642.569 106.555 649.742 101.328C651.134 100.326 648.507 98.8122 649.12 98.2216C651.657 95.7451 655.232 96.4935 657.711 94.1433C658.316 93.5768 657.552 91.3083 658.024 90.7151C659.192 89.22 660.922 88.3631 662.838 87.9468C667.56 86.8853 673.039 88.7506 674.206 89.2414C678.699 91.0128 680.711 89.9388 684.206 90.2358C684.636 90.3048 685.049 90.4036 685.453 90.5563C685.955 90.7578 686.416 90.9717 687 91.5299C687.576 92.0707 688.084 93.0546 688.059 94.0206C688.047 94.8916 687.703 95.5807 687.381 96.0023C686.283 97.2944 685.684 97.1723 685.353 97.0349C685.014 96.8529 684.905 96.4069 684.748 96.0255C684.431 95.1972 684.197 94.7132 682.357 95.9512C673.867 100.952 662.079 107.477 653.099 113.446C649.486 115.881 653.769 116.824 653.294 117.233C651.767 118.527 650.131 119.683 648.632 120.924C645.938 123.185 643.366 126.331 643.924 129.553C643.927 129.59 643.959 129.615 643.995 129.614C646.482 128.913 647.966 126.881 648.427 124.216C661.374 136.038 652.252 120.499 664.383 116.995C665.346 116.717 670.51 122.685 667.854 125.646C665.153 128.612 659.087 129.506 654.888 133.704C654.484 134.091 653.74 135.844 652.46 137.966C651.111 140.04 649.377 142.8 644.825 144.259C636.948 144.51 630.031 139.038 629.347 131.187C628.382 126.987 628.556 125.603 628.554 124.789C629.554 115.957 633.088 114.218 635.826 113.242C638.667 112.483 641.131 113.555 642.664 114.384C643.554 114.904 644.148 115.342 644.331 115.375C652.74 117.132 655.401 106.431 657.255 104.598C661.114 100.741 665.129 98.0752 668.777 95.5896C670.593 94.3519 672.333 93.1512 673.798 91.9259C674.541 91.3057 675.194 90.6903 675.669 90.1239C676.128 89.588 676.497 88.9299 676.068 89.0816C675.947 89.1468 675.749 89.2926 675.491 89.5641C675.204 89.886 674.811 90.4245 674.441 91.2413C674.019 92.2524 673.62 93.6235 673.712 95.5431C673.78 97.4724 674.619 99.6763 675.458 100.99C677.459 103.941 678.576 104.515 679.373 105.322C679.973 105.953 680.297 106.414 680.518 106.86C681.355 107.663 681.44 108.27 681.538 108.895C681.609 109.51 681.573 110.088 681.492 110.59C681.318 111.595 680.962 112.286 680.159 112.311C676.924 112.449 673.192 111.863 669.913 111.37C663.67 110.557 657.835 110.2 652.894 119.128C651.245 122.141 657.507 128.175 645.787 126.94C645.087 126.82 635.537 125.27 633.228 130.945C632.943 131.654 634.159 133.755 633.562 134.323C629.157 138.15 626.115 138.252 617.023 142.56C614.438 143.541 611.45 145.014 604.774 145.068C598.381 145.819 585.444 139.232 581.943 131.959C575.708 120.039 578.893 113.492 580.053 109.283C581.681 104.984 583.706 102.054 586.26 99.312C588.826 96.6834 590.059 95.8987 591.206 95.0516C592.4 94.2113 593.397 93.6115 594.323 93.1166C598.633 90.8121 605.138 92.1574 607.312 92.0961C613.451 92.0445 615.062 84.8256 619.556 86.4213C624.213 87.8959 622.646 96.2834 630.746 93.5186C627.176 88.3143 623.708 82.8147 619.978 77.6784C620.442 77.3242 620.844 76.9996 621.027 76.8571C621.115 76.7913 621.15 76.7688 621.082 76.8595C621.02 76.9462 620.841 77.1523 620.494 77.6365C620.337 77.8575 620.077 78.2318 619.785 78.7228C619.485 79.2325 619.169 79.7809 618.708 80.8422C617.994 82.6746 616.364 86.4771 617.578 92.8129C618.789 99.354 623.872 104.236 626.063 105.518C628.921 107.337 629.943 107.469 631.004 107.806C634.33 108.556 634.779 108.021 634.893 107.982C634.93 107.87 634.326 107.892 633.537 108.083C629.514 109.279 625.085 111.002 620.511 113.063C618.206 114.101 615.869 115.224 613.337 116.47C612.059 117.097 610.736 117.757 609.148 118.51C608.32 118.9 607.48 119.294 606.274 119.796C605.687 120.039 604.938 120.337 603.993 120.655C602.778 120.999 601.946 121.494 598.042 121.885C595.687 121.782 587.547 123.4 579.316 113.393C573.434 104.326 575.484 99.6484 575.192 98.2813C575.467 94.8881 575.423 94.5972 575.109 94.2349C574.478 94.0258 573.526 93.3752 575.003 89.3928C575.654 87.8171 576.579 86.2327 577.531 84.9669C580.812 80.8043 581.967 80.0953 583.374 78.7757C584.686 77.6329 585.789 76.769 586.842 75.9705C588.937 74.3895 590.813 73.1091 592.612 71.8092C592.769 71.7058 592.87 71.6483 592.872 71.68C592.868 71.7205 592.786 71.8187 592.421 72.2406C592.237 72.4564 591.987 72.7404 591.545 73.3102C591.112 73.9031 590.546 74.5418 589.437 76.6118C588.958 77.545 588.165 79.1592 587.555 81.599C586.924 84.3583 586.119 88.795 588.297 94.9733C590.377 100.992 595.517 105.424 598.415 106.936C599.213 107.392 600.021 107.782 600.683 108.065C601.252 108.309 601.791 108.512 602.299 108.685C603.315 109.03 604.207 109.255 604.991 109.415C606.244 109.667 607.207 109.759 607.997 109.806C608.636 109.841 609.161 109.841 609.606 109.83C610.422 109.804 610.899 109.746 611.237 109.702C611.903 109.609 612.118 109.542 612.239 109.504C612.445 109.429 612.221 109.446 611.927 109.505C610.636 109.766 608.36 110.541 606.176 111.559C605.83 111.721 605.471 111.897 605.097 112.087C598.369 115.533 591.361 121.755 583.928 125.548C576.326 120.75 564.995 127.805 555.748 130.646C552.51 131.642 552.024 129.765 549.56 130.029C540.188 131.079 546.44 135.529 544.393 137.365C542.897 138.705 541.402 139.443 539.999 139.732C536.467 140.479 533.275 138.713 529.549 137.221C527.689 136.469 525.713 135.784 523.366 135.475C522.159 135.325 520.881 135.27 519.265 135.338C518.423 135.374 517.547 135.439 516.324 135.52C515.673 135.562 514.994 135.605 514.018 135.616C513.033 135.594 511.919 135.704 509.225 135.126C508.603 134.892 507.625 135.12 504.013 133.159C502.294 132.123 498.912 129.74 497.094 124.634C495.303 119.471 496.549 114.856 497.497 112.554C496.791 108.885 497.073 99.0217 497.661 97.7892C501.619 87.7832 500.791 97.9891 505.127 93.8266C513.091 86.855 519.131 84.4391 526.461 76.4524C528.544 74.1532 532.206 66.0141 539.13 66.2429C540.027 66.2752 540.964 68.6752 541.56 68.496C543.865 67.7476 545.422 66.9238 546.65 65.9263C551.137 62.2951 549.699 56.9449 553.315 52.7126C557.967 47.2879 569.45 48.2658 571.852 49.0157C578.223 50.8076 568.871 52.1712 568.78 52.687C567.722 58.408 573.812 54.7698 578.903 53.1913C581.671 58.4816 586.084 58.0018 585.901 55.0402C585.817 54.3853 585.523 53.5923 585 52.6782C584.765 52.3192 584.479 51.9457 584.137 51.561C583.588 50.9499 580.021 53.1206 578.903 53.1913C579.399 50.1528 580.629 47.6843 582.424 45.9291C582.477 45.8447 582.523 45.766 582.528 45.7061C582.53 45.6766 582.525 45.65 582.469 45.6455C582.437 45.645 582.403 45.6451 582.317 45.6678C582.266 45.6824 582.202 45.703 582.11 45.7363C582 45.7788 581.974 45.7791 581.541 45.975C581.333 46.0709 581.075 46.1887 580.571 46.4542C580.444 46.5219 580.299 46.6005 580.126 46.6981C579.89 46.8371 579.222 47.1936 578.088 48.0137C577.486 48.4627 576.718 49.0202 575.47 50.2685C574.291 51.6501 572.134 53.2417 570.133 59.3669C569.223 62.376 568.738 67.2236 570.367 72.0536C571.912 76.9061 575.391 80.7739 578.168 82.7111C583.95 86.5771 586.882 86.3607 588.767 86.6859C589.238 86.7292 589.647 86.7517 590.012 86.764C590.191 86.7701 590.373 86.7737 590.531 86.7752C590.609 86.7759 590.701 86.7762 590.757 86.7761C590.777 86.7761 590.797 86.776 590.817 86.776C590.975 86.7754 591.126 86.7731 591.267 86.7697C591.549 86.7627 591.799 86.7512 592.027 86.7376C592.929 86.6814 593.489 86.603 593.938 86.5375C596.925 86.0015 596.418 85.9854 596.732 85.9372C597.083 85.8454 597.199 85.817 597.251 85.8122C597.381 85.7932 597.391 85.8117 597.397 85.8319C597.395 85.8766 597.326 85.9413 597.253 86.005C596.934 86.2687 596.46 86.5399 595.964 86.7673C594.977 87.22 593.797 87.5358 592.524 87.6677C589.982 87.9295 586.915 87.5127 583.483 86.2958C579.101 84.7545 580.303 80.598 572.93 83.7622C572.074 84.1314 571.014 84.6381 569.877 85.2412C564.963 87.8277 568.888 92.0955 564.881 95.2168C555.712 102.35 540.421 102.869 529.993 107.74C526.208 109.508 531.057 110.802 528.508 112.104C521.74 115.572 514.717 115.901 508.023 119.68C507.415 120.027 510.096 122.31 507.897 123.194C502.659 125.319 497.505 127.157 492.389 128.854C487.712 130.401 483.102 131.86 478.337 133.407C475.92 134.192 473.527 134.981 470.818 135.868C469.428 136.319 468.078 136.768 466.065 137.364C465.017 137.66 463.966 137.996 461.705 138.441C460.527 138.632 459.148 138.982 455.8 138.946C454.172 138.88 451.669 138.789 447.967 137.459C444.18 136.211 438.877 132.43 436.235 127.999C434.391 125.122 433.306 121.88 432.89 119.101C432.529 116.75 432.57 114.679 432.764 112.938C433.13 109.848 433.847 107.962 434.35 106.671C435.427 104.076 436.206 102.956 436.917 101.866C438.181 100.019 439.113 99.0018 439.837 98.2031C441.353 96.5686 442.475 95.5634 443.562 94.5982C453.465 86.0703 466.334 76.5888 475.128 71.777C479.421 69.4593 484.121 67.3526 488.945 65.3468C500.749 60.4652 513.111 56.128 521.4 50.7419C528.989 45.8294 525.774 44.0561 528.155 40.3661C532.736 33.2379 547.708 33.3641 549.79 33.4969C549.851 33.5095 543.464 37.8577 547.835 37.2628C551.517 39.0093 549.723 33.5502 549.79 33.4969C551.177 33.5866 564.835 26.7488 567.06 24.7354C568.27 23.6608 566.034 21.5723 566.703 21.0521C569.951 18.5279 573.307 15.9824 575.81 13.8763C576.422 13.3633 576.944 12.8975 577.238 12.5823C577.402 12.4131 577.482 12.299 577.414 12.3041C577.333 12.3284 577.102 12.4276 576.238 13.2439C575.967 13.508 575.621 13.862 575.197 14.3494C574.74 14.8972 574.39 15.2506 573.387 16.7599C572.936 17.4562 572.432 18.3022 571.901 19.3969C571.365 20.5874 570.86 21.4445 570.071 24.5612C569.412 27.3551 569.001 31.2651 569.957 35.7659C570.779 40.1968 573.79 45.7103 577.142 48.8234C578.809 50.4542 580.508 51.6763 582.059 52.5907C582.957 53.1132 583.268 53.2639 583.799 53.529C584.286 53.7683 584.756 53.9796 585.206 54.1678C587.011 54.9179 588.499 55.3148 589.732 55.5775C592.459 56.102 592.991 56.0351 594 56.0994C595.843 56.1434 596.386 56.0569 596.911 56.0243C597.157 56.0036 597.358 55.9825 597.497 55.9687C597.616 55.9579 597.71 55.9495 597.782 55.9441C597.927 55.9331 597.988 55.9341 597.989 55.9485C598.007 55.9732 597.816 56.0463 597.621 56.1257C595.561 56.8885 591.763 58.3305 588.281 59.6607C581.115 62.3964 573.541 65.1812 565.787 67.7416C565.424 67.825 564.706 64.5808 563.865 64.8169C552.891 67.8054 547.255 73.9748 539.73 79.7609C539.299 80.0963 538.859 80.4316 538.408 80.7664C530.197 86.8362 522.584 89.2469 514.938 86.4194C508.304 90.0502 497.384 92.0816 491.043 93.2005C484.744 94.3006 486.457 100.513 486.021 100.84C471.971 111.385 461.422 112.035 444.929 118.684C437.079 121.837 422.114 129.466 414.023 133.814C407.631 137.26 403.029 137.666 397.336 141.237C396.559 141.721 398.547 143.945 398.339 144.157C392.896 150.289 393.363 142.488 391.455 141.979C384.535 140.118 380.397 139.328 372.559 145.131C370.726 146.476 368.938 158.207 365.515 160.368C361.069 163.155 361.361 159.105 356.769 162.095C356.383 162.345 357.344 164.336 354.217 165.619C343.718 169.947 332.248 174.208 321.186 178.771C316.921 180.533 312.896 182.258 308.791 184.136C306.778 185.048 310.785 187.111 307.904 188.48C294.085 195.002 279.384 201.426 263.978 205.976C259.96 207.13 261.462 203.889 260.345 203.547C259.115 203.178 257.861 203.187 256.407 203.493C255.665 203.648 254.864 203.888 253.723 204.242C252.543 204.572 251.135 205.164 247.477 205.688C246.541 205.78 245.668 205.979 242.71 205.86C241.429 205.74 238.677 205.754 233.881 203.862C230.736 202.559 226.1 200.006 222.195 194.678C218.007 189.219 216.411 181.054 217.117 175.848C217.639 171.439 218.48 169.535 219.333 167.473C220.169 165.572 221.087 164.119 221.444 163.559C222.395 162.086 223.185 161.109 223.852 160.322C224.809 159.189 225.545 158.452 226.041 157.946C226.482 157.493 226.86 157.12 227.204 156.785C227.504 156.486 227.718 156.264 227.949 156.03C228.443 155.541 228.686 155.255 229 154.914C230.077 153.69 230.718 152.782 231.189 152.006C232.189 150.422 232.705 149.287 233.064 149.011C247.82 137.551 260.735 132.064 274.574 124.821C282.388 120.768 290.388 116.285 298.557 110.398C299.74 109.526 306.284 97.8172 313.683 100.354C314.164 100.529 321.602 103.199 323.406 97.4085C323.522 97.0447 319.224 95.9372 324.178 93.4526C329.105 90.9836 335.787 84.7577 344.064 83.9447C346.675 83.6865 354.586 86.0825 358.426 78.369C358.662 77.8478 362.896 62.9525 370.034 67.4912C371.203 68.2423 374.524 75.4524 379.955 67.6946C380.985 66.2042 377.535 66.1361 380.731 63.0512C385.624 58.3152 394.28 55.8404 399.612 48.7781C400.529 47.5429 403.139 39.9006 409.369 41.0703C410.343 41.2547 410.387 44.2606 412.754 43.2673C424.012 38.5589 434.321 30.7645 446.028 26.3928C449.602 25.0435 450.189 28.306 453.024 28.6272C453.556 28.6768 454.164 28.6288 454.873 28.4415C459.421 27.2486 468.071 23.8052 471.311 19.8402C474.546 15.8733 466.792 12.3289 472.741 8.49413C475.836 6.49281 479.031 4.54407 481.696 2.90496C482.413 2.46606 482.979 2.11187 483.481 1.79096C483.699 1.65009 483.914 1.50853 484.003 1.44335C484.088 1.38274 484.091 1.36404 483.74 1.59902C483.607 1.6879 483.198 1.96876 482.603 2.43611C482.129 2.85699 480.879 3.62337 478.148 6.76418C477.646 8.12338 470.854 12.4725 470.173 29.083C469.444 40.6468 479.744 54.8609 486.875 58.1128C487.768 58.6452 488.621 59.0992 489.429 59.4921C490.213 59.8769 491.114 60.2586 491.361 60.3587C492.145 60.6811 492.877 60.9491 493.563 61.1775C494.936 61.6334 496.12 61.9348 497.159 62.158C501.177 62.997 503.669 62.8749 504.276 62.8927C505.267 62.8844 505.974 62.838 506.529 62.7929C506.807 62.77 507.044 62.7463 507.251 62.7237C507.428 62.7042 507.536 62.6911 507.658 62.6758C507.892 62.6462 508.075 62.6198 508.22 62.5977C508.516 62.5522 508.635 62.5289 508.683 62.5199C508.793 62.4982 508.643 62.5262 508.464 62.5647C503.796 63.6307 495.563 65.7256 488.467 67.3284C472.968 70.8724 457.353 73.9747 441.892 77.959C437.457 79.1008 441.777 80.4286 435.271 82.2827C411.324 89.1273 370.449 102.74 348.116 103.371C330.263 103.869 350.551 95.1655 337.29 96.9707C330.902 97.8464 326.17 107.272 324.74 107.902C324.551 107.987 324.364 108.071 324.177 108.153C309.871 114.194 300.588 113.462 283.922 117.627C281.743 118.073 281.553 118.93 281.789 119.762C281.88 120.179 282.002 120.59 281.784 120.944C281.549 121.296 281.086 121.603 279.355 121.777C277.694 121.865 276.607 122.202 271.394 121.679C269.863 121.467 268.361 121.299 265.2 120.338C264.459 120.105 263.67 119.829 262.831 119.496C261.751 119.066 260.578 118.537 259.334 117.871C258.073 117.192 256.823 116.437 255.361 115.374C253.656 114.131 251.891 112.593 250.224 110.749C242.504 103.277 240.474 88.0339 241.949 82.8783C243.041 76.7956 244.286 74.8968 244.827 73.551C251.002 61.9662 255.062 60.9287 256.781 59.1883C258.773 57.7199 259.974 56.9921 261.171 56.2638C263.473 54.8873 265.349 53.9165 267.178 52.9744C270.816 51.1125 274.151 49.4879 277.221 47.6352C277.823 47.2699 278.249 46.8956 278.562 46.5237C279.742 45.0812 279.105 43.6804 281.463 42.5459C288.519 39.1261 295.008 36.7538 302.755 35.164C303.458 35.0209 300.831 39.9099 305.922 37.2801C314.164 33.0169 325.354 29.5871 333.789 22.535C336.3 20.4329 333.812 15.4002 341.78 15.6532C343.224 15.7042 344.459 20.8458 347.788 16.4286C348.329 15.7398 348.858 14.8605 349.524 13.6709C350.472 12.1962 358.755 -1.03892 371.31 0.0656204C372.975 0.285027 377.244 1.07809 381.262 1.95674C381.629 2.04958 382.073 2.12466 382.693 2.17843C383.4 2.23099 384.024 2.2436 386.012 2.26672C387.177 2.36282 387.935 2.0539 392.953 2.99816C394.51 3.349 396.507 3.85177 399.283 5.19231C402.005 6.38368 410.2 11.5237 413.194 21.215C416.022 30.191 413.62 37.4651 411.779 41.243C411.537 41.7403 411.296 42.1977 411.056 42.626C410.891 42.9192 410.769 43.124 410.628 43.3575C410.354 43.8106 410.085 44.2243 409.823 44.6067C409.3 45.37 408.807 46.0071 408.35 46.559C407.442 47.6521 406.632 48.4576 406.013 49.0343C405.579 49.4321 405.188 49.7644 404.83 50.0549C404.127 50.6248 403.485 51.0823 403.052 51.3702C402.316 51.8499 401.705 52.1982 401.21 52.4633C398.115 53.9678 397.378 54.0797 396.277 54.8602C395.732 55.2724 399.476 56.8231 395.894 58.8496C384.718 65.0129 374.369 68.8065 364.024 74.0805C361.706 75.2579 365.125 76.2378 363.888 77.7033C363.658 77.9885 363.251 78.2897 362.575 78.6159C351.303 84.0563 336.615 89.1072 324.978 92.715C320.686 94.0388 322.602 90.4965 322.196 90.3568C315.64 88.066 315.037 94.9357 313.571 95.9075C304.332 101.908 295.608 102.263 286.641 106.642C284.163 107.843 287.055 109.855 286.643 110.3C282.31 114.768 284.297 108.309 280.744 109.091C270.78 111.266 260.457 115.593 251.107 119.671C247.68 121.17 252.831 122.804 249.748 124.11C233.747 130.944 216.898 137.328 200.243 142.303C197.819 143.031 195.482 143.699 193.132 144.341C189.518 145.326 190.783 142.043 189.845 141.758C183.43 139.715 177.978 147.813 176.334 148.969C172.648 151.604 169.892 152.615 166.107 153.547C165.187 153.767 164.106 154.012 162.749 154.285C162.368 154.364 161.973 154.442 161.554 154.521C161.344 154.561 161.128 154.601 160.904 154.641C160.639 154.689 160.33 154.746 160.019 154.799C158.718 154.974 157.567 155.349 153.029 155.468C151.446 155.473 149.473 155.444 146.507 154.924C144.845 154.388 133.709 153.588 124.583 140.553C119.482 133.159 118.37 123.323 119.439 117.354C119.671 115.81 119.987 114.428 120.338 113.19C120.381 113.04 120.432 112.865 120.467 112.748C120.495 112.656 120.523 112.565 120.551 112.474C120.607 112.293 120.663 112.115 120.72 111.94C120.835 111.59 120.952 111.253 121.07 110.928C121.543 109.627 122.037 108.513 122.518 107.538C124.396 103.759 126.362 101.484 126.955 100.76C128.673 98.7304 129.993 97.5707 130.643 96.9875C131.394 96.3216 132.175 95.692 132.583 95.3733C134.638 93.7812 135.632 93.1242 136.793 92.2717C140.646 89.4839 143.428 87.6624 146.509 85.6599C174.456 67.7293 207.541 51.1447 235.284 38.2974C235.857 38.0335 236.423 37.7736 236.982 37.5175C258.13 27.8634 277.674 20.3361 298.176 14.1403C304.489 12.4125 309.158 10.3442 321.04 8.80292C321.189 8.78835 321.388 8.76718 321.771 8.73105C322.145 8.69813 322.655 8.64551 323.667 8.59993C324.122 8.58155 324.998 8.54852 326.177 8.59042C326.498 8.60259 326.752 8.61341 327.238 8.64684C327.767 8.68433 328.374 8.73948 329.103 8.83576C329.832 8.93311 330.682 9.06933 331.724 9.30182C332.246 9.4187 332.816 9.56052 333.448 9.74167C333.765 9.83266 334.094 9.93278 334.445 10.0466C335.04 10.2403 335.689 10.4712 336.393 10.7556C339.152 11.9197 343.218 13.7948 347.65 18.746C352.091 23.4253 355.634 32.6397 354.983 39.9565C354.51 47.3183 351.958 51.8234 350.182 54.6287C350.07 54.8004 349.938 54.9988 349.85 55.1269C349.794 55.2098 349.738 55.2906 349.681 55.3717C349.57 55.532 349.459 55.6873 349.35 55.8378C349.131 56.1394 348.918 56.4217 348.711 56.6874C348.295 57.2195 347.902 57.6859 347.531 58.105C346.047 59.7689 344.926 60.7288 344.016 61.4794C343.491 61.9051 343.337 62.0174 343.092 62.2038C342.863 62.3757 342.65 62.5314 342.449 62.6749C341.649 63.2438 341.018 63.6421 340.518 63.9466C340.161 64.163 339.848 64.3436 339.563 64.5033C339.279 64.6629 339.023 64.8012 338.786 64.9266C338.604 65.0225 338.445 65.1047 338.286 65.1851C337.978 65.3413 337.666 65.4942 337.436 65.6036C337.226 65.7036 337.025 65.7973 336.829 65.8871C335.377 66.5472 334.496 66.8968 333.611 67.2559C331.851 67.9627 330.354 68.5336 328.822 69.1189C325.777 70.2786 322.818 71.3898 319.851 72.5137C313.97 74.7395 308.013 77.0287 301.872 79.465C299.46 80.4179 303.128 82.7588 301.093 83.6113C297.284 85.1769 293.676 86.6164 289.837 88.1073C266.93 97.0071 243.7 104.724 220.858 114.149C218.667 115.045 223.02 116.953 219.536 118.499C212.435 121.677 203.138 124.939 195.402 126.684C191.631 127.541 195.465 123.092 191.689 124.009C182.897 126.137 173.784 129.263 165.312 132.963C161.716 134.542 168.434 135.661 163.673 137.465C139.522 146.662 115.699 155.865 90.8855 163.199C82.2172 165.764 73.5409 168.069 64.5677 170.095C62.2379 170.61 57.8332 164.893 53.4088 167.858C53.6832 169.783 54.4509 171.891 54.973 173.869C51.7451 175.086 48.4181 176.312 45.007 177.508C43.2454 178.124 41.4861 178.728 39.4039 179.388C38.2957 179.735 37.245 180.065 35.5459 180.516C34.5725 180.761 33.7587 180.996 31.5994 181.382C31.3271 181.428 31.069 181.47 30.7362 181.52C30.3579 181.576 29.951 181.631 29.5057 181.682C29.0374 181.735 28.6526 181.775 27.9723 181.825C27.271 181.876 26.4823 181.913 25.5654 181.916C24.7946 181.919 23.2572 181.892 21.5257 181.688C20.6081 181.577 19.8146 181.466 18.4946 181.192C17.0304 180.883 15.3695 180.434 13.5179 179.73C10.6131 178.734 3.25597 174.97 -1.41438 168.316C-6.57137 161.21 -7.57071 154.026 -7.70252 150.057C-7.78988 137.686 -3.38919 132.171 -1.87939 129.441C0.00451279 126.577 1.19484 125.265 2.25083 124.047C4.27673 121.785 5.66703 120.487 6.97877 119.254C9.56279 116.861 11.6912 115.075 13.8367 113.298C18.0515 109.827 22.0372 106.739 26.0606 103.673C50.1668 85.4082 74.4844 67.916 100.52 50.3565C104.107 47.9569 107.735 45.5704 111.405 43.2085C113.327 41.9745 108.02 41.0791 111.752 38.6712C125.291 29.9733 139.642 21.2051 155.604 14.7788C159.955 13.0194 164.344 11.456 168.635 10.1178C170.777 9.4491 172.902 8.8345 174.788 8.33492C175.716 8.09067 176.604 7.86469 177.141 7.7782C177.388 7.74591 177.58 7.72749 177.333 7.92081C177.201 8.02468 176.967 8.1692 176.316 8.57099C175.995 8.77168 175.537 9.051 174.801 9.55055C174.405 9.82008 173.942 10.1455 173.386 10.5692C172.711 11.0825 171.901 11.7312 170.895 12.6708C169.375 14.2695 167.955 15.0287 164.566 20.9308C163.782 22.443 163.146 23.7284 162.299 26.3458C161.473 28.974 160.839 32.2143 160.84 35.8637C160.614 43.0928 164.23 51.9883 168.599 56.6931C172.174 60.7457 175.262 62.6158 177.81 63.99C179.944 65.0898 181.25 65.5527 182.578 65.9966C183.215 66.2041 183.805 66.3726 184.326 66.508C184.727 66.6115 185.1 66.6992 185.45 66.7752C186.149 66.927 186.756 67.033 187.293 67.1138C189.196 67.3866 190.117 67.3806 190.712 67.3876C191.37 67.3881 191.73 67.3599 192.019 67.3324C192.997 67.2162 192.828 66.737 192.821 66.1055C192.759 65.4734 192.604 64.6803 192.325 63.9454C191.763 62.4804 190.635 61.2313 187.634 62.2452C186.701 62.5431 176.887 65.3595 174.498 67.3171C174.179 67.6001 176.674 70.1231 173.399 70.9131C171.063 71.4731 168.695 72.0323 166.265 72.5949C149.257 76.5505 131.154 80.1129 113.679 82.6439C110.45 83.1078 113.071 79.2061 110.767 79.5097C94.8463 81.6286 78.4466 87.9327 62.8836 89.073C62.4719 89.1054 62.067 89.1328 61.6689 89.1552C51.0064 89.7399 53.4601 83.481 46.77 79.528C45.8178 78.9728 39.4467 80.3883 38.3804 77.4016C35.6897 69.897 36.7025 60.7257 33.4861 52.8106C33.1199 51.9628 30.9673 52.5187 29.4309 52.5883C29.0528 52.6043 28.7144 52.5894 28.5181 52.4992C28.4239 52.4533 28.3527 52.3908 28.4341 52.2828C28.4746 52.2292 28.5475 52.1637 28.8187 52.0608C28.9829 52.0051 29.0823 51.9578 29.4921 51.8676C29.6798 51.826 29.8456 51.7889 30.0979 51.7448C30.4339 51.6907 30.8052 51.6427 31.1305 51.6072C32.9327 51.467 32.3787 51.4561 32.3884 51.3791C32.3278 51.3632 32.1727 51.3453 31.8306 51.3382C31.425 51.3344 31.1538 51.333 30.7688 51.3464C29.8923 51.3885 29.5783 51.4081 29.1832 51.4314C28.868 51.4456 28.7257 51.4344 28.562 51.4259C28.4558 51.4066 28.3622 51.3847 28.2955 51.3562C28.1875 51.2941 28.1356 51.216 28.1199 51.1245C28.0715 50.7557 28.3741 50.2233 28.8267 49.5505C29.0548 49.1975 34.8175 46.3067 35.9857 44.4882C36.7873 43.233 34.1412 40.5753 35.9788 38.7722C37.7971 36.9748 40.8245 39.006 43.9976 36.64C46.577 34.7174 45.4914 32.3084 48.6166 30.3147C49.3394 29.8352 50.4224 29.3553 51.768 28.9407ZM462.589 98.2893C456.05 97.8165 459.787 108.425 464.438 103.452C464.658 103.199 462.923 98.3067 462.589 98.2893ZM618.754 103.914C610.07 102.689 608.622 111.69 615.152 112.612C621.512 113.621 621.323 104.338 618.754 103.914ZM595.004 123.911C592.914 118.105 594.923 116.142 595.454 114.37C596.248 112.676 596.991 111.452 597.693 110.27C599.401 107.4 598.915 105.559 597.881 103.904C597.332 103.128 596.551 102.534 595.57 102.304C594.487 102.189 593.438 102.064 591.1 103.951C589.701 105.165 588.328 106.729 587.117 109.042C586.014 111.471 584.485 114.158 585.059 120.677C585.273 123.138 588.817 126.093 591.641 126.239C593.524 125.704 595.075 124.768 595.11 124.193C595.084 124.102 595.049 124.008 595.004 123.911ZM71.5941 71.9166C71.4815 71.7906 66.8912 72.7553 66.8343 72.9211C65.2588 76.9691 74.3972 75.0473 71.5941 71.9166ZM673.751 97.66C671.448 96.4087 666.834 98.7683 666.694 100.712C666.664 101.022 666.744 101.318 666.958 101.584C667.151 101.827 667.455 102.046 667.879 102.234C670.883 103.493 677.327 99.6618 673.751 97.66ZM302.889 141.402C303.042 141.505 306.011 139.96 305.486 139.172C303.748 136.662 300.18 139.722 302.889 141.402ZM701.453 104.774C683.644 112.936 667.162 106.407 686.946 98.2893C690.527 96.821 681.347 105.724 686.273 104.614C695.294 102.568 696.94 92.5607 707.064 92.374C708.921 92.347 702.499 104.337 701.43 104.806C701.438 104.795 701.445 104.785 701.453 104.774ZM454.115 87.2971C453.952 87.2064 449.645 88.9461 449.599 89.1269C448.731 93.3983 457.409 89.8954 454.115 87.2971ZM476.625 50.8065C477.014 50.9501 486.644 46.0732 486.771 45.6762C488.931 37.8853 469.525 47.6927 476.625 50.8065ZM463.689 117.977C463.622 118.784 463.54 119.541 463.669 119.996C463.744 120.204 463.864 120.377 464.235 120.102C464.334 120.02 464.451 119.901 464.585 119.73C464.737 119.524 464.924 119.227 465.118 118.809C465.344 118.262 465.6 117.713 465.766 116.344C465.838 115.636 465.857 114.837 465.694 113.808C465.51 112.657 465.06 111.332 464.311 110.137C462.775 107.362 459.238 105.795 457.946 105.631C456.476 105.341 455.988 105.413 455.63 105.396C455.008 105.401 455.137 105.369 455.278 105.312C455.631 105.197 456.401 105.052 457.175 105.021C458.757 104.949 460.624 105.278 462.448 106.249C460.839 106.771 459.271 107.299 457.797 107.753C457.082 107.972 456.363 108.175 455.95 108.255C455.766 108.296 455.597 108.287 456.024 108.234C456.245 108.224 456.661 108.144 457.724 108.36C458.68 108.481 461.115 109.667 462.174 111.497C462.733 112.368 463.081 113.336 463.236 114.185C463.378 114.963 463.379 115.542 463.344 116.074C463.301 116.632 463.236 116.925 463.169 117.222C463.1 117.51 463.025 117.747 462.953 117.947C462.838 118.265 462.733 118.487 462.649 118.652C462.578 118.791 462.526 118.882 462.486 118.951C462.344 119.188 462.408 119.098 462.521 118.997C462.761 118.764 463.205 118.367 463.689 117.977Z" fill="#F6FF4B"/>
</svg>
