<svg xmlns="http://www.w3.org/2000/svg" width="900" height="95" viewBox="0 0 900 95" fill="none">
  <path d="M14.6238 0.372276C23.1976 -0.59425 34.5893 0.464417 43.0865 1.90872C45.7158 2.35666 44.3748 4.34281 46.2386 4.74158C49.9351 5.51904 53.2891 4.54828 56.8325 5.47336C57.9989 5.78966 56.5397 8.93655 57.7676 9.19613C64.745 10.5963 70.9673 9.80199 78.0004 10.48C100.773 12.7228 123.274 14.0117 146.238 15.0633C157.206 15.5795 168.67 16.0389 179.955 16.5256C191.392 17.0103 205.247 19.8854 216.883 18.6508C218.26 18.5038 217.443 15.739 217.705 15.5116C221.832 12.0297 220.455 17.6074 223.163 18.3522C233.631 21.2927 245.492 21.5628 255.716 20.5099C260.093 20.0539 255.739 14.5585 260.102 17.6456C260.401 17.8542 259.308 20.7876 260.485 21.1022C263.15 21.8098 268.258 21.2921 270.359 21.5275C274.395 21.996 275.119 21.9675 278.908 22.0061C284.071 22.0845 290.271 23.5519 295.922 22.8948C297.121 22.7459 295.548 19.735 297.438 19.2257C299.325 18.7172 304.347 18.9794 306.049 19.691C307.749 20.403 307.022 22.7667 307.322 23.3091C309.785 27.8875 315.687 21.5597 316.417 21.4041C330.042 18.7537 341.782 22.3804 354.67 22.3895C364.361 22.3887 374.866 21.2132 384.101 21.3911C395.174 21.6148 404.505 23.2602 415.266 22.9976C416.4 22.9733 415.078 19.4337 416.461 19.397C431.152 19.0096 445.765 19.4201 460.4 21.8341C461.869 22.0793 459.97 25.1818 461.437 25.6125C470.414 28.1808 484.618 34.3384 489.975 20.8259C496.035 21.3653 503.452 21.925 508.883 24.6614C512.384 26.4226 508.975 29.7994 513.28 28.3641C514.25 28.0443 512.995 25.0787 514.449 24.8233C520.57 23.7505 527.33 24.7272 533.374 23.2086C534.605 22.8927 534.275 20.237 534.624 19.7596C537.537 15.8935 542.478 22.3044 543.537 22.7717C551.68 26.257 557.551 24.9047 565.175 25.006C566.934 25.031 564.863 21.4601 566.555 21.3561C575.269 20.864 584.458 21.1914 592.971 22.7938C594.866 23.1588 593.116 26.1926 594.02 26.5224C598.016 27.94 598.979 22.2045 602.838 23.4535C603.653 23.7094 603.187 26.309 603.336 26.5949C605.653 31.0841 607.679 24.7361 608.274 24.5973C615.724 22.6991 620.718 29.3437 627.951 28.4232C628.819 28.3064 626.873 25.0108 629.309 24.8836C645.783 24.0179 662.837 24.9693 679.178 27.6516C681.671 28.0641 679.883 30.5305 680.039 30.8357C682.584 35.6049 684.218 29.2305 685.081 28.9929C691.718 27.2844 697.537 32.6537 702.041 25.0704C711.273 25.984 720.532 26.1268 729.484 26.1717C747.654 26.2627 765.91 25.9714 784.001 30.6052C784.346 30.6861 783.709 33.8244 784.397 33.9721C792.471 35.7839 791.217 30.8936 796.64 24.9558C797.941 23.4644 802.232 30.7038 802.587 31.2349C803.939 33.192 802.491 37.8564 802.946 38.2368C806.719 41.2252 806.008 25.7609 811.258 25.795C811.418 25.822 810.723 28.6621 811.151 28.9482C812.481 29.8465 813.79 28.7259 815.041 29.7153C817.919 32.0047 819.122 39.5257 823.517 35.1923C824.057 34.6299 823.343 25.8536 827.896 26.3099C829.637 26.4975 837.575 26.4275 839.952 27.0244C842.18 27.6176 840.613 30.4255 840.773 30.5497C846.678 34.3565 844.518 35.8801 847.378 41.449C850.305 46.9999 849.703 33.8468 850.948 32.397C852.131 30.9498 856.626 34.1033 857.615 35.1935C858.731 36.2853 857.289 38.0559 858.28 38.6801C864.538 42.7607 861.252 32.2103 863.392 30.166C868.499 25.3384 872.219 35.1685 876.775 36.3545C877.99 36.6817 877.081 34.4031 878.288 34.2712C879.021 34.1871 879.855 34.226 880.635 34.355C881.094 34.4292 881.508 34.5172 882.084 34.6782C882.213 34.7156 882.427 34.7753 882.601 34.8328C882.691 34.8624 882.782 34.8936 882.874 34.9266C882.994 34.9681 883.118 35.0135 883.24 35.0617C883.639 35.2065 884.47 35.6409 884.565 35.7382C885.932 36.9296 887.167 38.111 889.717 38.0953C890.196 38.0907 890.771 38.0577 891.507 38.0385C891.815 38.0492 892.388 37.7646 893.673 37.8171C894.006 37.8415 894.4 37.8961 894.928 38.0744C895.493 38.3091 896.117 38.4601 897.361 39.6748C897.936 40.2964 898.79 41.2039 899.405 43.2609C900.049 45.181 899.671 48.2504 898.734 49.9103C896.853 53.2258 895.524 53.6091 894.803 54.2495C891.976 56.1124 891.268 56.3201 890.073 56.5539C888.997 56.6944 888.033 56.3715 887.176 55.3893C886.705 54.8159 887.532 52.2902 885.495 51.9544C885.128 51.8915 884.758 51.8311 884.323 51.7797C881.3 51.3912 877.119 51.268 874.516 52.1057C872.356 52.8066 875.039 56.6912 872.223 55.5736C870.958 55.0739 873.15 52.6332 870.789 51.8888C868.469 51.1431 862.58 51.4937 860.369 51.6693C858.156 51.8466 859.501 54.8281 859.33 55.0401C858.289 56.2569 854.07 57.9059 853.716 57.9184C834.728 59.1241 816.966 54.9442 798.552 57.7575C797.107 57.9741 798.269 61.1111 798.051 61.1771C793.127 62.8225 796.557 54.0833 792.912 51.4537C793.598 56.372 792.544 56.9328 790.432 57.3364C789.793 57.4611 789.055 57.5704 788.235 57.7922C786.57 58.2472 787.648 60.6997 787.51 60.9664C785.222 64.9409 783.202 60.1259 782.682 59.1477C780.792 55.548 779.233 60.0474 777.969 57.6425C776.685 55.2575 779.036 51.4423 775.683 51.7097C774.891 54.0927 777.792 59.9925 775.298 61.1442C765.919 65.4927 747.649 61.9731 739.871 62.0251C732.105 62.0743 729.645 62.6798 725.084 62.1607C716.847 61.2231 720.142 65.5096 715.244 67.9286C710.33 70.3492 711.997 59.1064 711.099 56.7794C710.214 54.4525 709.606 56.9566 708.625 55.7129C707.646 54.4694 709.447 52.7144 707.329 52.3729C705.21 52.032 699.81 56.6722 699.251 59.2129C698.067 64.5954 701.035 69.9416 695.377 68.3951C695.052 68.3026 695.872 65.3185 694.636 65.1119C684.824 63.5662 674.786 64.1508 665.006 62.8614C663.664 62.6793 664.614 59.3572 663.83 59.2146C655.632 57.7213 658.93 62.9712 654.937 69.3515C655.345 61.2115 652.577 56.4479 646.461 56.8352C642.802 57.0636 643.686 60.543 641.481 63.1958C640.818 63.9954 638.062 61.7579 637.715 63.4481C636.551 68.9753 639.398 74.8712 632.952 72.8968C632.67 72.8012 633.334 69.7741 632.375 69.6608C626.108 68.9177 625.771 74.637 619.158 75.7821C613.993 76.6792 604.438 73.8517 598.45 73.6744C598.133 67.3295 595.297 66.6118 593.073 68.9284C592.06 69.9324 591.157 71.5027 590.59 73.4336C586.733 73.4185 582.53 74.0291 578.763 73.3818C577.445 73.1631 578.146 70.484 577.965 70.2096C575.253 65.897 573.877 72.0861 573.072 72.3713C564.104 75.2023 556.625 70.9733 548.037 75.8516C547.848 75.9401 547.838 77.5627 547.285 78.6058C547.16 78.8655 547.112 79.0876 546.74 79.2433C546.693 79.2626 546.64 79.2809 546.552 79.2974C546.529 79.3016 546.504 79.3056 546.475 79.3094C546.46 79.3113 546.444 79.3132 546.427 79.315C546.418 79.3159 546.409 79.3168 546.4 79.3176C546.366 79.3183 546.316 79.3186 546.257 79.3183C546.128 79.316 545.998 79.3203 545.549 79.2867C545.296 79.2604 545.031 79.2597 544.151 79.0823C543.675 78.9622 543.093 78.8996 541.597 78.2052C540.826 77.8024 539.761 77.3162 538.218 75.6803C536.718 74.1738 534.782 70.4502 535.407 66.5872C535.966 62.8763 537.92 60.8227 538.995 59.8344C540.131 58.8283 540.92 58.4288 541.491 58.1328C542.608 57.5913 543.106 57.4804 543.495 57.3618C544.237 57.1618 544.484 57.1353 544.711 57.0937C545.122 57.0278 545.248 57.0176 545.371 57.0022C546.069 56.9274 545.827 56.941 545.912 56.922C545.941 56.909 545.969 56.8975 545.996 56.8873C546.107 56.8467 546.225 56.8282 546.378 56.8343C546.544 56.8533 546.762 56.9745 547.07 57.2298C547.314 57.4878 547.561 57.8836 547.909 58.4464C548.039 58.7598 545.309 61.7478 549.432 61.8032C553.579 61.8625 561.245 64.9995 566.837 61.9058C568.216 61.1593 571.531 55.9318 574.373 59.8623C574.762 60.3959 574.402 62.2186 574.971 63.2116C575.437 64.0108 575.839 64.1989 576.218 64.1202C577.255 63.8895 578.075 61.3238 579.722 65.3362C581.93 70.7045 586.15 74.6581 591.804 70.7743C591.978 70.6611 593.161 65.5687 594.968 65.6048C597.872 65.6661 601.945 66.6236 604.884 66.5217C606.302 66.4708 605.32 63.35 605.565 63.2867C615.119 61.3019 622.019 63.9492 632.323 64.9384C634.215 65.1258 639.52 60.7229 643.265 64.0314C647.398 67.6525 643.515 83.1691 652.705 79.2954C656.336 77.7472 660.659 58.0752 667.543 68.0751C680.451 65.2907 692.515 70.2341 705.414 66.382C705.99 66.2112 707.715 60.7115 709.09 60.758C711.13 60.8375 712.312 63.3676 713.775 63.5062C719.849 64.1524 725.397 61.8553 731.292 62.0767C733.544 62.1549 732.797 64.8108 735.456 64.905C738.107 64.997 739.833 61.4849 743.464 63.0917C746.197 64.3172 749.066 71.3678 752.706 72.1237C752.704 65.1126 755.168 65.2079 759.552 63.2699C760.395 62.894 759.435 60.4728 759.831 60.1692C761.447 58.8794 762.992 60.8711 764.509 59.4718C764.879 59.1357 764.849 56.7419 765.148 56.332C767.689 52.7554 772.141 58.0529 772.889 58.9759C775.791 62.4797 777.058 59.3405 779.268 60.6992C781.477 62.0577 778.25 63.8746 780.815 64.6748C786.11 66.33 792.887 65.8094 798.229 65.8141C800.365 65.801 798.845 62.6349 799.149 62.5589C803.566 61.6611 808.071 64.972 810.403 58.5597C813.796 74.9539 813.032 56.9113 819.408 60.081C819.911 60.3376 820.696 68.1065 818.81 69.2864C816.921 70.4653 813.995 68.0897 811.372 69.9228C810.751 70.3531 807.302 77.7155 806.822 78.1668C803.057 81.6943 802.285 70.077 802.067 69.4424C799.62 62.5956 795.388 70.5375 794.247 71.103C789.003 73.6946 784.493 72.1479 780.096 74.0109C777.221 75.2156 777.09 82.838 774.818 82.6498C767.243 82.0291 764.433 71.4552 757.472 80.8104C755.987 82.8057 757.664 91.1005 752.083 84.663C751.728 84.2573 747.535 78.35 745.276 82.1846C744.992 82.6681 745.05 85.0941 744.667 85.3056C742.116 86.6755 740.304 84.7782 737.494 85.7606C734.687 86.743 731.302 88.1915 728.043 87.4339C726.078 86.9812 723.518 82.5107 722.545 81.4232C719.826 78.2888 717.109 83.5729 715.407 79.7453C713.686 75.8986 716.791 69.9409 712.413 67.5217C712.38 73.8283 712.142 80.3056 712.012 86.6499C702.581 86.6193 693.164 84.7729 683.693 85.2474C682.513 85.3126 683.789 88.6763 682.529 88.8336C677.257 89.4814 672.523 87.1633 667.018 88.2413C662.769 89.0885 658.119 92.7763 653.719 93.7744C650.801 86.6206 644.247 89.2108 639.414 88.6567C637.737 88.4654 637.824 86.5362 636.588 85.9345C631.976 83.7101 634.259 90.0369 633.038 91.0672C627.864 95.4642 627.034 81.0489 620.768 81.5462C620.417 81.568 616.57 89.3489 616.023 89.8406C612.49 93.0455 615.358 87.1778 613.106 86.6609C609.075 85.7148 606.158 83.945 601.446 86.3106C600.052 87.0111 596.883 91.8827 594.067 88.2424C593.703 87.7656 593.835 85.2192 593.548 85.0773C588.323 82.7236 588.413 90.7133 585.511 93.4937C582.632 96.2728 577.9 90.8827 576.999 89.3178C576.965 89.2618 576.933 89.2069 576.901 89.1533C575.793 87.3844 576.136 86.9009 576.838 86.8511C577.589 86.7951 578.823 87.3205 578.888 87.1053C579.905 83.644 578.476 83.1256 576.733 82.9867C575.981 82.9329 575.178 82.9396 574.453 82.844C573.878 75.0237 570.34 75.5946 571.834 82.5286C572.048 83.2844 573.921 82.5007 574.453 82.844C572.545 90.5853 568.553 91.683 564.083 84.636C561.935 81.3363 563.775 77.3474 557.667 78.9839C554.996 79.7225 556.116 85.0806 553.808 86.6333C552.395 87.5232 551.021 87.8886 549.466 87.9637C549.068 87.9829 548.694 87.9827 548.339 87.9671C548.123 87.9609 547.974 87.9483 547.836 87.932C547.742 87.9251 547.68 87.9164 547.753 87.8991C547.777 87.896 547.727 87.8976 547.836 87.889C547.921 87.8818 547.995 87.8791 548.398 87.8406C548.653 87.809 548.798 87.8212 549.97 87.6231C550.29 87.564 550.695 87.4918 551.432 87.3038C552.233 87.0489 553.097 87.0053 556.031 85.4771C557.529 84.5192 559.963 83.5575 563.267 78.6271C564.864 76.1308 566.371 72.1461 566.269 67.8158C566.214 63.3112 564.514 59.3627 562.714 56.8249C559.008 51.8676 556.346 51.0383 554.769 50.1754C553.151 49.4422 552.205 49.1969 551.486 49.0002C550.086 48.6456 549.482 48.5874 548.988 48.517C548.507 48.4567 548.22 48.4337 547.981 48.4152C547.523 48.3816 547.294 48.3754 547.111 48.3692C546.932 48.3639 546.816 48.3624 546.722 48.3615C546.627 48.3608 546.659 48.3614 546.629 48.3613C546.556 48.3617 546.5 48.3626 546.454 48.3636C546.362 48.3655 546.306 48.368 546.262 48.3703C546.1 48.3797 546.105 48.3876 546.123 48.3942C546.684 48.4935 547.49 48.6258 548.323 48.776C551.447 49.3844 554.852 50.2814 557.655 49.7443C559.717 49.3523 557.556 46.5054 558.939 46.1365C562.655 45.1449 566.163 47.1746 569.871 45.8309C570.215 45.7049 569.193 42.6669 570.383 42.5607C577.558 41.8651 584.18 42.7133 591.409 42.7667C593.057 42.7816 594.794 42.7494 596.588 42.6432C601.101 42.3764 609.083 40.1333 613.816 40.1524C621.993 40.1717 632.348 43.951 639.242 42.3684C643.762 41.3477 642.525 38.3363 644.324 36.0972C647.807 31.7572 654.976 38.5759 655.951 39.6412C655.989 39.6761 652.112 40.6839 654.322 42.1167C655.782 45.327 655.906 39.6588 655.951 39.6412C656.584 40.3295 664.461 40.4681 665.972 39.7669C666.794 39.3841 666.111 36.497 666.544 36.3526C676.823 32.9862 687.239 31.4881 697.959 32.0904C698.15 32.136 698.104 35.4237 698.55 35.49C704.801 36.5011 708.454 32.2215 713.353 29.4861C718.261 26.7512 722.339 27.2598 725.74 32.6565C729.516 31.6788 735.183 33.7716 738.455 35.0547C741.707 36.3391 741.717 29.9465 741.986 29.8013C750.383 25.1716 755.661 28.4656 764.715 28.4237C769.046 28.4124 777.462 26.9285 782.084 25.9341C784.577 25.3876 786.485 25.8505 788.452 25.822C789.386 25.8069 790.34 25.6886 791.384 25.3233C791.834 25.1675 791.196 22.3624 791.329 22.2447C794.876 18.6221 793.498 25.6616 794.358 26.8506C797.495 31.1754 799.38 33.4651 804.069 31.0644C805.192 30.5117 807.811 20.3485 809.866 19.6465C812.499 18.7545 811.64 22.3907 814.413 21.3667C814.646 21.2827 814.484 19.078 816.198 19.0811C824.175 19.0652 832.981 19.9004 841.236 19.2897C842.38 19.214 840.753 15.7812 842.393 15.615C850.054 14.8386 858.503 14.6106 865.94 15.9379C867.777 16.2745 866.74 18.7755 867.165 19.4867C869.776 23.7893 872.867 17.2357 873.382 17.0877C876.393 16.2218 879.241 15.8358 881.263 15.6948C881.916 15.6495 882.48 15.6277 882.778 15.6475C882.921 15.6587 882.997 15.6792 882.883 15.7366C882.761 15.8004 882.498 15.87 881.499 16.176C880.951 16.3503 880.226 16.562 878.795 17.1417C877.95 17.4965 877.192 17.8055 875.568 18.6936C874.152 19.5401 872.007 20.6009 868.493 24.1391C865.362 27.0272 858.617 36.9975 860.09 48.6558C861.57 59.571 866.159 63.8402 868.043 66.1177C872.464 70.5574 873.787 70.7555 874.952 71.5172C876.988 72.5726 877.251 72.523 877.412 72.5496C877.51 72.5286 877.26 72.3726 876.704 72.1031C874.273 70.9192 870.514 69.066 867.424 67.2081C867.349 67.1624 867.711 67.3635 868.318 67.661C868.856 67.925 869.585 68.2566 870.334 68.552C871.54 69.0362 872.907 69.4368 873.464 69.5741C874.993 69.957 875.449 69.9938 875.898 70.0642C876.568 70.1491 876.559 70.1241 876.469 70.1154C876.246 70.0877 875.539 70.0577 874.862 70.0715C873.434 70.0932 871.584 70.2447 869.803 70.5814C869.112 70.7162 863.385 77.4412 860.969 71.507C860.738 71.1103 858.466 65.0385 856.108 69.1205C855.963 69.376 857.456 72.5034 854.775 72.1431C851.906 71.7808 847.599 73.7919 843.812 70.3363C842.482 69.246 839.948 63.203 836.177 67.955C836.05 68.2876 830.147 79.0631 828.406 71.571C828.083 70.3375 828.579 62.4295 824.133 66.4458C823.295 67.2248 824.734 69.0022 822.613 70.0855C819.401 71.7556 814.887 69.5998 810.848 73.0938C810.135 73.7123 806.967 79.0587 804.664 74.9667C804.292 74.3258 805.028 71.6897 803.757 71.3852C797.533 69.9238 791.151 71.6504 785.074 69.7874C782.889 69.1326 784.041 64.8693 781.733 63.7119C779.316 62.5542 774.9 61.4298 772.451 63.3682C770.018 65.3076 772.647 72.1264 768.981 72.6521C755.766 74.5932 742.691 71.959 729.31 70.7266C727.03 70.5084 724.716 70.3341 722.368 70.2373C720.048 70.1414 721.974 72.5837 718.528 72.6171C706.063 72.7515 684.069 74.9632 673.353 69.7574C664.537 65.5867 675.669 62.4648 668.912 60.7582C665.641 59.944 662.236 67.8459 661.441 68.0927C653.85 70.601 648.498 67.0815 641.713 68.1385C640.299 68.3578 641.677 71.5682 640.473 71.7194C636.365 72.2645 631.956 70.8216 628.103 71.0735C626.353 71.1938 626.669 73.6437 625.054 73.4506C621.189 73.0166 617.733 71.9784 613.924 69.6735C613.581 69.4634 615.897 66.4225 613.051 66.3022C608.458 66.1161 602.708 63.8376 597.309 66.1634C595.706 66.863 595.63 72.4603 592.259 68.5868C591.549 67.7778 592.477 61.0585 588.508 66.8569C587.845 67.8204 581.157 75.6383 577.863 70.5816C576.983 69.2507 574.814 63.7457 572.916 64.6059C572.659 64.7432 573.682 67.7521 572.11 68.0419C566.578 69.0108 560.683 68.6772 554.973 69.6067C553.453 69.8609 555.709 72.9769 553.444 73.2564C547.231 74.0295 539.322 73.2209 533.251 72.2347C531.002 71.8652 532.562 69.2911 532.399 69.0104C529.775 64.4431 528.201 70.5975 527.324 70.9547C521.874 73.0937 517.681 70.193 512.688 70.9486C511.304 71.1493 512.28 74.0872 512.004 74.3484C509.141 76.9008 511.28 71.6323 509.472 71.0476C504.413 69.3921 498.704 69.6172 493.597 69.9827C491.714 70.1213 493.824 73.5296 492.134 73.6146C482.127 74.1825 471.704 73.8377 461.935 71.9436C460.094 71.5807 461.257 68.9614 460.874 68.362C458.235 64.1684 454.349 69.8753 453.458 70.418C449.402 72.8961 447.831 70.5752 444.25 71.0017C426.753 73.1257 405.166 71.5549 388.653 70.5803C367.178 69.3257 350.426 66.8066 329.935 67.4242C328.627 67.4602 329.94 70.9494 328.813 71.0252C314.31 71.8447 300.11 70.4619 285.465 71.4489C284.274 71.5238 285.986 74.8321 284.075 75.0633C280.171 75.5608 275.206 75.3743 271.199 74.3133C269.256 73.802 271.866 70.9687 269.911 70.5121C265.334 69.4423 260.615 69.2005 255.863 69.7241C253.861 69.9542 256.875 73.3394 254.276 73.375C236.842 73.6871 219.359 74.2467 201.679 69.8458C200.454 69.5435 199.385 62.6702 196.804 63.9848C196.607 65.8917 196.615 68.1351 196.528 70.1734C179.624 70.8761 162.936 70.0657 146.171 69.3176C137.298 68.9311 128.644 68.5615 120.046 68.4254C118.934 68.4093 120.848 72.0527 118.701 72.04C106.691 71.9713 94.7432 72.9652 82.3961 69.3308C81.1714 68.9754 81.8423 62.5707 78.2367 63.535C77.5432 63.7109 72.0597 64.5584 70.7343 65.9473C70.5365 66.1568 71.5481 69.1479 69.7713 69.2328C59.5922 69.6742 48.7741 68.9783 38.5921 67.1389C36.9742 66.8364 38.697 63.6546 37.5516 63.4114C29.3231 61.7111 20.1704 64.1202 12.2413 61.2198C6.91154 59.2668 8.89067 53.7655 6.08442 48.3446C5.68632 47.5798 2.42831 47.4548 2.22995 44.3026C1.80024 36.3761 3.41255 27.699 2.78403 19.2499C2.64671 17.4297 -1.81135 19.3858 0.840727 14.9905C1.02776 14.6964 4.19854 13.2406 5.02103 11.7498C5.55306 10.7191 4.60885 7.51234 5.67925 6.19335C6.86547 4.87574 8.05138 7.56427 9.88437 6.0153C11.7607 4.4472 10.9601 0.799496 14.6238 0.372276ZM753.152 40.7923C756.285 43.6463 755.957 32.4265 752.968 35.3217C752.825 35.4749 752.991 40.6527 753.152 40.7923ZM693.065 76.3136C689.119 71.4466 686.682 78.7726 689.443 82.5372C692.211 86.2975 694.27 77.7889 693.065 76.3136ZM732.71 71.8966C728.132 68.0873 727.748 84.0031 732.497 80.6917C732.775 80.5044 732.975 72.1178 732.71 71.8966ZM19.2194 46.8179C19.1964 46.6689 16.743 46.5208 16.7215 46.6684C15.4315 50.229 20.2623 50.5227 19.2194 46.8179ZM772.029 67.1793C770.581 65.0561 766.604 67.6192 768.395 70.2595C769.836 72.3836 773.825 69.8205 772.029 67.1793ZM876.602 41.8279C876.59 41.7436 876.146 41.6399 875.709 41.6785C875.318 41.7192 874.89 41.8992 874.886 42.3719C874.863 45.4127 877.188 44.6737 876.602 41.8279ZM838.988 65.6752C829.087 65.2712 822.817 52.2539 833.632 53.5239C835.59 53.7537 829.504 57.7956 832.013 58.9309C836.603 60.999 839.451 52.6922 844.181 57.0204C845.037 57.8128 839.553 65.7275 838.971 65.6939C838.977 65.6877 838.982 65.6814 838.988 65.6752ZM755.759 54.1167C755.83 54.2604 758.193 54.2395 758.237 54.0891C759.269 50.4493 754.508 50.4895 755.759 54.1167ZM777.637 33.6365C777.534 33.3197 772.128 32.9952 771.925 33.2855C769.071 39.0931 780.014 39.7665 777.637 33.6365ZM598.342 73.4383C596.87 75.7476 595.157 76.867 593.545 76.361C592.497 76.0494 591.491 75.1094 590.602 73.4375C591.508 73.4654 592.428 73.4666 593.361 73.4581C594.984 73.4476 596.645 73.406 598.342 73.4383Z" fill="#F6FF4B"/>
</svg>
