<svg xmlns="http://www.w3.org/2000/svg" width="548" height="126" viewBox="0 0 548 126" fill="none">
  <path d="M33.4167 1.8003C41.6254 0.611267 52.4196 1.38718 60.6221 2.61801C63.1936 2.99911 61.9728 5.01778 63.7493 5.37038C66.8055 5.98207 69.6535 5.21725 72.7454 5.62557C73.111 5.67704 73.4813 5.74677 73.8571 5.83971C74.9834 6.12692 73.666 9.30901 74.8495 9.538C81.3877 10.7689 87.5941 9.81434 94.1667 10.3225C126.717 12.827 158.703 13.2251 191.613 13.8354C202.445 14.0345 215.738 16.5571 226.879 15.0212C228.171 14.8393 227.327 12.0963 227.568 11.8623C231.397 8.27561 230.245 13.8865 232.802 14.5621C242.939 17.2288 254.277 17.1868 263.907 15.8594C268.057 15.2849 263.758 9.91017 267.999 12.8771C268.29 13.0774 267.335 16.0395 268.462 16.3218C271.049 16.9556 275.936 16.2951 277.914 16.4714C278.292 16.5071 278.635 16.5389 278.95 16.567C281.995 16.8132 282.735 16.7708 286.033 16.705C290.996 16.6369 296.892 17.8991 302.474 17.1384C303.736 16.9724 302.028 13.9796 304.06 13.4512C304.288 13.3862 304.719 13.3335 305.109 13.2959C305.32 13.2773 305.496 13.2616 305.771 13.2517C306.079 13.2427 306.4 13.2389 306.761 13.2445C306.852 13.2459 306.945 13.248 307.041 13.2508C307.14 13.2538 307.224 13.2561 307.416 13.2663C307.758 13.2847 308.142 13.3099 308.658 13.3656C309.439 13.5626 308.761 12.9998 313.547 14.5306C314.791 15.0477 316.531 15.6377 319.319 17.9938C320.009 18.5976 320.757 19.3365 321.521 20.271C322.618 21.5741 324.288 24.1749 325.085 27.1255C327.004 33.3401 324.607 40.1796 322.426 43.014C320.209 46.1109 318.469 47.2157 317.265 48.0599C316.653 48.463 316.145 48.752 315.705 48.9865C315.486 49.1033 315.283 49.2058 315.095 49.2977C315.049 49.3198 314.995 49.3461 314.962 49.3619C314.947 49.3689 314.933 49.3758 314.918 49.3827C314.889 49.3965 314.861 49.4099 314.832 49.4232C314.38 49.6349 314.009 49.7894 313.686 49.917C312.42 50.4064 311.774 50.5633 311.231 50.7095C310.91 50.7915 310.637 50.8541 310.384 50.9088C310.131 50.9632 309.899 51.0091 309.676 51.0509C309.468 51.0891 309.348 51.1079 309.188 51.1335C306.844 51.4871 305.249 51.4692 304.388 51.2498C302.558 50.8154 302.959 48.3599 302.579 47.8702C299.511 43.7128 295.019 50.797 294.304 51.0666C284.631 54.6587 275.544 54.3489 266.275 55.1133C263.78 55.314 261.198 55.6096 258.632 56.0815C249.591 57.7508 240.108 60.799 231.473 62.349C221.15 64.1924 212.126 64.3785 202.19 66.741C201.141 66.9873 203.099 70.1914 201.823 70.4986C188.252 73.7629 174.624 76.3061 160.526 76.9748C159.113 77.0385 160.196 73.6184 158.745 73.5009C149.87 72.8433 135.285 69.8527 133.372 84.1698C127.619 84.9451 120.682 85.9966 115.026 84.5317C111.414 83.583 113.746 79.5529 110.098 81.9027C109.283 82.4275 111.123 85.0353 109.855 85.6029C108.466 86.2198 106.992 86.7205 105.552 87.1555C101.245 88.449 96.7174 89.3112 92.8654 91.4523C91.8221 92.0426 92.7799 94.5398 92.5824 95.0825C90.8231 99.5159 84.8645 94.443 83.7385 94.2587C75.4937 92.8363 70.4664 95.6171 63.849 97.5378C62.3455 97.9786 65.1816 100.835 63.7518 101.391C60.0802 102.796 55.187 104.6 54.1668 104.896C54.1639 104.89 54.1974 104.864 54.3154 104.785C54.4632 104.685 54.6039 104.602 55.1298 104.225C55.4048 104.021 55.6126 103.877 56.221 103.357C56.5008 103.114 56.8242 102.819 57.2014 102.433C57.3988 102.23 57.562 102.058 57.8344 101.746C58.1326 101.404 58.4575 101.005 58.8049 100.521C59.5115 99.4998 60.2432 98.4244 61.0396 96.1772C61.948 93.6496 62.3726 89.6938 61.2594 86.0462C60.2834 82.6849 58.3579 80.1495 56.7273 78.6166C56.3276 78.2351 55.8754 77.8538 55.5703 77.615C55.3108 77.4108 55.0595 77.2254 54.8172 77.0561C54.3325 76.7174 53.8843 76.4421 53.4729 76.2102C52.6495 75.7477 51.9733 75.4531 51.4074 75.2322C51.0062 75.0773 50.6741 74.9665 50.3738 74.8743C49.7958 74.6964 49.2759 74.581 49.0489 74.5374C48.5354 74.4364 48.1714 74.3973 48.0299 74.3886C47.6797 74.3646 47.6424 74.3894 47.6571 74.4109C47.8296 74.5125 48.7395 74.6356 49.5332 74.7538C51.2506 74.9933 53.1117 75.2647 54.9796 75.6021C56.7784 75.9342 55.1669 78.9982 56.0462 79.3118C59.865 80.6555 60.6485 74.8996 64.3398 76.0717C65.1009 76.3117 64.7233 78.9198 64.8669 79.2028C67.1878 83.6442 68.9793 77.2583 69.5566 77.1078C75.5013 75.41 79.827 79.6521 85.0948 80.5416C86.1384 80.7231 87.2465 80.7656 88.4489 80.5909C89.2889 80.4608 87.3727 77.1951 89.6942 77.0311C105.344 75.9214 121.844 76.6654 137.312 79.1325C139.719 79.5119 138.03 82.0018 138.184 82.3049C140.713 87.0397 142.219 80.6436 143.003 80.395C149.16 78.5995 154.997 83.8851 159.099 76.2391C185.282 78.5695 211.209 73.9802 237.197 80.1512C237.524 80.2218 237.02 83.3775 237.673 83.5048C240.002 83.9615 241.519 83.8677 242.582 83.3568C245.277 82.1147 245.419 78.4297 249.005 74.0894C250.221 72.5521 254.476 79.622 254.855 80.1361C256.228 82.036 255.043 86.7557 255.493 87.117C259.178 89.9455 258.031 74.5235 262.804 74.322C262.955 74.3415 262.446 77.2107 262.86 77.4765C264.13 78.312 265.342 77.1272 266.6 78.0501C269.488 80.1841 270.891 87.6418 274.951 83.0436C275.462 82.445 274.152 73.7451 278.398 73.907C280.106 73.9885 287.502 73.3212 289.614 73.6957C291.708 74.0859 290.55 77.0212 290.706 77.1308C296.648 80.3441 294.654 82.0762 298.103 87.2829C301.611 92.4397 299.326 79.4633 300.258 77.8758C301.203 76.2989 305.63 78.7972 306.807 79.6871C307.988 80.5877 306.999 82.5601 307.997 83.0174C308.863 83.4054 309.541 83.569 310.044 83.5619C313.436 83.4897 309.749 75.8428 311.056 73.7695C314.41 68.118 319.627 76.961 323.913 76.536C325.005 76.4209 323.447 74.625 324.206 74.1198C325.98 72.9212 327.787 72.9998 328.189 72.7083C327.803 73.3174 327.433 73.5804 326.904 74.7349C326.876 74.8428 326.846 74.945 326.812 75.0412C326.708 75.2959 325.934 76.2537 325.344 77.0008C324.732 77.7399 324.277 78.2717 324.202 77.4152C324.67 77.3489 324.711 76.9132 324.754 76.2983C324.703 75.6442 326.148 73.505 324.941 72.6323C322.952 71.2993 318.233 70.0209 315.335 70.3711C313.15 70.6245 314.911 74.9675 312.472 73.3085C311.398 72.5682 313.936 70.6152 311.889 69.4162C309.846 68.23 304.248 67.3192 302.086 66.9132C299.937 66.5278 300.437 69.7435 300.222 69.9068C298.924 70.8444 294.193 71.1405 293.77 70.984C291.446 70.3489 289.099 69.5494 286.568 68.2914C284.083 66.897 281.128 65.7014 278.038 60.8769C276.332 58.0795 274.863 52.6285 277.25 47.9406C279.481 43.6683 282.363 42.2341 284.55 41.0966C289.034 39.0435 292.603 38.558 296.26 37.9473C303.444 36.8899 310.231 36.3753 317.087 34.9759C318.504 34.6983 317.222 31.6133 317.435 31.5382C322.185 29.717 319.178 38.5639 322.766 41.0893C321.676 34.6661 323.842 35.6403 327.111 34.6687C328.716 34.1945 327.637 31.7552 327.765 31.4868C329.954 27.4874 331.975 32.2996 332.473 33.2774C334.306 36.8754 335.8 32.3847 337.028 34.7977C338.249 37.1932 336.004 40.9851 339.188 40.7504C339.958 38.3765 337.207 32.4467 339.61 31.3222C348.76 27.0423 366.244 31.1844 373.646 31.4422C381.063 31.6906 383.437 31.1849 387.749 31.8774C395.567 33.1224 392.574 28.7166 397.283 26.4705C401.978 24.2152 400.133 35.3928 400.921 37.7481C401.712 40.1009 402.356 37.6168 403.259 38.8886C404.16 40.16 402.407 41.862 404.411 42.2643C406.467 42.6688 411.674 38.1503 412.275 35.6118C413.453 30.2471 410.728 24.8678 415.972 26.486C416.283 26.5811 415.491 29.5581 416.674 29.7743C420.714 30.5004 424.966 30.7382 428.96 30.7765C434.223 30.7911 439.515 30.7014 444.744 31.2164C446.034 31.3493 445.278 34.7016 446.026 34.8163C453.861 36.0302 450.544 30.894 454.134 24.4032C454.005 32.562 456.876 37.183 462.508 36.776C464.144 36.6713 464.793 35.7752 465.234 34.5732C465.469 33.9727 465.713 33.2963 465.977 32.6224C466.157 32.2874 466.319 31.9516 466.54 31.6405C466.696 31.4949 466.787 31.3295 467.036 31.2498C467.121 31.2434 467.222 31.2431 467.351 31.3241C467.414 31.3651 467.483 31.4322 467.533 31.5272C467.588 31.6355 467.609 31.7734 467.598 31.8906C467.576 32.128 467.475 32.2818 467.418 32.3873C467.395 32.4596 467.369 32.5283 467.34 32.5955C466.607 33.9059 463.691 32.1081 463.658 33.8555C463.631 39.47 467.406 44.8283 460.747 43.9606C460.454 43.9121 460.611 40.8182 459.649 40.8622C456.14 41.0012 454.924 42.8666 453.246 44.876C452.069 46.3704 450.643 47.9369 448.021 48.82C443.262 50.4233 433.879 48.9555 428.275 49.69C426.339 40.7987 421.551 44.0633 420.949 50.6698C417.338 51.283 413.629 52.585 410.014 52.6516C408.777 52.676 408.858 49.9287 408.638 49.6929C405.181 45.9982 405.276 52.3092 404.587 52.752C397.288 57.2612 388.647 55.0782 384.174 62.33C384.023 62.6021 386.699 68.2843 383.285 64.9906C382.982 64.8182 383.029 61.3208 380.723 62.6183C380.305 62.8601 379.816 63.114 379.707 62.8695C379.639 62.7471 379.736 62.3543 379.651 61.6962C379.58 61.0077 379.159 60.3874 378.934 60.3105C378.787 60.2468 378.738 60.3408 378.805 60.4966C378.854 60.639 378.989 60.8303 379.203 61.0386C379.556 61.4091 380.218 61.8431 380.819 62.1147C382.184 62.7408 383.754 62.9821 385.322 62.6344C386.796 62.4015 390.905 58.2931 392.346 62.7946C392.526 63.4031 391.723 65.0677 391.94 66.1642C392.705 69.6724 395.085 63.6787 395.68 69.3814C396.359 75.1026 399.594 79.9704 405.706 77.2994C405.895 77.2237 408.119 72.4903 409.746 72.8617C412.407 73.4737 416.05 75.1563 418.849 75.5707C420.201 75.7694 419.833 72.5274 420.076 72.5081C429.347 72.1923 435.357 75.8726 444.922 78.3914C446.676 78.8595 452.342 75.2849 455.363 79.09C458.67 83.2548 452.821 98.0651 462.024 95.5314C465.744 94.5224 472.623 75.6559 477.679 86.5278C481.122 86.2698 484.503 86.602 487.704 87.1715C496.224 88.7531 504.332 91.6936 513.07 91.424C513.319 91.4222 514.235 90.2303 515.443 89.2431C516.021 88.7425 516.72 88.3057 517.477 88.1805C518.199 88.0925 519.234 88.1669 519.998 89.8266C520.63 91.1847 520.031 93.0577 519.49 93.5941C518.931 94.2751 518.462 94.4748 518.104 94.599C517.33 94.8541 516.785 94.7417 516.26 94.6328C515.234 94.3847 514.412 93.9719 513.722 94.1413C512.896 94.33 512.101 94.5446 511.321 94.7961C506.671 96.2919 502.727 99.1489 497.999 100.21C495.909 100.679 495.902 97.9393 493.428 98.4745C490.963 99.0009 490.202 102.809 486.446 102.023C483.588 101.415 479.46 95.0996 476.125 94.9553C477.423 101.819 475.199 102.263 471.309 104.641C470.513 105.077 471.67 107.421 471.247 107.756C471.034 107.925 470.77 108.048 470.467 108.118C470.186 108.119 469.934 108.185 469.132 107.926C468.909 107.843 468.687 107.751 468.367 107.537C468.026 107.306 467.64 106.952 467.338 106.445C467.02 105.924 466.85 105.247 466.852 104.71C466.847 104.246 466.932 103.854 467.036 103.546C467.224 103.008 467.402 102.766 467.544 102.558C467.664 102.391 467.775 102.263 467.876 102.154C468.031 101.986 468.19 101.848 468.28 101.773C468.692 101.438 468.935 101.321 469.167 101.212C469.637 101.001 470.028 100.923 470.405 100.831C471.163 100.648 471.802 100.455 472.247 99.6434C472.505 99.1959 471.674 96.9511 471.856 96.4554C473.116 92.7968 477.515 95.0712 479.316 96.2839C479.624 96.4952 479.865 96.6703 480.006 96.7733C483.636 99.4177 483.981 96.0861 486.383 96.8654C488.758 97.6554 486.244 100.18 488.81 100.345C494.108 100.692 500.218 98.6519 505.174 97.4766C507.147 96.9937 505.003 94.2494 505.267 94.1085C509.15 92.2619 514.094 94.5253 514.84 87.7878C520.624 100.857 518.022 90.006 521.348 87.7057C521.921 87.3143 522.651 87.1741 523.609 87.4471C524.147 87.5987 526.413 95.0636 524.939 96.5718C524.561 96.9479 524.113 97.1171 523.569 97.2064C521.954 97.4681 519.753 96.9188 518.244 98.6697C517.757 99.2173 516.245 107.109 515.917 107.649C513.285 111.873 509.906 100.74 509.557 100.168C505.717 94.0342 503.652 102.697 502.744 103.5C498.546 107.184 494.025 106.719 490.495 109.552C488.198 111.39 490.031 118.79 487.987 119.139C487.343 119.251 486.717 119.268 486.125 119.211C483.845 118.986 481.78 117.743 480.014 116.979C479.144 116.593 478.327 116.337 477.778 116.332C477.513 116.324 477.287 116.397 477.381 116.432C477.451 116.433 477.54 116.48 478.162 116.198C478.314 116.128 478.548 116.005 478.86 115.807C479.037 115.693 479.238 115.555 479.472 115.378C479.741 115.172 480.091 114.883 480.496 114.491C480.754 114.237 481.046 113.931 481.368 113.546C481.532 113.349 481.689 113.152 481.883 112.887C482.118 112.565 482.367 112.195 482.624 111.759C483.099 110.617 486.716 105.845 482.76 97.7465C478.425 91.056 474.704 91.3108 473.416 90.741C471.777 90.3872 471.083 90.394 470.361 90.3645C469.779 90.2333 469.755 90.084 469.733 89.8842C469.728 89.6865 469.807 89.4488 469.904 89.1735C470.103 88.6226 470.394 87.9207 470.694 87.0596C471.552 84.9009 468.6 77.0345 474.272 82.5456C474.587 82.9075 479.398 87.9712 480.569 83.7751C480.712 83.2482 480.119 80.8951 480.4 80.6158C482.296 78.7861 484.268 80.2723 486.473 78.7176C488.683 77.1596 491.197 75.0108 494.207 74.9694C496.006 74.9475 499.505 78.5975 500.649 79.3978C503.183 81.1946 504.261 78.1273 505.837 78.1472C506.274 78.1598 506.71 78.4446 507.255 79.1747C509.707 82.4108 509.233 88.9039 513.428 89.9672C511.028 84.1378 508.436 78.1931 505.18 72.7345C504.826 72.9316 504.278 73.2055 503.147 74.0138C502.53 74.4706 501.931 74.9061 500.804 76.0024C500.275 76.5251 499.693 77.1535 499.076 77.9359C498.346 78.8616 497.556 80.0162 496.816 81.4633C495.331 84.131 493.856 89.6442 494.658 94.4288C495.443 99.5308 497.394 102.538 498.976 104.627C500.517 106.563 501.545 107.397 502.547 108.198C503.335 108.805 503.965 109.203 504.499 109.515C506.337 110.536 506.692 110.51 506.911 110.564C507.102 110.581 507.005 110.49 506.825 110.382C506.029 109.923 504.158 109.236 502.356 108.641C498.65 107.429 494.408 106.331 490.099 105.853C489.02 105.74 489.645 109.252 488.466 109.217C487.168 109.174 486.028 108.958 484.788 108.642C481.417 107.762 478.181 106.188 474.219 106.4C470.121 106.64 465.243 109.642 460.868 109.998C459.189 102.514 452.565 104.139 448.033 102.88C446.451 102.443 446.809 100.546 445.742 99.7712C441.717 96.8918 442.905 103.48 441.58 104.315C435.879 107.866 437.392 93.5133 431.344 93.0165C431.025 92.9869 426.019 100.034 425.392 100.423C421.478 103 425.211 97.691 423.145 96.8069C419.36 95.1834 416.932 92.949 411.925 94.4012C410.475 94.8371 406.341 98.9957 404.354 94.8632C404.09 94.3215 404.739 91.8555 404.482 91.6572C399.863 88.2767 398.196 96.0735 394.645 98.1127C391.018 100.138 387.458 93.6498 386.821 91.8424C385.254 87.2162 389.232 90.6285 389.418 90.2454C392.079 85.9332 388.503 85.9674 386.017 84.8877C387.571 77.2106 384.047 76.7043 383.378 83.7623C383.313 84.54 385.559 84.4023 386.017 84.8877C381.81 91.7088 376.758 91.4371 373.88 82.5033C373.272 80.4191 373.908 78.6948 373.765 77.2799C373.661 76.5499 373.495 75.9721 372.576 75.2264C371.661 74.3925 370.466 74.0906 367.266 71.5038C366.484 70.8126 365.762 70.1522 365.09 69.531C362.507 66.8447 360.8 65.3749 359.099 63.2037C357.518 61.2284 355.915 56.9178 358.186 51.19C361.241 44.3218 364.163 42.4371 366.597 40.5938C369.151 38.8714 371.284 38.1079 373.398 37.4887C377.6 36.3 381.304 36.054 384.148 34.6186C386.191 33.5991 383.124 31.5407 384.518 30.743C388.205 28.6386 392.203 29.7355 395.656 27.5567C395.967 27.3564 394.276 24.6263 395.442 24.2511C404.313 21.3623 412.361 21.4307 421.372 19.3791C425.716 18.3868 433.092 14.989 437.562 14.3541C440.314 13.9519 443.337 13.9885 446.331 14.0926C449.123 14.1818 451.913 14.3229 454.392 14.2359C455.648 14.188 456.803 14.0884 457.778 13.9093C458.028 13.8626 458.243 13.8175 458.445 13.767C458.671 13.71 458.858 13.6544 459.002 13.6018C459.146 13.5494 459.289 13.4866 459.324 13.4473C459.368 13.4059 459.331 13.3769 459.067 13.4285C458.919 13.4618 458.629 13.5475 458.202 13.7132C457.867 13.8621 457.019 14.1059 454.998 15.4929C454.743 15.6728 454.468 15.8766 454.17 16.1131C454.02 16.2314 453.865 16.3582 453.704 16.4946C453.521 16.6518 453.46 16.6942 452.999 17.1234C451.559 18.5637 449.184 20.8102 447.542 26.0037C445.658 31.1057 447.355 39.4228 450.058 42.8871C452.759 46.8683 455.458 48.4743 457.234 49.4917C459.027 50.4716 460.439 50.8947 460.692 50.9902C461.196 51.159 461.617 51.2805 461.982 51.3786C462.711 51.5725 463.223 51.6769 463.631 51.7578C463.834 51.7977 464.01 51.8301 464.164 51.8582C464.302 51.8841 464.363 51.9003 464.45 51.9194C464.613 51.9559 464.747 51.9878 464.862 52.0175C465.091 52.0766 465.244 52.1275 465.356 52.1777C465.562 52.2767 465.592 52.3744 465.634 52.48C465.71 52.9 465.516 53.4218 465.411 53.9892C465.192 55.1239 465.112 56.4274 464.537 57.5214C462.214 61.759 455.254 55.1453 454.269 54.114C454.274 54.0737 457.75 52.9773 455.7 51.5961C454.247 48.4242 454.284 54.098 454.269 54.114C453.707 53.4315 446.274 53.5561 444.889 54.316C444.136 54.7279 444.915 57.5862 444.513 57.7464C440.619 59.2771 436.675 60.5088 432.637 61.424C425.819 62.851 419.459 63.1987 413.168 62.7502C412.975 62.7017 413.076 59.4151 412.627 59.3419C406.505 58.218 402.804 62.3796 397.976 64.9524C393.087 67.522 389.202 66.856 386.138 61.3333C382.48 62.1657 377.159 59.8522 374.098 58.4456C371.044 57.0387 370.841 63.4268 370.581 63.5616C362.505 67.8801 357.66 64.3998 349.243 64.2211C345.238 64.1208 337.438 65.4801 333.325 66.4807C330.015 67.28 328.01 65.9403 325.04 67.1653C324.649 67.329 325.313 70.1196 325.2 70.2396C322.262 73.9257 323.173 66.8717 322.375 65.7022C319.421 61.472 317.617 59.2281 313.675 61.8827C312.795 62.4859 311.499 72.7739 310.263 73.5873C308.495 74.6538 308.489 71.0084 306.826 72.2282C306.698 72.3293 307.155 74.4836 306.098 74.6227C305.043 74.766 304.071 74.8858 303.46 74.9186C303.173 74.9273 302.921 74.933 302.874 74.863C302.821 74.7925 302.924 74.6726 303.362 74.3499C303.973 73.5587 306.982 73.0355 311.576 65.0205C313.877 60.789 314.963 54.3955 314.167 49.6384C313.334 44.5203 312 42.4138 310.892 40.4981C308.863 37.2844 307.038 35.7055 305.914 34.7396C304.39 33.5473 308.353 32.0881 306.325 30.5666C304.29 29.1793 304.222 29.2793 304.554 29.3411C304.926 29.4563 305.841 29.7718 306.937 30.1473C309.16 30.9132 312.098 31.9524 315.021 33.3C316.472 33.9751 315.1 36.2265 315.309 37.0028C316.642 41.7105 320.865 35.9011 321.428 35.869C323.606 35.7127 325.753 35.7849 328.174 36.1126C329.427 36.2868 330.679 36.5068 332.33 36.8908C333.127 37.078 334.115 37.327 335.26 37.6673C336.586 38.0817 337.987 38.4433 341.074 39.8289C346.726 43.3374 353.699 44.4766 361.514 61.5396C365.602 72.5356 363.869 86.3558 354.718 96.4036C345.974 105.026 341.47 105.533 337.47 107.464C333.564 109.016 330.364 110.136 327.236 111.452C326.35 111.89 320.615 120.144 316.713 114.793C316.601 114.643 315.843 113.57 314.862 112.727C313.653 111.571 312.033 110.84 310.978 113.391C310.864 113.667 313.079 116.479 309.968 116.617C306.854 116.755 302.15 119.407 297.813 116.393C296.404 115.451 292.965 109.735 289.716 114.789C289.53 115.146 284.581 126.363 282.116 119.018C281.712 117.808 281.564 109.901 277.534 114.195C276.769 115.025 278.352 116.705 276.255 117.924C273.047 119.801 268.607 117.894 264.745 121.583C264.062 122.237 261.3 127.724 258.748 123.74C258.354 123.116 258.961 120.45 257.7 120.201C253.053 119.276 248.326 120.227 243.595 119.942C242.229 119.857 240.84 119.664 239.435 119.282C237.305 118.694 238.289 114.398 236.046 113.309C233.789 112.221 229.333 111.221 227.079 113.22C224.808 115.22 227.456 121.972 224.024 122.587C209.022 125.256 194.104 121.483 179.162 121.093C176.944 121.035 178.814 123.446 175.55 123.534C163.51 123.87 142.787 126.377 132.311 121.311C123.918 117.254 134.416 113.989 127.995 112.37C124.93 111.597 121.654 119.544 120.932 119.8C113.714 122.407 108.627 118.956 102.132 120.105C100.801 120.344 102.155 123.535 101 123.703C97.1111 124.304 92.9484 122.923 89.2703 123.233C87.5727 123.381 87.9162 125.826 86.3964 125.658C86.1707 125.634 85.9479 125.608 85.7276 125.58C82.2855 125.158 79.2431 124.165 75.861 122.068C75.5267 121.865 77.6747 118.782 74.9482 118.714C70.5311 118.612 65.0424 116.451 59.9584 118.883C58.4523 119.613 58.5252 125.213 55.0887 121.4C54.3183 120.601 55.2772 113.878 51.2112 119.722C50.9302 120.087 49.8318 121.453 47.8536 122.688C46.7119 123.283 45.9777 123.954 42.6743 124.109C42.2018 124.118 41.6789 124.111 41.073 124.077C40.3117 124.02 39.3945 123.921 38.2279 123.71C37.6126 123.598 36.5968 123.375 35.5269 123.069C34.3178 122.697 33.5505 122.543 30.8311 121.322C29.6093 120.755 28.2123 120.027 26.6144 118.988C25.8162 118.467 24.9684 117.868 24.0775 117.162C22.7663 116.118 21.3546 114.841 19.9235 113.243C17.0666 110.064 14.1333 105.488 12.5476 99.7476C10.8001 93.6325 11.1017 87.0331 12.3973 82.2237C12.7121 81.0063 13.0758 79.878 13.4643 78.8382C13.8173 77.8991 14.0791 77.2873 14.3993 76.5819C15.0206 75.2231 15.6639 74.0469 16.2912 73.0157C17.5502 70.9549 18.7333 69.4614 19.7681 68.2707C21.3573 66.4592 22.5088 65.4306 23.5193 64.5583C23.7674 64.3465 24.0094 64.1461 24.2262 63.9701C24.4008 63.8276 24.5685 63.6934 24.7297 63.5664C25.0523 63.3123 25.3493 63.0867 25.6254 62.8822C26.1638 62.4825 26.691 62.1189 27.0174 61.8968C28.4115 60.958 29.0579 60.5942 29.6158 60.279C32.1905 58.8636 34.0278 58.5928 35.7301 59.1894C37.676 59.7923 42.3517 63.875 44.1201 62.3452C44.3587 62.1159 42.2244 59.6757 43.8645 58.7935C49.6731 55.7642 55.4427 54.435 60.7856 51.9607C62.1967 51.3017 59.1391 48.9206 61.3047 48.0263C67.1902 45.5837 74.9394 44.3973 80.9545 43.8949C83.2002 43.7086 82.334 46.5824 82.5586 46.8152C86.1827 50.6113 86.1455 44.2795 86.9198 43.7187C89.4337 41.8869 91.9667 41.6163 94.5306 41.4285C96.5563 41.2954 98.7013 41.1953 100.719 40.3599C101.98 39.8513 100.375 37.2151 100.575 36.8984C102.704 33.7649 101.917 39.3698 103.741 39.5358C108.921 40.0027 114.14 38.5451 118.892 37.0659C120.63 36.5202 117.875 33.6607 119.448 33.2085C128.759 30.4664 138.595 28.587 148.195 28.3845C149.996 28.3541 149.478 31.1537 149.966 31.6588C153.35 35.2002 155.758 28.8214 156.481 28.106C159.769 24.8418 161.733 26.7866 165.011 25.6324C180.996 19.9544 201.681 17.1827 217.499 14.9863C232.368 12.9084 245.033 12.0405 258.364 10.2391C263.541 9.54212 268.792 8.71785 274.268 7.64779C275.539 7.40392 273.694 4.16945 274.786 3.91483C281.687 2.37329 288.857 1.43099 295.405 0.545591C296.255 0.428616 296.957 0.33321 297.738 0.219706C298.387 0.128382 299.163 0.00466728 299.219 -2.86102e-05C299.208 0.004776 299.148 0.014904 298.757 0.105461C298.168 0.345367 298.635 -0.221399 293.102 2.04609C292.913 2.13174 292.714 2.22403 292.503 2.32467C291.998 2.56474 291.143 2.99258 290.238 3.5158C288.392 4.65006 285.799 6.04763 281.91 10.3487C278.311 14.2443 272.068 24.3227 274.029 37.1367C274.913 43.2315 277.553 48.49 280.186 52.0013C280.971 53.0486 281.197 53.2981 281.586 53.7631C281.948 54.1883 282.308 54.59 282.663 54.9682C283.375 55.7255 284.068 56.3929 284.733 56.988C290.117 61.6052 293.287 62.5208 295.485 63.4218C297.675 64.2056 298.989 64.4857 300.013 64.706C300.52 64.8106 300.942 64.8857 301.308 64.9457C301.484 64.9744 301.621 64.9955 301.763 65.0166C302.042 65.0579 302.284 65.0901 302.5 65.1167C302.931 65.1697 303.258 65.2015 303.525 65.2249C304.046 65.2701 304.386 65.2853 304.474 65.2896C304.612 65.2959 304.701 65.2987 304.757 65.3003C304.951 65.3045 304.745 65.2989 304.496 65.3008C304.22 65.3021 303.964 65.3062 303.593 65.3138C300.732 65.3788 297.217 65.5862 293.812 65.9339C292.69 66.0426 294.426 69.3 292.593 69.5867C288.96 70.1861 284.324 70.1576 280.447 69.2598C280.382 69.2438 280.318 69.2275 280.253 69.2109C278.433 68.7537 280.782 65.8492 278.941 65.4471C274.473 64.5092 269.963 64.3975 265.434 65.0502C263.578 65.3331 266.485 68.6371 264.055 68.7416C247.272 69.5286 230.808 70.5338 213.742 66.5872C212.575 66.316 211.386 59.4721 208.934 60.8523C208.795 62.7636 208.862 65.006 208.831 67.0458C184.471 68.7599 160.22 66.9776 135.758 67.2115C134.72 67.2223 136.602 70.8182 134.594 70.8576C123.007 71.089 111.871 72.3713 99.906 69.0447C98.7217 68.7198 99.1746 62.3012 95.7519 63.3542C95.098 63.5471 90.0088 64.5266 88.6324 65.9513C88.4543 66.1655 89.4806 69.131 87.7984 69.2595C83.4402 69.5732 78.7738 69.6592 74.3198 69.504C68.8411 69.3217 63.3834 68.8008 58.0593 67.9375C56.5097 67.6754 58.0685 64.4516 56.9707 64.2372C48.9425 62.7464 40.4509 65.38 32.7823 62.6875C27.6896 60.8738 29.3965 55.3235 26.5724 49.9802C26.1665 49.2259 23.0708 49.1924 22.8124 46.0483C22.1457 38.1387 23.4379 29.4171 22.5352 20.9919C22.4201 20.0854 21.3605 20.1504 20.4379 19.8975C20.3068 19.8666 20.2202 19.829 20.07 19.7869C19.9419 19.7439 19.8131 19.6937 19.6413 19.6367C19.5633 19.6079 19.4793 19.577 19.3415 19.5473C19.1945 19.5187 19.1423 19.4802 18.8692 19.4582C18.738 19.4471 18.5917 19.4375 18.4278 19.4308C18.346 19.4274 18.2598 19.4248 18.1696 19.423C18.122 19.4224 18.0868 19.4204 18.0239 19.4219C17.9272 19.4276 17.8236 19.4348 17.712 19.444C17.2665 19.4812 16.687 19.5469 15.9238 19.695C15.7334 19.7322 15.5322 19.7746 15.3209 19.8233C15.2681 19.8354 15.2147 19.848 15.1606 19.8609C15.0919 19.8782 15.1097 19.8704 14.8746 19.9358C14.5109 20.0372 14.1002 20.1624 13.6274 20.3287C11.8408 21.0482 8.47013 22.0884 4.55392 26.829C3.62431 28.0047 2.74445 29.4024 2.04542 30.9326C1.69542 31.6966 1.39016 32.4908 1.13809 33.2937C1.00909 33.707 0.908632 34.0593 0.790756 34.5371C0.604431 35.2996 0.464342 36.0676 0.369667 36.8239C-0.341465 43.0989 1.67323 47.1324 2.73896 49.1499C5.13794 53.1319 5.71165 53.1324 5.94526 53.5258C6.15287 53.7584 6.0605 53.6862 6.06524 53.7139C6.03396 53.7017 6.11229 53.8181 5.5656 53.2673C5.28043 52.9644 4.81089 52.5086 3.92443 51.3188C3.10065 50.089 1.50827 48.1778 0.425386 43.4552C-0.0717926 41.1251 -0.238182 37.992 0.498569 34.7802C0.976107 32.7246 1.55484 31.2751 2.38314 29.684C4.01867 26.5836 6.25177 24.3516 8.0811 22.9648C11.7573 20.2459 14.2455 19.7696 15.0657 19.474C15.5227 19.331 15.9393 19.2159 16.308 19.121C17.0378 18.9328 17.6236 18.8147 17.9809 18.7314C18.185 18.6669 18.3741 18.6063 18.5438 18.5485C18.7039 18.4914 18.8983 18.4329 18.9712 18.3835C19.053 18.3333 19.1327 18.2825 19.2102 18.2309C19.7749 17.824 20.0159 17.3667 20.4028 16.8014C20.6876 16.4924 23.7711 14.9413 24.483 13.4303C24.9871 12.3846 23.9197 9.20728 25.0015 7.85663C26.0188 6.50916 27.2855 9.16304 29.0433 7.56494C30.736 5.9496 29.8893 2.32339 33.4167 1.8003ZM360.349 52.1859C357.454 49.2335 357.495 60.4568 360.376 57.6591C360.515 57.5107 360.497 52.3305 360.349 52.1859ZM500.06 98.5433C497.366 93.0813 493.85 99.9216 495.731 104.073C497.535 108.215 500.851 100.199 500.06 98.5433ZM494.185 91.0596C499.308 93.643 495.387 78.2148 492.115 82.5106C491.925 82.754 493.892 90.9077 494.185 91.0596ZM39.0112 48.1122C38.9771 47.964 36.7097 47.8767 36.6581 48.0258C35.5474 51.6175 40.0688 51.7899 39.0112 48.1122ZM481.402 104.897C479.515 103.201 476.724 106.721 479.07 108.772C480.894 110.429 483.704 107.003 481.402 104.897ZM325.822 81.6686C325.731 81.5307 324.102 81.9087 324.41 82.7959C325.43 85.6796 327.513 84.0606 325.822 81.6686ZM542.736 90.1745C533.894 90.5608 525.177 79.0312 536.303 78.6213C538.266 78.5964 532.773 83.4025 535.406 84.1921C539.997 85.6556 542.173 77.1653 547.05 81.2017C547.895 81.9386 543.201 90.1701 542.721 90.1944C542.726 90.1878 542.731 90.1812 542.736 90.1745ZM358.224 38.7862C358.161 38.6399 355.917 38.5889 355.87 38.7384C354.806 42.3448 359.316 42.4495 358.224 38.7862ZM231.29 83.3606C231.147 83.0488 225.964 82.8668 225.79 83.1607C223.196 89.0417 233.739 89.4262 231.29 83.3606ZM428.133 49.4738C426.576 53.5141 423.896 54.5865 420.961 50.6716C423.353 50.3357 425.718 49.8105 428.133 49.4738Z" fill="#F6FF4B"/>
</svg>
