<svg xmlns="http://www.w3.org/2000/svg" width="416" height="76" viewBox="0 0 416 76" fill="none">
  <path d="M3.68605 0.371849C5.98264 -0.592358 8.97173 0.461494 11.2884 1.90164C12.0328 2.34834 11.6695 4.33517 12.1475 4.73289C13.08 5.50821 14.0723 4.53568 14.9916 5.45846C15.3109 5.77403 14.9046 8.92182 15.241 9.18063C17.1188 10.5764 18.8636 9.77781 20.7029 10.4505C29.9132 13.7694 39.0456 14.9623 48.3304 16.4068C51.4903 16.8805 55.2157 19.7417 58.3404 18.4949C58.7095 18.3466 58.4921 15.5826 58.5626 15.3549C59.672 11.8687 59.2993 17.4478 60.0282 18.1898C62.8026 20.8958 65.5248 21.3218 68.2646 20.5324C68.474 20.4672 68.682 20.3937 68.8881 20.3124C70.0404 19.8515 68.8872 14.361 70.0501 17.4432C70.1311 17.6514 69.834 20.5861 70.1523 20.8994C70.8721 21.604 72.2629 21.0806 72.8386 21.3136C73.9412 21.7775 74.1502 21.7481 75.1808 21.7824C76.5576 21.8547 78.224 23.3149 79.7585 22.6511C80.0861 22.5007 79.6545 19.4917 80.1778 18.9801C80.6954 18.4694 82.1169 18.7256 82.5433 19.4351C82.9944 20.145 82.8005 22.5096 82.88 23.0517C83.5327 27.6271 85.1072 21.292 85.3122 21.1354C89.0817 18.4682 92.1662 22.0799 95.7047 22.0721C98.4005 22.0584 101.12 20.8686 103.691 21.0337C106.741 21.242 109.172 22.8739 112.139 22.5955C112.451 22.5696 112.088 19.0319 112.469 18.9931C116.439 18.584 120.432 18.972 124.379 21.3625C124.773 21.6053 124.263 24.7109 124.656 25.1392C127.053 27.6931 130.976 33.8269 132.412 20.3052C134.038 20.8342 136.032 21.3809 137.513 24.1076C138.468 25.8625 137.537 29.2454 138.714 27.8024C138.98 27.4809 138.636 24.5176 139.035 24.2595C140.733 23.1757 142.521 24.1399 144.16 22.6098C144.493 22.2917 144.404 19.6365 144.499 19.1585C145.294 15.2869 146.619 21.6883 146.91 22.1536C149.114 25.6231 150.776 24.2591 152.788 24.3449C153.261 24.3663 152.704 20.7997 153.159 20.6922C155.519 20.1823 157.99 20.4902 160.346 22.0739C160.871 22.4348 160.387 25.4724 160.637 25.8002C161.726 27.209 161.96 21.4713 162.999 22.7116C163.218 22.9657 163.093 25.5663 163.133 25.8519C163.756 30.3358 164.305 23.9832 164.466 23.843C166.51 21.9277 167.821 28.5604 169.82 27.6224C170.059 27.5035 169.521 24.2126 170.194 24.0795C174.599 23.1734 179.332 24.0798 183.703 26.7139C184.381 27.1191 183.895 29.5908 183.938 29.8955C184.631 34.6572 185.086 28.2778 185.307 28.0377C187.058 26.3091 188.7 31.66 189.904 24.062C197.338 26.7027 204.744 22.4393 212.12 29.2501C212.214 29.329 212.044 32.4709 212.232 32.6147C214.493 34.38 214.082 29.4966 215.559 23.5252C215.932 22.0257 217.064 29.2366 217.165 29.7652C217.53 31.713 217.148 36.3872 217.27 36.7645C218.285 39.7268 218.126 24.2684 219.499 24.264C219.542 24.2898 219.36 27.135 219.476 27.418C219.833 28.3063 220.19 27.1759 220.54 28.1555C221.344 30.4222 221.626 37.9338 222.86 33.5627C223.017 32.9955 222.782 24.2267 224.017 24.6415C224.507 24.8143 226.699 24.665 227.291 25.2335C227.894 25.8014 227.478 28.6269 227.521 28.7493C229.145 32.4865 228.528 34.0348 229.342 39.567C230.155 45.0784 229.935 31.9341 230.269 30.4672C230.603 29.0044 231.799 32.0878 232.094 33.1596C232.388 34.2319 232.02 36.0273 232.281 36.6341C234.018 40.599 233.048 30.1102 233.622 28.0243C234.976 23.0852 236.028 32.8334 237.271 33.7892C237.608 34.0473 237.334 31.827 237.634 31.6195C238.814 30.8272 239.51 33.8691 240.848 31.0808C241.066 30.6265 242.15 24.7663 242.848 29.0676C242.947 29.6878 242.664 32.1168 243.166 32.6612C243.915 33.4781 245.268 34.0097 246.077 33.1981C246.675 32.5976 245.992 28.5947 246.744 29.8384C247.078 30.3938 246.457 32.7351 247.085 33.5831C247.709 34.4308 249.312 34.3287 249.92 34.2481C250.52 34.1658 250.193 31.1294 250.242 30.9249C250.536 29.7533 251.69 28.2898 251.792 28.2935C256.932 27.9252 261.761 33.0451 266.76 31.3534C267.155 31.2251 266.893 28.0233 266.953 27.9707C268.306 26.6298 267.236 35.1419 268.18 37.9916C268.046 31.4944 268.603 32.6711 269.558 31.9589C270.018 31.6105 269.769 29.0946 269.811 28.8371C270.495 25.0163 270.969 29.952 271.091 30.9617C271.542 34.6759 272.036 30.2878 272.344 32.7704C272.651 35.2345 271.94 38.8869 272.858 38.8406C273.117 36.5149 272.438 30.4367 273.136 29.452C275.758 25.7271 280.618 30.498 282.735 30.9943C284.84 31.4901 285.528 31.0613 286.752 31.9024C288.952 33.4231 288.147 28.9134 289.517 26.8499C290.891 24.7867 290.219 35.8816 290.415 38.2669C290.608 40.6511 290.821 38.197 291.062 39.5077C291.302 40.8181 290.78 42.4396 291.346 42.9319C291.911 43.4237 293.464 39.1829 293.666 36.689C294.094 31.4055 293.396 25.8598 294.898 27.809C294.985 27.9246 294.703 30.842 295.034 31.137C297.667 33.3841 300.392 33.5245 303.003 35.512C303.363 35.7899 303.04 39.0353 303.249 39.2337C305.43 41.3106 304.652 35.8378 305.852 29.7592C305.58 37.8491 306.239 42.799 307.9 42.8475C308.899 42.8795 308.729 39.346 309.376 36.856C309.57 36.1054 310.277 38.5318 310.406 36.8702C310.831 31.4386 310.17 25.3577 311.88 27.7797C311.955 27.8947 311.716 30.8679 311.974 31.0481C313.642 32.2275 313.844 26.5459 315.651 25.8587C317.068 25.3194 319.591 28.785 321.21 29.3492C321.172 38.4448 322.703 36.3626 323.328 30.0917C324.384 30.3488 325.507 29.9948 326.519 30.862C326.867 31.1577 326.637 33.791 326.681 34.0756C327.352 38.5395 327.81 32.4385 328.036 32.1994C330.486 29.8752 332.484 34.5003 334.833 29.9821C334.916 29.8194 335.054 23.5013 335.679 28.1148C335.72 28.4328 334.943 31.3071 336.048 31.5298C337.159 31.7531 339.22 35.1409 340.75 32.2139C341.119 31.5092 342.056 26.3806 342.806 30.3883C342.906 30.9325 342.795 32.7445 342.939 33.7529C343.405 36.966 343.662 30.5801 344.209 36.0056C344.756 41.4308 345.897 45.4943 347.444 41.7519C347.493 41.6431 347.861 36.5817 348.347 36.662C349.122 36.7944 350.227 37.8493 351.031 37.8166C351.417 37.7992 351.171 34.6561 351.238 34.5987C353.835 32.8385 355.685 35.6412 358.474 36.8585C358.986 37.0878 360.458 32.8025 361.448 36.1914C362.534 39.9011 361.414 55.3307 363.912 51.6556C364.917 50.1857 366.198 30.6104 368.003 40.7534C371.509 38.2417 374.771 43.4338 378.284 39.8468C378.443 39.6878 378.945 34.2246 379.316 34.2991C379.868 34.4203 380.17 36.9739 380.564 37.1423C382.216 37.9122 383.73 35.7281 385.325 36.0686C385.93 36.1923 385.717 38.8325 386.44 38.9804C387.162 39.1258 387.645 35.6492 388.623 37.3288C389.363 38.609 390.097 45.7158 391.075 46.5445C391.115 39.5348 391.787 39.6795 392.983 37.8295C393.213 37.4706 392.967 35.0307 393.076 34.7351C393.519 33.4778 393.928 35.5 394.348 34.1314C394.451 33.8027 394.457 31.4088 394.54 31.005C395.252 27.4798 396.421 32.8651 396.622 33.8028C397.391 37.3638 397.753 34.2504 398.344 35.6528C398.934 37.0551 398.05 38.8073 398.739 39.6584C400.168 41.4188 402.01 41.0329 403.459 41.1435C404.038 41.1729 403.644 37.9772 403.727 37.9072C404.924 37.0973 406.133 40.4968 406.799 34.132C407.622 50.5902 407.521 32.536 409.232 35.8313C409.366 36.0978 409.535 43.8807 409.016 45.0231C408.498 46.1644 407.715 43.7312 406.996 45.512C406.826 45.9299 405.849 53.2225 405.716 53.6642C404.674 57.1164 404.531 45.486 404.477 44.8472C403.855 37.9533 402.664 45.8096 402.348 46.3524C400.911 48.8394 399.692 47.2032 398.491 48.9783C397.705 50.1256 397.625 57.7439 397.009 57.5104C394.961 56.7388 394.251 46.1109 392.319 55.3249C391.904 57.2901 392.312 65.6169 390.833 59.0688C390.74 58.656 389.645 52.6659 389.005 56.4542C388.925 56.9319 388.927 59.3586 388.821 59.5624C388.113 60.8807 387.642 58.9473 386.872 59.8728C386.101 60.7984 385.175 62.1784 384.297 61.3549C383.768 60.8625 383.09 56.341 382.837 55.234C382.123 52.045 381.355 57.2728 380.913 53.4113C380.468 49.5304 381.344 43.6372 380.174 41.1293C380.128 47.4339 380.025 53.9049 379.953 60.2453C377.39 60.0223 374.862 57.9826 372.281 58.26C371.961 58.3007 372.287 61.6903 371.944 61.8213C370.498 62.3591 369.236 59.9424 367.739 60.904C366.579 61.6613 365.308 65.2494 364.097 66.153C363.365 58.9384 361.556 61.3867 360.247 60.7269C359.789 60.4989 359.82 58.5721 359.494 57.9434C358.265 55.6181 358.839 61.9935 358.501 62.9967C357.053 67.278 356.936 52.848 355.232 53.2038C355.142 53.2178 354.037 60.9091 353.885 61.388C352.919 64.511 353.726 58.7107 353.123 58.1422C352.022 57.1031 351.259 55.2659 349.965 57.5183C349.586 58.1854 348.676 62.9793 347.943 59.2707C347.846 58.785 347.901 56.2427 347.823 56.0937C346.416 53.6113 346.376 61.5998 345.571 64.305C344.766 67.0097 343.528 61.4945 343.276 59.905C342.618 55.7931 343.783 58.148 343.819 57.7446C344.241 52.943 343.336 53.7693 342.645 53.3633C342.548 45.5303 341.582 46.0001 341.929 52.9739C341.969 53.7356 342.507 53.0054 342.645 53.3633C342.036 61.0482 340.974 62.032 339.806 54.8498C339.26 51.4837 339.779 47.5593 338.115 48.9943C337.359 49.6421 337.651 55.0356 336.981 56.5057C335.447 59.86 333.461 54.8281 331.886 55.6201C331.314 55.9077 331.87 58.8602 331.479 59.1584C330.442 59.9592 329.53 57.7436 328.491 58.8779C328.397 58.9845 328.625 62.075 328.302 62.1142C325.854 62.4721 323.726 60.4918 321.154 60.4358C319.914 60.4102 317.699 62.1137 316.42 61.7704C314.198 61.1938 311.489 56.6987 309.574 57.7896C308.333 58.4878 308.604 61.579 308.071 63.6849C307.043 67.7669 305.234 60.4535 304.991 59.3211C304.983 59.2836 306.049 58.5554 305.481 56.9684C305.152 53.662 305.003 59.3068 304.991 59.3211C304.831 58.5895 302.706 57.8869 302.284 58.4776C302.055 58.8005 302.182 61.7291 302.063 61.8421C299.235 64.4617 296.362 65.2048 293.476 63.8342C293.425 63.7751 293.503 60.4992 293.384 60.401C291.713 58.9437 290.643 62.9506 289.269 65.3293C287.893 67.7069 286.813 66.9099 285.995 61.2858C284.949 61.9934 283.453 59.5066 282.594 57.9976C281.735 56.4887 281.612 62.8653 281.537 62.9913C279.178 67.0251 277.82 63.3746 275.388 62.8055C274.243 62.524 271.914 63.4479 270.655 64.1447C269.658 64.706 269.059 63.2113 268.143 64.1665C268.019 64.294 268.143 67.1333 268.105 67.2426C267.081 70.6391 267.576 63.6984 267.365 62.4587C266.603 57.9504 266.131 55.5492 264.826 57.6693C264.524 58.1549 263.644 68.1485 263.096 68.7327C262.384 69.4739 262.655 65.8918 261.91 66.7592C261.846 66.8301 261.858 69.0401 261.393 68.9425C259.233 68.5183 256.886 67.2313 254.659 67.4517C254.355 67.4734 254.743 70.9789 254.303 71.0679C252.236 71.4825 250.009 71.3518 247.97 69.7101C247.473 69.295 247.786 66.8407 247.678 66.1119C247.017 61.7022 246.075 68.1086 245.92 68.2306C242.213 71.3077 239.459 65.5084 235.665 68.2671C235.459 68.429 233.876 75.2965 233.176 69.4058C233.128 69.0138 232.435 62.987 231.819 67.1072C231.781 67.3649 232.212 70.4677 231.457 70.1511C230.703 69.8352 229.489 71.9065 228.458 68.4972C228.132 67.4232 227.362 61.4112 226.387 66.2028C226.327 66.5374 224.793 77.3723 224.254 69.896C224.167 68.6653 224.262 60.754 223.085 64.8097C222.86 65.596 223.267 67.3608 222.675 68.4625C221.768 70.1603 220.572 68.0408 219.463 71.5646C219.269 72.1884 218.445 77.5578 217.789 73.4818C217.686 72.8434 217.883 70.2023 217.536 69.9066C215.888 68.4879 214.159 70.2538 212.457 68.4256C211.858 67.7832 212.166 63.5135 211.542 62.3689C210.918 61.2248 209.663 60.1239 209.011 62.0748C208.36 64.0265 209.067 70.832 208.093 71.3761C203.893 73.7391 199.632 69.7449 195.424 69.1589C194.8 69.0714 195.316 71.5067 194.396 71.5525C191.014 71.732 185.052 74.0122 182.147 68.8365C179.773 64.691 182.778 61.5374 180.95 59.85C180.066 59.045 179.11 66.9562 178.897 67.2052C176.823 69.7342 175.392 66.2288 173.547 67.3031C173.166 67.5261 173.538 70.7329 173.214 70.8872C172.106 71.4428 170.956 70.0109 169.87 70.2721C169.387 70.3967 169.475 72.8459 169.032 72.6566C167.972 72.232 167.039 71.202 166.014 68.906C165.921 68.6968 166.553 65.6504 165.775 65.5367C164.515 65.3613 162.961 63.096 161.527 65.4338C161.099 66.137 161.093 71.7345 160.155 67.8683C159.959 67.0609 160.212 60.3397 159.122 66.1466C158.938 67.1116 157.112 74.9439 156.227 69.8941C155.994 68.5651 155.399 63.0647 154.883 63.9288C154.813 64.0666 155.091 67.0734 154.664 67.3664C153.15 68.3469 151.615 68.0252 150.042 68.9661C149.622 69.2233 150.245 72.3348 149.62 72.6188C147.902 73.4043 145.776 72.6109 144.126 71.6362C143.518 71.2709 143.94 68.6939 143.896 68.4134C143.187 63.8511 142.764 70.0084 142.529 70.3673C141.081 72.5163 139.921 69.6233 138.551 70.3879C138.172 70.5911 138.439 73.5272 138.363 73.789C137.581 76.3464 138.165 71.0742 137.672 70.4927C136.289 68.8462 134.758 69.0813 133.38 69.4557C132.874 69.5975 133.441 73.0022 132.987 73.0901C130.305 73.6752 127.397 73.3477 124.785 71.4694C124.29 71.1095 124.603 68.4883 124.5 67.8895C123.792 63.7002 122.754 69.4133 122.516 69.9574C121.396 72.4419 120.965 70.1235 119.985 70.5555C115.254 72.707 109.336 71.1679 104.935 70.2165C99.0353 68.9919 94.505 66.495 89.0088 67.1387C88.6472 67.1763 89.0091 70.6638 88.6977 70.741C84.6874 71.5788 80.8783 70.2133 76.9157 71.2175C76.5958 71.2937 77.0539 74.6 76.541 74.8335C75.5024 75.3356 74.1474 75.1548 73.0456 74.0983C72.5137 73.5893 73.2296 70.753 72.6947 70.2986C71.4504 69.234 70.1381 68.9975 68.9028 69.5265C68.3776 69.7588 69.1664 73.1406 68.4847 73.179C68.3965 73.1854 68.3083 73.1918 68.2203 73.1982C63.437 73.5306 58.9388 74.0051 54.1874 69.7054C53.8545 69.4044 53.568 62.5322 52.8681 63.8494C52.8136 65.7564 52.8143 67.9998 52.7893 70.0382C45.8478 71.1294 38.9844 68.7395 32.0552 68.3617C31.7515 68.3465 32.2706 71.9883 31.684 71.9775C28.3879 71.9191 25.1728 72.9229 21.8527 69.298C21.5153 68.9435 21.6883 62.5382 20.686 63.5052C20.4944 63.6816 19.0644 64.5332 18.663 65.9229C18.6088 66.1326 18.8828 69.123 18.3878 69.2091C15.6532 69.6578 12.6791 68.9686 9.92837 67.1338C9.49873 66.832 9.97874 63.6494 9.65235 63.4067C7.39468 61.7098 4.89101 64.1218 2.70214 61.2174C1.2187 59.2608 1.8323 53.7612 1.07257 48.3367C0.979661 47.572 0.0161172 47.4385 -0.000878155 44.2843C0.0517266 36.358 0.594746 27.6874 0.586083 19.2376C0.6177 18.329 0.244013 18.3538 0.531917 18.076C0.586624 18.0424 0.626632 18.003 0.74829 17.9612C0.888609 17.9205 1.08347 17.8769 1.33507 17.833C1.58025 17.7887 2.40583 17.7877 3.41654 17.8987C3.73223 17.9248 6.14525 18.2924 8.87664 19.6799C9.57733 20.0339 10.3191 20.463 11.0593 20.9651C11.4292 21.216 11.7983 21.4845 12.1601 21.7676C12.2505 21.8383 12.3405 21.91 12.4299 21.9824C12.4776 22.0212 12.5092 22.0466 12.5726 22.0993C12.6926 22.2003 12.8127 22.3037 12.9326 22.4095C13.4122 22.8326 13.8889 23.2946 14.349 23.7894C18.2931 27.9127 19.4494 33.3175 19.6248 35.1372C19.8518 37.1975 19.7947 37.316 19.8443 37.4042C19.8752 37.4294 19.9071 37.4689 19.9398 37.3644C19.9338 37.1943 20.1461 36.8402 19.7314 33.8732C19.491 32.4128 18.9589 30.1689 17.6288 27.6638C16.9719 26.4235 16.1251 25.1593 15.1635 24.027C14.6836 23.4602 14.1775 22.9257 13.662 22.4339C13.4042 22.1879 13.1441 21.9525 12.8837 21.7281C12.7732 21.6312 12.6886 21.5578 12.5898 21.474C9.40355 18.7627 6.09161 17.6408 4.3915 17.1545C4.27899 17.1223 4.17046 17.092 4.06571 17.0634C3.95938 17.0345 3.85645 17.0075 3.83756 16.9981C3.76123 16.9714 3.68574 16.9452 3.61126 16.9196C3.4623 16.8683 3.31746 16.8194 3.17791 16.7727C2.89867 16.6792 2.64099 16.5945 2.40864 16.5161C1.34557 16.1952 1.32227 16.0091 1.01486 15.7557C0.732017 15.5104 0.71933 15.2612 0.625598 14.982C0.245144 14.6769 0.973159 13.2334 1.16707 11.7421C1.3119 10.7123 1.10509 7.50423 1.39605 6.18704C1.64481 4.87054 1.93501 7.56044 2.42836 6.0128C2.9146 4.44572 2.72398 0.797947 3.68605 0.371849ZM278.732 51.2531C277.94 48.1904 277.818 59.4064 278.677 56.7233C278.718 56.5803 278.772 51.4033 278.732 51.2531ZM374.879 49.5224C373.841 44.5749 373.126 51.8488 373.858 55.6698C374.59 59.4866 375.196 51.0222 374.879 49.5224ZM385.65 45.9152C384.436 42.0141 384.239 57.9188 385.541 54.7042C385.617 54.5225 385.721 46.1417 385.65 45.9152ZM4.68381 46.8175C4.66394 46.6685 4.05727 46.5204 4.0281 46.6678C3.67395 50.2283 4.93355 50.5223 4.68381 46.8175ZM396.34 41.9874C395.962 39.8358 394.87 42.319 395.34 44.9945C395.718 47.1469 396.811 44.6639 396.34 41.9874ZM237.302 39.264C237.29 39.0969 236.826 38.9462 236.835 39.8909C236.865 42.9338 237.511 42.0754 237.302 39.264ZM414.511 41.8119C411.825 41.2121 410.203 28.0733 413.126 29.557C413.656 29.8254 411.983 33.7462 412.657 34.9309C413.889 37.0894 414.712 28.8406 415.969 33.2615C416.197 34.0706 414.664 41.8753 414.506 41.8302C414.507 41.8241 414.509 41.818 414.511 41.8119ZM278.281 37.7809C278.265 37.6326 277.629 37.4917 277.613 37.6387C277.267 41.1994 278.549 41.4853 278.281 37.7809ZM210.406 32.3163C210.37 32.0003 208.889 31.704 208.841 31.9951C208.066 37.8176 211.06 38.4339 210.406 32.3163ZM321.236 29.5918C321.935 26.0099 322.77 25.5885 323.325 30.0871C322.631 29.848 321.932 29.8125 321.236 29.5918Z" fill="#F6FF4B"/>
</svg>
