<svg xmlns="http://www.w3.org/2000/svg" width="252" height="117" viewBox="0 0 252 117" fill="none">
  <path d="M4.60689 0.381367C7.311 -0.595612 10.9133 0.449017 13.5889 1.88283C14.4368 2.32752 14.0052 4.31533 14.6067 4.7118C15.7174 5.48468 16.8263 4.50978 17.9361 5.43048C18.3155 5.74534 17.8422 8.89403 18.2417 9.15209C20.3806 10.5436 22.4493 9.74162 24.6145 10.4109C29.4028 11.8829 34.1952 12.9336 38.9569 13.7732C44.8537 14.8171 50.8053 15.5348 56.8439 16.332C60.4818 16.8035 64.7837 19.6633 68.5293 18.4166C68.9681 18.2682 68.7087 15.5042 68.7924 15.2765C70.0791 11.7904 69.6459 17.3695 70.4853 18.1114C73.8421 21.0412 77.5732 21.2998 80.786 20.2375C82.1578 19.7774 80.789 14.2861 82.1685 17.3692C82.2644 17.5775 81.9112 20.5119 82.2881 20.8255C83.1465 21.5307 84.7663 21.0085 85.4222 21.2421C86.6929 21.7071 86.9043 21.678 88.1143 21.7135C89.7757 21.7876 91.7082 23.2501 93.4898 22.5887C93.8691 22.4388 93.3733 19.4292 93.9792 18.9185C94.5882 18.4086 96.1702 18.6671 96.7079 19.3775C97.2437 20.0883 97.0095 22.4525 97.1034 22.9948C97.8738 27.5714 99.7417 21.2396 99.9767 21.0835C104.301 18.4241 108.009 22.0443 112.069 22.0474C115.151 22.0422 118.455 20.8628 121.386 21.0382C124.884 21.2589 127.841 22.9028 131.235 22.6396C131.593 22.6153 131.192 19.0758 131.629 19.039C136.294 18.6511 140.899 19.0636 145.529 21.4831C145.992 21.7289 145.372 24.8306 145.833 25.2618C148.644 27.8331 153.085 33.9988 154.899 20.4911C156.828 21.0349 159.148 21.6008 160.858 24.3427C161.951 26.1074 160.844 29.4805 162.216 28.0498C162.525 27.731 162.156 24.7642 162.616 24.5104C164.567 23.4443 166.698 24.4294 168.623 22.9194C169.022 22.6054 168.943 19.9494 169.061 19.4725C170.049 15.6111 171.527 22.0293 171.855 22.4983C174.384 25.9967 176.278 24.6558 178.69 24.7736C179.252 24.8025 178.637 21.2273 179.179 21.1271C181.958 20.6546 184.849 21.0054 187.562 22.635C188.168 23.0062 187.552 26.0338 187.839 26.3666C189.099 27.7971 189.464 22.065 190.668 23.3275C190.928 23.5864 190.73 26.1838 190.773 26.4702C191.44 30.9672 192.205 24.6282 192.399 24.4918C193.097 23.9574 193.703 24.1211 194.262 24.6064C195.758 25.82 196.877 29.0346 198.577 28.4051C198.863 28.293 198.306 24.9877 199.104 24.8738C204.357 24.095 209.876 25.1687 214.986 28.0332C215.758 28.4734 215.081 30.9172 215.118 31.2238C215.717 36.0174 216.577 29.6724 216.849 29.4451C219.031 27.8205 220.667 33.2741 222.592 25.7855C225.237 26.7363 227.827 27.1095 230.774 27.4939C232.249 27.6933 233.729 27.8687 235.626 28.267C236.571 28.4756 237.638 28.7161 239.189 29.2978C239.977 29.6 240.942 30.0166 242.048 30.6826C243.129 31.3129 244.364 32.3625 244.177 32.2445C243.783 32.0334 243.936 32.2745 244.888 33.0135C245.389 33.4283 246.08 33.8804 247.456 35.2362C248.137 35.9458 249.062 36.9036 250.041 38.74C251.02 40.5052 251.78 43.5147 251.427 46.0836C251.019 49.7932 248.975 52.3183 248 53.2564C246.917 54.3115 246.179 54.7316 245.58 55.0625C244.369 55.6976 243.57 55.8778 242.795 56.0222C241.271 56.2775 239.961 56.1924 238.609 55.9542C238.465 55.9352 237.324 52.9997 237.045 52.9716C233.819 52.5155 236.332 56.7251 236.99 62.9556C237.152 64.5208 233.037 58.4351 232.726 57.9918C231.554 56.3721 230.168 51.8835 229.884 51.5941C227.658 49.3161 233.783 63.5119 232.243 64.1539C232.184 64.1501 231.305 61.4351 231.066 61.2274C230.318 60.5749 230.381 61.7712 229.614 61.0266C227.859 59.295 224.736 52.4568 225.05 57.0437C225.094 57.6373 228.624 65.6698 227.113 65.8291C226.52 65.8818 224.168 66.9779 223.306 66.706C222.436 66.4388 221.854 63.6309 221.762 63.5357C220.774 62.6661 220.097 61.9044 219.551 61.1179C218.378 59.3873 217.801 57.5508 215.809 54.253C212.91 49.4698 217.944 61.6145 218.107 63.1262C218.286 64.627 215.858 62.2647 215.138 61.3949C214.429 60.52 214.174 58.6927 213.674 58.2361C210.37 55.2668 215.213 64.6377 215.342 66.8251C215.653 72.0025 210.974 63.3599 209.303 62.9799C208.846 62.8796 209.942 64.8367 209.691 65.1559C208.677 66.3956 206.832 63.8461 206.363 67.0125C206.292 67.5263 207.198 73.4549 204.894 69.7313C204.565 69.1931 204.003 66.8073 203.265 66.5067C202.163 66.0538 200.489 66.1243 199.906 67.215C199.47 68.0239 201.641 71.4804 200.378 70.6307C199.815 70.2509 199.659 67.8048 198.671 67.2738C197.694 66.739 195.995 67.4946 195.362 67.8212C194.736 68.1473 196.172 70.8498 196.192 71.0611C196.287 72.278 195.538 74.1279 195.423 74.1675C189.911 76.6525 182.899 73.8254 178 77.4729C177.614 77.7549 179.026 80.6449 178.979 80.7188C177.971 82.5296 176.147 74.1221 174.115 71.841C176.545 77.8687 175.524 76.9955 174.735 78.0521C174.355 78.5668 175.511 80.8201 175.555 81.0785C176.15 84.936 173.902 80.5077 173.415 79.612C171.621 76.3178 172.625 80.6274 171.418 78.4285C170.22 76.2462 169.711 72.5365 168.729 72.9538C169.264 75.2369 172.134 80.6524 171.721 81.8586C170.165 86.4191 163.156 83.9433 160.683 84.3342C158.228 84.7197 157.623 85.4019 155.995 85.1101C153.044 84.5842 155.512 88.4781 154.716 90.9746C153.931 93.4667 150.808 82.7912 149.764 80.6346C148.727 78.4763 149.347 80.8637 148.624 79.7338C147.904 78.6034 147.914 76.8699 147.12 76.6394C146.326 76.4093 146.117 81.0092 146.754 83.4323C148.124 88.5591 150.8 93.4824 148.501 92.2544C148.365 92.1814 147.666 89.3297 147.196 89.1889C144.665 88.4673 142.43 88.7099 140.138 88.651C139.075 88.6401 138.078 88.5406 136.956 88.3001C136.466 88.1838 135.701 85.0076 135.404 84.905C132.298 83.8319 135.058 88.6489 135.815 94.8449C133.326 87.1411 130.932 82.747 129.087 83.3685C127.989 83.7352 129.372 86.9918 129.537 89.5818C129.574 90.3673 127.968 88.3696 128.404 89.979C129.815 95.2454 132.586 100.709 129.897 99.1088C129.774 99.0311 129.027 96.139 128.676 96.0748C126.433 95.6343 128.163 101.05 126.405 102.418C125.792 102.901 124.644 102.702 123.429 102.342C122.822 102.162 122.198 101.941 121.659 101.732C121.4 101.623 121.141 101.527 121.04 101.39C121.005 101.311 120.954 101.26 121.255 101.025C121.355 100.95 121.409 100.905 121.654 100.737C121.772 100.655 121.913 100.555 122.087 100.422C122.185 100.347 122.235 100.306 122.407 100.168C122.573 100.032 122.764 99.8686 122.987 99.6539C123.209 99.4389 123.463 99.1737 123.747 98.8181C123.827 98.7181 123.864 98.6714 123.991 98.4997C124.115 98.3297 124.244 98.1407 124.374 97.9294C124.635 97.5065 124.905 96.9908 125.138 96.3544C125.589 95.0782 125.946 93.374 125.365 91.1259C124.834 89.056 123.45 87.508 122.791 86.9498C121.501 85.8273 120.547 85.5201 120.216 85.3808C119.808 85.229 119.538 85.1599 119.335 85.1117L115.728 84.9202C115.908 84.9916 116.085 85.0428 116.254 85.0687C117.679 94.0549 119.124 91.6953 118.682 85.3982C119.874 85.4425 121.095 84.8483 122.381 85.4799C122.827 85.6937 123.078 88.328 123.182 88.5976C124.815 92.826 124.158 86.7354 124.355 86.4523C126.656 83.6209 129.874 87.6757 131.605 82.6958C131.672 82.5153 130.516 76.3024 132.167 80.6691C132.279 80.9704 131.998 83.9674 133.288 83.9229C134.61 83.8722 137.655 86.6885 138.78 83.4545C139.063 82.6732 139.043 77.4327 140.736 81.1685C140.964 81.6761 141.218 83.4748 141.594 84.4254C142.797 87.4536 141.771 81.1424 143.518 86.3164C145.263 91.4906 147.456 95.1753 148.401 91.1436C148.434 91.0252 147.785 85.9876 148.359 85.946C149.28 85.8829 150.728 86.6501 151.656 86.4166C152.098 86.3036 151.152 83.2923 151.217 83.2194C153.79 80.8644 156.52 83.1432 159.933 83.6553C160.571 83.7529 161.336 79.2059 163.176 82.2776C165.193 85.6399 167.15 100.999 169.209 96.8016C170.053 95.1184 167.419 75.6646 171.601 85.146C175.076 81.8411 179.835 86.1452 183.114 81.7991C183.261 81.6061 182.721 76.1381 183.163 76.1226C183.819 76.1102 184.689 78.538 185.168 78.6106C187.202 78.9759 188.497 76.4798 190.382 76.4418C191.099 76.4216 191.384 79.0581 192.239 79.0346C193.089 79.0098 192.945 75.4913 194.396 76.9111C195.495 77.9947 197.739 84.7917 199.013 85.3809C197.677 78.4997 198.471 78.4871 199.478 76.3994C199.67 75.9951 198.912 73.6585 198.978 73.3438C199.238 72.0098 200.1 73.8998 200.314 72.4618C200.367 72.1161 199.907 69.7669 199.924 69.3517C200.054 65.7316 202.446 70.7482 202.854 71.6235C204.423 74.9436 204.235 71.8078 205.182 73.0512C206.126 74.2949 205.453 76.2124 206.405 76.8933C206.676 77.087 206.948 77.2392 207.22 77.357C207.222 77.3569 207.228 77.3551 207.23 77.355C208.947 78.085 210.65 77.4634 212.1 77.266C212.78 77.1578 211.685 74.1195 211.767 74.0313C212.968 72.9606 215.045 76.0036 214.502 69.6157C218.802 85.531 215.003 67.8832 217.612 70.6986C217.816 70.9275 219.635 78.4976 219.282 79.7407C218.917 80.9852 217.506 78.7955 217.049 80.7096C216.929 81.1615 217.28 88.5359 217.219 88.9992C216.692 92.6321 214.205 81.2687 214.01 80.6568C211.929 74.0459 212.119 82.0235 211.865 82.6283C210.965 84.7481 209.784 84.4688 208.779 85.1244C208.77 85.1248 208.745 85.1324 208.737 85.1327C208.435 85.3321 208.156 85.6201 207.915 86.0946C207.243 87.3954 208.624 94.8881 207.884 94.7959C205.428 94.4941 202.537 84.233 202.154 93.706C202.07 95.7272 204.17 103.798 201.21 97.7141C201.024 97.3303 198.601 91.708 198.626 95.5681C198.63 96.0546 199.114 98.4327 199.035 98.6566C198.498 100.11 197.583 98.3232 196.9 99.4066C196.218 100.49 195.444 102.057 194.291 101.452C193.597 101.092 191.922 96.8203 191.41 95.7954C189.955 92.839 190.142 98.1385 188.862 94.4601C187.571 90.764 187.371 84.7873 185.533 82.6067C186.76 88.791 187.956 95.1516 189.162 101.377C186.208 101.761 182.949 100.359 180.076 101.248C179.723 101.364 180.79 104.603 180.431 104.812C178.917 105.681 176.977 103.621 175.485 104.921C174.317 105.943 173.647 109.754 172.448 110.934C170.107 104.057 168.575 106.888 166.957 106.56C166.393 106.448 166.024 104.556 165.526 104.02C163.633 102.048 165.628 108.14 165.454 109.204C164.711 113.742 161.554 99.6612 159.682 100.428C159.58 100.464 159.954 108.251 159.879 108.757C159.428 112.049 159.132 106.179 158.322 105.772C156.845 105.028 155.597 103.417 154.588 105.939C154.297 106.684 154.289 111.59 152.66 108.147C152.448 107.696 151.974 105.197 151.854 105.071C149.729 102.989 151.382 110.804 151.019 113.65C150.66 116.494 148.108 111.401 147.472 109.912C145.849 106.054 147.688 108.068 147.647 107.664C147.122 102.866 146.25 103.899 145.374 103.671C143.618 96.0368 142.624 96.7303 144.478 103.465C144.682 104.2 145.14 103.355 145.374 103.671C146.297 111.333 145.27 112.559 142.434 105.82C141.107 102.662 140.895 98.6947 139.267 100.508C138.537 101.326 139.992 106.53 139.535 108.13C138.438 111.791 135.155 107.339 133.462 108.498C132.859 108.917 134.099 111.675 133.708 112.061C132.652 113.096 131.171 111.137 130.13 112.504C130.038 112.631 130.921 115.606 130.543 115.722C127.649 116.663 124.793 115.214 121.256 115.75C121.071 115.778 120.875 115.828 120.67 115.894C118.594 115.904 113.038 116.231 111.14 115.388C110.673 115.263 110.094 115.098 109.318 114.821C108.929 114.681 108.49 114.513 107.985 114.296C107.323 114.01 106.464 113.605 105.46 113.015C104.451 112.419 103.252 111.626 101.876 110.41C100.666 109.38 97.8261 106.439 96.1875 102.639C92.2946 93.8321 95.0102 85.7921 97.169 82.1204C97.7296 81.1293 98.2917 80.3032 98.8205 79.6012C99.1614 79.1495 99.4558 78.7893 99.7556 78.4402C100.349 77.7516 100.89 77.2014 101.379 76.7371C101.869 76.2736 102.308 75.8965 102.705 75.5738C102.9 75.4149 103.101 75.2576 103.26 75.1359C103.377 75.0465 103.49 74.9618 103.599 74.8814C104.468 74.2415 105.117 73.8403 105.636 73.5291C107.179 72.6242 107.617 72.443 108.067 72.1969C108.888 71.7686 109.17 71.5864 109.529 71.3587C110.168 70.94 110.584 70.5933 111.022 70.2572C111.865 69.5983 112.614 69.0575 113.308 68.9677C115.974 68.6141 120.444 71.7761 122.151 69.993C123.245 68.8515 121.903 66.0502 121.762 63.8602C121.449 59.6294 125.959 65.7668 126.591 66.7412C126.621 66.7704 125.702 67.8821 126.874 69.143C128.371 72.116 126.582 66.76 126.591 66.7412C127.014 67.3658 129.555 67.1823 129.833 66.4505C129.968 66.0569 128.821 63.3583 128.909 63.2055C129.285 62.5719 129.695 61.9885 130.14 61.4565C132.129 59.0194 134.567 57.7965 137.535 57.8996C137.612 57.9345 138.664 61.038 138.829 61.0818C141.15 61.7761 140.929 57.5845 141.595 54.8005C142.276 52.0115 143.728 52.322 146.577 57.2627C147.452 56.1825 149.951 57.906 151.407 58.9738C152.869 60.0392 150.78 54.0129 150.815 53.8651C151.958 49.1341 154.725 51.9978 157.573 51.5406C158.94 51.3301 161.117 49.5284 162.236 48.3645C163.12 47.4338 164.295 48.5894 164.953 47.322C165.043 47.152 163.91 44.5445 163.913 44.4267C163.83 40.8299 165.734 47.5287 166.399 48.6034C168.814 52.512 170.171 54.5673 170.849 52.0475C171.006 51.4695 168.446 41.7553 168.836 40.984C169.351 39.9982 170.319 43.4612 170.826 42.3435C170.871 42.2509 170.078 40.1879 170.614 40.0902C173.088 39.6114 176.083 39.8561 178.415 38.7372C178.737 38.5924 177.073 35.4738 177.52 35.2096C179.613 33.9735 182.092 33.1724 184.856 33.8768C185.536 34.0621 186.075 36.4831 186.449 37.1203C188.724 40.9728 187.469 34.5951 187.588 34.4191C190.465 30.0278 195.559 34.2867 198.602 30.1533C198.774 29.9131 197.949 22.8684 200.84 28.0648C201.037 28.4086 203.94 33.7464 203.111 29.6475C203.058 29.3916 201.469 26.6806 202.393 26.6602C203.295 26.6449 203.844 24.2458 206.103 26.8933C206.123 26.9153 206.142 26.9377 206.162 26.9604C206.915 27.8181 209.926 33.094 209.201 28.227C209.16 27.8839 206.709 17.1985 210.039 23.9181C210.591 25.0225 213.409 32.4172 213.135 28.1564C213.071 27.3342 211.999 25.8637 212.187 24.6C212.466 22.6569 214.498 24.119 214.237 20.4143C214.207 19.7523 212.923 14.4728 215.124 17.9694C215.467 18.5176 216.304 21.0306 216.745 21.1662C218.874 21.8098 219.762 19.5008 221.687 20.6209C222.348 21.0206 223.978 24.9728 224.877 25.8114C225.761 26.6651 227.028 27.2183 225.552 25.816C224.819 25.1199 223.539 23.343 222.425 21.6651C221.184 20.0954 220.542 18.2095 218.322 19.5375C217.293 20.2439 215.976 21.0626 213.502 23.8254C211.307 26.192 206.581 33.0978 205.812 41.8507C204.97 48.6819 207.148 56.7033 209.735 61.1214C212.326 65.7432 214.576 67.86 216.063 69.309C219.061 72.0221 219.873 72.2974 220.145 72.5027C220.533 72.6619 218.562 71.5146 215.436 68.8619C213.913 67.5476 217.454 70.2615 219.525 71.145C221.757 72.2153 223.245 72.5898 224.136 72.7597C225.976 73.0812 226.29 72.8005 226.452 72.5816C226.647 72.0848 225.78 71.475 224.834 71.2055C224.34 71.0671 224.501 73.5297 223.751 73.5034C220.865 73.3926 214.452 75.3367 211.385 70.04C208.975 65.7946 212.368 62.7736 210.435 61.0084C209.462 60.1649 208.125 68.0336 207.887 68.2744C205.463 70.7203 203.96 67.1679 201.875 68.1841C201.435 68.3949 201.77 71.6122 201.397 71.7563C200.081 72.2759 198.867 70.8127 197.622 71.0442C197.071 71.1556 197.099 73.6062 196.612 73.4055C195.477 72.9595 194.454 71.926 193.315 69.6619C193.302 69.6352 193.289 69.6083 193.276 69.5812C193.251 69.5266 193.283 69.2831 193.33 68.9499C193.439 68.2052 193.626 67.0123 193.382 66.4774C193.317 66.3269 193.219 66.2286 193.078 66.2072C191.696 66.0035 189.851 63.7029 188.2 66.0122C187.695 66.7068 187.583 72.303 186.579 68.4194C186.37 67.6084 186.766 60.8926 185.419 66.6784C185.202 67.6398 183.023 75.4388 182.06 70.3745C181.806 69.0416 181.194 63.5316 180.597 64.3874C180.515 64.5241 180.791 67.5351 180.298 67.8212C178.563 68.7773 176.703 68.4311 174.926 69.3502C174.445 69.6016 175.118 72.7216 174.402 72.9968C172.4 73.7579 170.021 72.9378 168.079 71.9427C167.366 71.57 167.889 68.9983 167.84 68.7173C167.069 64.1468 166.517 70.2988 166.24 70.655C164.523 72.787 163.207 69.8813 161.65 70.6319C161.215 70.8312 161.494 73.77 161.406 74.0309C160.487 76.5803 161.203 71.3142 160.641 70.7277C159.06 69.0672 157.274 69.2874 155.667 69.6491C155.073 69.7862 155.71 73.196 155.178 73.2797C152.008 73.84 148.748 73.4898 145.699 71.5921C145.123 71.2286 145.505 68.6098 145.389 68.0102C144.586 63.8157 143.324 69.5213 143.038 70.0637C141.744 72.5406 141.273 70.2194 140.143 70.6452C134.627 72.7654 127.835 71.1961 122.644 70.2259C115.874 68.9767 110.618 66.4654 104.152 67.095C103.74 67.1317 104.145 70.6201 103.79 70.6966C99.2177 71.5249 94.7171 70.1521 90.1291 71.1509C89.7544 71.2267 90.2881 74.5336 89.6867 74.7664C88.4557 75.267 86.8683 75.0846 85.6246 74.0271C85.0164 73.5175 85.8376 70.682 85.2255 70.227C83.8125 69.1612 82.2522 68.9235 80.7869 69.4515C80.1622 69.6834 81.0994 73.0659 80.2884 73.1038C74.7412 73.432 69.303 74.0095 63.713 69.6278C63.3244 69.3269 62.9863 62.4548 62.1661 63.7722C62.1034 65.6793 62.1056 67.9227 62.0776 69.9611C54.3629 71.009 46.6511 68.8665 38.9569 68.3608C38.6059 68.3387 38.2579 68.3196 37.9129 68.3041C37.5675 68.2894 38.1634 71.9304 37.4965 71.9204C33.6752 71.8666 29.9811 72.8753 26.0572 69.2563C25.6606 68.9023 25.8525 62.4968 24.7064 63.4656C24.5116 63.6424 22.7886 64.4966 22.3349 65.8871C22.2748 66.0969 22.5874 69.0867 22.0347 69.1739C18.7949 69.6279 15.4676 68.9453 12.203 67.1185C11.6836 66.818 12.2352 63.634 11.8676 63.3923C9.27415 61.7022 6.37568 64.1225 3.87431 61.2317C2.20312 59.2852 2.82527 53.7815 1.9278 48.364C1.80078 47.5997 0.759574 47.4786 0.707995 44.3265C0.570576 36.4005 1.07068 27.7216 0.866988 19.2732C0.820628 17.4535 -0.560614 19.4134 0.259661 15.016C0.310284 14.7217 1.32183 13.2623 1.56912 11.7705C1.74425 10.7391 1.42233 7.53352 1.79037 6.21326C2.12611 4.89423 2.53137 7.58134 3.11 6.03015C3.70958 4.45977 3.43199 0.813049 4.60689 0.381367ZM157.969 63.7249C159.902 66.2722 156.11 55.7159 156.115 58.5781C156.12 58.729 157.872 63.6007 157.969 63.7249ZM181.221 92.0787C179.037 87.4815 179.709 94.7732 181.33 98.3369C182.944 101.898 181.885 93.472 181.221 92.0787ZM192.725 86.0131C190.562 82.4736 193.534 98.0999 194.362 94.6492C194.412 94.4537 192.851 86.2185 192.725 86.0131ZM6.07397 46.8213C6.05233 46.6724 5.30063 46.5272 5.29161 46.6749C4.89334 50.2371 6.389 50.5249 6.07397 46.8213ZM204.12 79.7163C203.272 77.6905 202.506 80.3737 203.563 82.8918C204.413 84.9175 205.174 82.2363 204.12 79.7163ZM207.299 57.8848C207.374 58.0354 207.927 57.9835 207.577 57.106C206.449 54.2794 206.063 55.3485 207.299 57.8848ZM224.933 75.1913C221.669 75.3377 217.087 62.8833 220.606 63.6151C221.256 63.7423 220.272 67.9871 221.283 68.9724C223.158 70.7613 222.181 62.5084 224.667 66.4761C225.087 67.2086 225.115 75.2122 224.931 75.2104C224.932 75.204 224.932 75.1977 224.933 75.1913ZM163.174 76.1622C163.243 76.2948 163.988 76.1669 163.954 76.0227C163.086 72.546 161.584 72.8016 163.174 76.1622ZM239.263 52.2164C239.418 52.509 241.445 51.7253 241.407 51.3762C239.081 46.0122 235.799 47.1591 239.263 52.2164ZM116.321 85.3036C116.504 81.6428 117.246 81.0826 118.678 85.3943C117.858 85.3005 117.126 85.3937 116.321 85.3036Z" fill="#F6FF4B"/>
</svg>
