<svg xmlns="http://www.w3.org/2000/svg" width="419" height="126" viewBox="0 0 419 126" fill="none">
  <path d="M409.206 74.5712C403.768 75.5482 396.476 74.5036 391.079 73.0698C389.383 72.6251 390.246 70.6373 389.044 70.2408C386.768 69.4679 384.536 70.4428 382.312 69.5221C381.551 69.2073 382.501 66.0586 381.699 65.8005C377.363 64.409 373.216 65.211 368.831 64.5417C361.628 63.4459 354.472 62.5836 347.261 61.868C332.949 60.4271 318.461 59.5817 303.797 58.6271C296.542 58.1587 287.744 55.3046 280.252 56.5584C279.382 56.7075 279.902 59.471 279.737 59.6989C277.136 63.1875 277.998 57.6076 276.29 56.8673C269.525 53.9444 262.032 53.6954 255.509 54.768C252.74 55.2324 255.517 60.7193 252.738 57.6407C252.545 57.4327 253.242 54.4971 252.486 54.1848C250.771 53.4824 247.504 54.0103 246.164 53.7792C243.587 53.319 243.176 53.349 240.745 53.3183C237.42 53.2509 233.464 51.7969 229.904 52.4668C229.143 52.6185 230.155 55.6257 228.941 56.1393C227.727 56.6521 224.509 56.4017 223.428 55.6941C222.344 54.9861 222.802 52.6207 222.609 52.079C221.026 47.5064 217.318 53.8486 216.84 54.0061C208.125 56.6904 200.646 53.0952 192.458 53.1238C186.252 53.1531 179.612 54.3614 173.694 54.2147C166.658 54.0282 160.695 52.4167 153.836 52.7212C153.113 52.7499 153.972 56.2843 153.09 56.3265C143.734 56.7718 134.441 56.4249 125.088 54.0841C124.154 53.8462 125.339 50.7343 124.406 50.3109C118.701 47.7867 109.549 41.7091 106.281 55.2539C102.369 54.7512 97.7889 54.2382 94.2015 51.5403C91.9512 49.8035 94.0854 46.4029 91.3724 47.8685C90.7645 48.1951 91.5815 51.1517 90.6701 51.4174C86.7283 52.5346 82.545 51.6091 78.6291 53.18C77.8519 53.5063 78.0932 56.1591 77.8779 56.6394C76.1352 60.5293 72.8359 54.165 72.1819 53.7077C71.2379 53.0861 70.3564 52.6249 69.5196 52.286C65.5229 50.7701 62.3118 51.7143 58.4894 51.7091C57.3473 51.7075 58.7614 55.2501 57.6595 55.3769C52.1873 55.9853 46.4792 55.7983 41.1507 54.4312C39.9544 54.1207 40.9089 51.0397 40.332 50.7363C37.9121 49.4375 37.5909 55.1953 35.3531 54.111C34.901 53.8907 34.9437 51.2794 34.8419 51.0007C33.1334 46.6353 32.7805 53.0748 32.6365 53.239C32.4807 53.3809 32.3732 53.4853 32.3174 53.5526C32.24 53.6232 32.2558 53.6523 32.4032 53.6192C32.4955 53.5912 32.9276 53.501 33.9737 53.0047C34.1061 52.9406 34.2493 52.8684 34.4048 52.7857C34.5715 52.6958 34.6772 52.6408 35.0683 52.4147C35.7418 52.0127 36.6156 51.4479 37.6856 50.4059C38.765 49.2914 39.9441 48.0363 41.0182 45.1631C42.2786 41.8978 41.8503 37.5541 40.6281 35.0614C40.0707 33.7963 39.3201 32.724 38.8603 32.1636C38.5132 31.7396 38.1835 31.3911 37.8781 31.0959C37.2663 30.5073 36.7536 30.1259 36.3291 29.8413C35.9041 29.5585 35.5641 29.3755 35.2853 29.2416C35.1312 29.1666 35.0582 29.1423 34.9824 29.1164C34.9069 29.0908 34.8368 29.0695 34.7714 29.0517C34.2524 28.9138 34.0144 28.9694 33.9212 29.0808C33.728 29.308 33.9205 29.712 34.0659 30.0926C34.9185 31.7024 36.4725 33.5307 38.6975 33.5291C39.2405 33.5235 38.7576 30.0562 40.2496 30.2371C50.1517 31.3599 60.9944 34.1862 70.6665 38.6774C72.1596 39.3669 70.5884 41.589 70.631 41.9068C71.3684 46.8871 73.6148 40.8169 74.1838 40.6788C76.0432 40.2646 77.6531 41.1552 79.236 41.7385C81.2165 42.485 83.1678 42.7074 85.5573 38.7764C102.258 44.6442 120.204 43.8369 135.896 53.9015C136.097 54.0218 135.096 57.0261 135.499 57.253C140.364 60.0215 140.305 55.0307 144.917 49.8617C146.077 48.5643 147.308 56.1637 147.432 56.7274C147.896 58.8067 146.101 63.2144 146.31 63.641C148.077 67.0152 150.727 51.7805 153.911 52.4137C154.006 52.4589 153.028 55.1649 153.24 55.4958C153.896 56.5331 154.933 55.588 155.55 56.7108C156.956 59.3044 156.14 66.8018 159.832 63.0847C160.302 62.6004 161.481 53.8933 164.233 54.8689C165.329 55.2651 170.36 56.1244 171.648 56.9637C172.936 57.802 171.417 60.3785 171.492 60.5185C174.526 64.9412 172.79 66.1712 173.585 71.9746C174.384 77.7576 176.459 64.7672 177.519 63.4843C178.579 62.2058 180.732 65.785 181.201 66.973C181.668 68.1611 180.465 69.7502 180.949 70.4668C184.167 75.1604 183.997 64.4261 185.728 62.6474C189.808 58.4317 190.314 68.4787 192.962 69.9882C193.679 70.3964 193.49 68.0931 194.218 68.0286C197.101 67.8023 198.121 71.1116 201.766 69.0033C202.363 68.6605 206.027 63.4221 206.785 67.9634C206.89 68.6174 205.76 70.8673 206.805 71.6337C208.375 72.7843 211.395 73.9368 213.401 73.514C214.89 73.2023 214.109 68.9606 215.597 70.5302C216.258 71.2302 214.366 73.2365 215.645 74.3601C216.922 75.4831 220.578 76.1173 222.011 76.3243C223.424 76.5256 223.26 73.3951 223.414 73.2174C224.331 72.2074 227.283 71.3104 227.514 71.3608C239.531 73.4102 249.471 80.6366 261.424 81.3006C262.351 81.355 262.378 78.0952 262.526 78.0712C265.877 77.373 261.771 85.2334 263.404 88.4652C264.356 82.0298 265.437 83.4454 267.738 83.1774C268.844 83.0421 268.774 80.463 268.917 80.2288C271.264 76.8 271.386 81.8562 271.471 82.9024C271.79 86.7524 273.723 82.662 273.982 85.2441C274.22 87.803 271.864 91.0602 274.003 91.436C275.047 89.2718 274.659 82.9993 276.453 82.35C277.261 82.0548 278.112 81.8923 278.986 81.8359C285.576 81.4571 294.111 86.9335 298.288 88.1854C303.069 89.6156 304.64 89.482 307.361 90.8679C312.177 93.3582 311.168 88.564 314.801 87.1843C318.477 85.8255 314.65 96.3718 314.624 98.8004C314.537 101.217 315.595 98.9315 315.848 100.327C316.088 101.721 314.619 103.059 315.741 103.809C316.067 104.008 316.432 103.912 317.035 103.683C317.168 103.621 317.294 103.547 317.41 103.459C317.544 103.376 317.695 103.289 317.783 103.176C317.843 103.045 318.047 103.001 317.673 102.653C317.623 102.605 317.561 102.548 317.481 102.474C317.441 102.437 317.396 102.396 317.346 102.348C317.363 102.355 317.189 102.223 317.069 102.105C316.935 101.977 316.773 101.81 316.591 101.553C316.244 101.088 315.732 99.9657 316.033 98.7138C316.331 97.4711 317.119 96.8434 317.53 96.5802C318.069 96.263 317.995 96.3522 318.118 96.3003C318.206 96.2747 318.282 96.258 318.348 96.2463C318.859 96.174 318.93 96.2849 318.971 96.3561C318.912 97.0213 318.173 97.7517 317.733 98.4677C317.319 99.1879 316.924 99.8965 316.754 100.51C315.383 105.708 316.683 111.378 313.139 109.142C312.93 109.009 313.879 106.16 313.067 105.797C307.038 103.027 300.736 102.268 294.783 99.7121C293.955 99.3546 295.026 96.1961 294.546 95.9513C290.581 93.8862 290.675 97.181 289.032 101.58C288.664 102.614 288.204 103.709 287.572 104.809C288.965 96.8147 287.857 91.738 284.002 91.3278C281.684 91.0785 281.709 94.6297 279.984 96.9692C279.475 97.6755 278.062 95.1065 277.603 96.7325C276.116 102.049 277.065 108.245 273.32 105.463C273.157 105.332 273.986 102.424 273.402 102.188C269.566 100.646 268.633 106.266 264.276 106.551C260.956 106.785 255.328 102.783 251.606 101.873C252.535 92.8241 248.75 94.5653 246.724 100.676C244.331 100.197 241.579 100.298 239.326 99.2195C238.54 98.85 239.317 96.2772 239.24 95.9844C238.076 91.3941 236.439 97.3701 235.883 97.559C229.948 99.3459 225.671 94.3074 219.784 98.3028C219.575 98.4469 218.681 104.709 217.638 99.9804C217.572 99.655 219.65 96.9598 217.086 96.5001C214.529 96.0406 209.969 92.2188 206.132 94.8052C205.204 95.4275 202.529 100.332 201.146 96.1798C200.962 95.6164 201.384 93.8356 201.139 92.8004C200.342 89.5003 199.159 95.8044 198.371 90.2835C197.581 84.7627 195.284 80.4708 191.33 83.8651C191.205 83.9629 189.885 88.9242 188.757 88.7399C186.956 88.4411 184.482 87.1541 182.586 87.0124C181.677 86.9462 181.969 90.1295 181.807 90.1722C175.549 91.3637 171.485 88.175 165.058 86.3601C163.895 86.0226 160.04 89.9706 158.046 86.3834C155.857 82.4558 159.878 67.332 153.693 70.4516C151.226 71.6999 146.398 90.9126 143.113 80.4223C134.665 82.163 127.553 76.289 118.973 79.0918C118.583 79.215 116.895 84.5446 116.036 84.3895C114.757 84.1485 114.318 81.5426 113.383 81.2862C109.566 80.1562 105.846 82.001 102.131 81.3092C100.72 81.0521 101.459 78.4697 99.807 78.1654C99.5698 78.1219 99.338 78.1548 99.1087 78.2372C97.6847 78.7103 96.3238 80.922 94.5539 79.2972C92.9472 77.8464 91.9412 70.5995 89.7562 69.5407C88.9379 76.5031 87.3742 76.1969 84.4001 77.7461C83.8154 78.0458 84.1479 80.5338 83.8582 80.8007C82.674 81.9409 81.934 79.8298 80.8341 81.0899C80.5694 81.3925 80.2993 83.7712 80.0566 84.1516C77.9589 87.475 75.8656 81.8347 75.4569 80.8473C74.033 77.1122 72.8788 80.1183 71.6259 78.5704C70.4083 77.0261 72.6431 75.5087 71.1447 74.4878C67.9889 72.3701 63.6802 72.2715 60.3173 71.7599C58.9946 71.5729 59.5198 74.8536 59.3216 74.9005C56.4144 75.3701 54.0275 71.6423 51.672 77.7517C51.877 61.1728 49.8057 79.1312 46.1843 75.2707C45.9107 74.9596 46.6977 67.2087 48.029 66.2524C49.3328 65.2926 50.8322 67.959 52.6812 66.4063C53.165 66.0502 56.2868 59.0991 56.6413 58.6974C59.4245 55.5672 58.3426 67.148 58.3955 67.7987C59.0613 74.8256 62.7377 67.3475 63.4978 66.8886C67.1082 64.8037 69.7572 66.7452 72.7269 65.2857C74.6752 64.3451 75.7083 56.7939 77.0775 57.1769C81.7562 58.4569 82.2685 69.197 87.7506 60.5053C88.9156 58.6504 88.7738 50.2652 91.6099 57.1412C91.7771 57.5736 93.6748 63.7908 95.5925 60.1783C95.8314 59.7226 96.0738 57.3081 96.3444 57.1308C98.0792 55.9826 98.9734 58.0169 100.898 57.2813C101.014 57.2371 101.132 57.1914 101.251 57.1448L101.106 57.1305C102.859 56.3799 105.055 55.4092 106.893 56.3592C108.061 56.9636 109.235 61.6151 109.735 62.7738C111.141 66.1087 113.362 61.0658 114.059 65.0094C114.754 68.9722 112.132 74.646 114.68 77.4031C115.367 71.1352 116.2 64.7137 116.951 58.4159C122.943 59.1996 128.626 61.7766 134.703 62.0617C135.449 62.09 135.003 58.6445 135.812 58.588C139.252 58.3668 141.954 61.0442 145.576 60.4136C148.338 59.9085 151.681 56.6141 154.58 55.9744C155.642 63.3178 160.089 61.2696 163.084 62.2084C164.137 62.5345 163.888 64.4465 164.596 65.1432C167.254 67.7234 166.493 61.2508 167.373 60.3244C171.142 56.3724 170.122 70.7696 174.131 70.7816C174.343 70.7871 177.635 63.3664 178.036 62.9224C180.584 60.0208 178.165 65.6229 179.526 66.3191C182.008 67.5911 183.643 69.5866 186.875 67.6222C187.82 67.0392 190.379 62.4606 191.755 66.3115C191.936 66.8159 191.578 69.336 191.746 69.501C194.808 72.2757 195.628 64.3288 197.754 61.8078C199.88 59.2874 202.282 65.0469 202.726 66.6838C203.893 70.9205 201.381 68.3245 201.259 68.7185C199.835 73.4093 202.03 72.7814 203.607 73.3343C203.12 81.1555 205.429 80.8962 205.249 73.8763C205.224 73.1091 203.898 73.7204 203.607 73.3343C205.727 65.8119 208.319 65.0624 210.397 72.4661C211.37 75.936 209.796 79.732 213.839 78.663C215.67 78.181 215.481 72.7474 217.176 71.427C221.066 68.4165 225.239 73.8538 229.001 73.4049C230.36 73.2413 229.334 70.1818 230.271 69.9686C232.759 69.3936 234.726 71.7998 237.241 70.8925C237.47 70.8066 237.219 67.6799 237.974 67.71C243.791 67.8869 248.54 70.3139 254.573 70.9277C257.462 71.2205 262.806 70.0044 265.781 70.6251C270.959 71.6843 276.87 76.7489 281.461 76.0825C284.408 75.6568 284.101 72.5235 285.533 70.5425C287.657 67.5145 290.447 71.6403 291.629 74.0982C291.986 74.7665 292.232 75.3133 292.334 75.5651C292.34 75.5811 291.901 75.6723 291.46 75.892C290.867 76.211 290.274 76.7948 290.952 77.7978C291.022 78.3291 291.102 78.6369 291.187 78.7786C291.68 79.5372 292.308 75.5748 292.334 75.5651C292.663 76.3307 297.588 77.5025 298.6 77.0053C299.152 76.7334 299.138 73.7902 299.419 73.7033C306.244 71.7088 313.552 71.7008 318.804 73.4402C318.871 73.5034 318.575 76.7676 318.735 76.8751C318.856 76.9732 318.991 77.0492 319.033 77.1008C319.051 77.153 319.116 77.1791 318.726 77.1923C318.524 77.2011 318.27 77.2033 317.702 77.2372C317.16 77.2794 316.448 77.3102 314.918 77.6079C314.137 77.7707 313.142 77.988 311.604 78.5529C311.219 78.6966 310.797 78.8653 310.331 79.0725C310.215 79.1242 310.095 79.1786 309.973 79.2355C309.912 79.2642 309.85 79.2932 309.788 79.323C309.756 79.3381 309.725 79.3532 309.693 79.3684C309.64 79.3943 309.502 79.4617 309.402 79.5121C308.549 79.9422 307.557 80.5014 306.41 81.3226C304.192 82.936 300.925 85.8071 298.758 91.0274C296.493 96.1931 296.794 103.061 298.476 107.209C301.874 115.494 306.188 117.211 306.455 117.669C307.002 118.06 307.467 118.358 307.875 118.606C308.689 119.098 309.28 119.396 309.761 119.63C310.712 120.085 311.239 120.283 311.636 120.438C311.87 120.526 311.885 120.535 311.978 120.572C312.055 120.603 312.123 120.631 312.185 120.657C312.307 120.708 312.402 120.749 312.477 120.785C312.78 120.929 312.745 120.984 312.714 121.059C312.675 121.13 312.558 121.196 312.429 121.271C312.202 121.428 311.859 121.606 311.492 121.811C310.092 122.648 308.407 123.934 306.688 124.803C303.174 126.526 300.858 125.267 300.032 119.377C297.56 119.618 294.529 116.499 292.861 114.639C291.182 112.778 289.647 118.975 289.45 119.065C283.223 121.967 280.812 117.779 275.242 116.106C274.485 115.875 273.478 115.696 272.334 115.557C269.658 115.244 266.177 115.177 264.033 115.256C261.573 115.34 260.55 113.612 258.221 114.122C257.907 114.189 257.643 117.032 257.533 117.121C254.474 119.974 256.981 113.397 256.738 112.084C255.883 107.316 255.255 104.742 251.8 106.213C251.019 106.551 247.033 115.945 245.632 116.26C243.813 116.651 245.151 113.266 243.263 113.771C243.101 113.811 242.699 115.984 241.652 115.675C236.74 114.255 231.659 111.919 226.428 111.089C225.726 110.969 225.926 114.586 224.902 114.47C220.073 113.919 214.852 112.732 210.554 110.189C209.496 109.551 210.697 107.29 210.594 106.526C209.95 101.897 206.501 107.736 206.132 107.786C197.023 109.085 191.694 102.091 182.495 103.049C181.991 103.112 177.006 109.112 176.558 103.013C176.525 102.606 176.119 96.3759 173.888 100.129C173.749 100.364 174.132 103.607 172.455 102.946C170.78 102.286 167.573 103.752 165.856 99.9291C165.312 98.724 164.709 92.4701 161.508 96.7137C161.295 97.0121 155.673 106.934 155.904 99.3544C155.945 98.1075 157.714 90.3933 154.224 93.8292C153.556 94.497 154.14 96.4144 152.57 97.2229C150.155 98.4698 147.821 95.84 144.581 98.7848C144.011 99.307 141.058 104.192 140.341 99.8916C140.229 99.2181 141.199 96.7187 140.456 96.2685C136.917 94.114 132.595 95.0523 129.058 92.4844C127.812 91.5814 129.347 87.5333 128.143 86.1271C126.955 84.7242 124.253 83.0653 122.387 84.6842C120.516 86.3031 120.817 93.3005 118.484 93.393C108.281 93.7817 99.3928 87.9645 89.8027 85.5116C88.386 85.1485 89.1257 87.7718 86.9911 87.4062C82.6948 86.6764 76.6147 86.2459 71.0787 84.9988C66.3584 83.9387 62.1475 82.3324 59.4004 79.4291C54.7631 74.3558 62.132 72.5112 58.288 70.0846C56.3614 68.91 52.83 76.3028 52.2435 76.4475C47.0481 78.0582 44.2646 73.9789 39.6546 74.1908C38.702 74.2348 38.9875 77.5553 38.186 77.5582C35.3641 77.5794 32.8158 75.6182 29.9154 75.2652C28.6104 75.1109 28.4101 77.5751 27.1269 77.0938C25.6792 76.5473 24.2085 75.8288 22.5025 74.7464C21.4877 74.1545 20.8299 73.6076 19.2353 72.6273C18.8739 72.3926 18.4962 72.1427 18.0928 71.8708C17.8911 71.7348 17.6829 71.5933 17.4667 71.4451C17.1928 71.2745 16.8441 71.0691 16.503 70.8583C15.8092 70.4314 15.0319 69.9428 14.0981 69.3163C13.8645 69.1593 13.6208 68.9933 13.3653 68.8159C13.2375 68.7271 13.1068 68.6356 12.973 68.5409C12.9019 68.4912 12.852 68.4532 12.7575 68.3894C12.6449 68.3152 12.5304 68.239 12.4134 68.1603C11.4776 67.5289 10.396 66.7605 9.08965 65.6703C8.09871 64.8182 9.28168 65.507 10.7157 66.1159C12.1297 66.7235 13.8293 67.2118 14.2136 66.9605C14.7938 66.8173 15.0358 66.5049 14.3459 65.7705C13.7697 65.2468 12.7724 64.6088 10.5921 62.7822C9.48948 61.8187 8.02006 60.5687 6.02275 58.0292C3.18399 55.0779 -3.29259 42.2077 2.048 29.9566C8.43221 16.3982 16.4356 15.4096 16.9375 14.7028C18.9532 13.8378 20.3841 13.4453 21.6003 13.1464C23.2314 12.782 24.5339 12.6386 25.5462 12.5704C26.4016 12.5303 27.2003 12.5279 27.9906 12.5327C28.7322 12.5442 29.2723 12.5818 29.9176 12.5934C32.3872 12.6566 34.3293 12.526 36.2453 11.253C37.432 10.4896 37.0597 4.89832 39.705 8.65765C40.2614 9.44487 39.8723 16.1809 42.3168 10.2836C42.7745 9.2983 47.0422 1.33404 49.2953 6.33585C49.8831 7.65112 51.4422 13.1172 52.7311 12.2266C52.8906 12.0854 52.1839 9.09245 53.1653 8.77927C56.7142 7.72669 60.5364 7.9866 64.222 6.9938C65.1836 6.72315 63.6988 3.63193 65.1412 3.32796C66.2994 3.08378 67.5715 2.97214 68.9136 2.95946C71.9219 2.93162 75.4517 3.49242 78.1457 4.15605C79.5962 4.50636 78.6219 7.09357 78.7298 7.37296C80.4713 11.9176 81.4432 5.75066 82.0181 5.38614C85.3654 3.20456 88.2503 6.07223 91.3491 5.28167C92.2276 5.07115 91.5799 2.14032 91.7531 1.87713C93.5587 -0.69524 92.2387 4.588 93.4039 5.16003C96.7471 6.77957 100.236 6.51844 103.589 6.12074C104.815 5.97041 103.412 2.5754 104.515 2.47985C110.832 1.85125 117.569 2.13839 123.802 3.98331C124.974 4.33689 124.251 6.96203 124.498 7.55951C126.199 11.7398 128.666 6.01402 129.242 5.46702C131.82 2.96957 132.809 5.28326 135.101 4.84031C146.264 2.63577 160.058 4.12307 170.601 5.04136C184.336 6.22261 194.996 8.69263 208.083 8.02068C208.915 7.98129 208.07 4.49553 208.787 4.4168C218.04 3.55931 227.169 4.90838 236.434 3.88968C237.197 3.81227 236.093 0.507641 237.317 0.27227C239.83 -0.233685 242.996 -0.0576134 245.527 0.9953C246.768 1.5026 245.107 4.34119 246.356 4.79385C249.267 5.85435 252.359 6.08677 255.329 5.55409C256.601 5.3202 254.678 1.94075 256.332 1.90025C267.524 1.55486 278.549 0.965633 289.88 5.33927C290.659 5.63965 291.302 12.5113 292.983 11.1928C293.108 9.28561 293.1 7.04223 293.154 5.00378C309.498 3.89938 325.647 6.28018 341.983 6.64848C342.682 6.66322 341.476 3.02216 342.826 3.03215C344.34 3.0426 345.817 3.01298 347.261 2.98496C353.519 2.86872 359.584 2.78016 365.924 5.69632C366.723 6.05025 366.336 12.4558 368.646 11.487C369.033 11.3102 372.527 10.456 373.432 9.06545C373.553 8.85571 372.924 5.86586 374.037 5.77872C380.557 5.3247 387.335 6.00727 393.882 7.83407C394.919 8.13462 393.818 11.3186 394.552 11.5603C399.814 13.2504 405.651 10.8301 410.688 13.7209C414.04 15.6674 412.811 21.1711 414.613 26.5886C414.897 27.3529 416.97 27.474 417.085 30.626C417.362 38.5521 416.352 47.231 416.761 55.6794C416.857 57.4991 419.644 55.5391 417.989 59.9366C417.886 60.2309 415.85 61.6903 415.342 63.1821C414.998 64.2135 415.63 67.4191 414.908 68.7393C414.2 70.0584 413.427 67.3713 412.228 68.9224C411.056 70.4928 411.582 74.1395 409.206 74.5712ZM285.216 106.286C283.937 102.916 281.505 113.869 284.047 111.631C284.172 111.509 285.283 106.452 285.216 106.286ZM127.832 70.1989C129.784 75.3491 132.144 68.263 130.773 64.2983C129.408 60.3383 127.239 68.6376 127.832 70.1989ZM102.283 71.4334C104.782 75.587 106.735 59.7957 103.355 62.7064C103.16 62.8706 102.138 71.1922 102.283 71.4334ZM406.268 28.1312C406.312 28.2802 407.788 28.4254 407.822 28.2777C408.615 24.7155 405.64 24.4277 406.268 28.1312ZM76.9929 72.7806C77.6795 75.0187 80.4289 72.814 79.63 70.0383C78.9979 67.8068 76.1667 70 76.9929 72.7806ZM191.954 75.3701C191.958 75.2004 190.929 74.8389 190.763 75.7692C190.232 78.7664 191.876 78.2224 191.954 75.3701ZM36.2978 66.7018C36.7881 67.0116 37.1989 67.4122 37.5631 67.8885L37.4251 67.8333C40.4623 71.5865 42.5492 82.6139 35.0689 79.3982C34.3012 79.0091 35.5295 78.3165 36.5797 77.403C37.636 76.4921 38.5401 75.3968 37.8494 74.6086C37.0671 73.7004 36.1098 73.7517 35.0839 74.0718C35.058 74.0643 34.9842 74.0303 34.9586 74.0217C32.7126 74.6432 29.599 76.2978 29.3057 72.6588C29.2423 71.7044 36.1616 66.6026 36.3148 66.6898C36.3091 66.6938 36.3034 66.6978 36.2978 66.7018ZM286.721 92.8533C286.694 92.6968 285.279 92.2772 285.216 92.4146C283.744 95.7551 286.624 96.6087 286.721 92.8533ZM131.365 56.127C131.342 55.8001 127.983 54.8316 127.819 55.096C124.905 60.4538 131.685 62.4273 131.365 56.127ZM251.569 101.626C249.627 105.043 247.604 105.279 246.731 100.681C248.321 101.068 249.978 101.257 251.569 101.626Z" fill="#F6FF4B"/>
</svg>